<mxfile host="app.diagrams.net" modified="2023-11-21T08:40:42.666Z" agent="Mozilla/5.0 (Windows NT 10.0; Win64; x64) AppleWebKit/537.36 (KHTML, like Gecko) Chrome/119.0.0.0 Safari/537.36" etag="YVe4GTd4XpSV3b98ZxWU" version="22.1.3" type="device">
  <diagram name="Page-1" id="W30JR3Ti7Ig2EQh4956J">
    <mxGraphModel dx="1804" dy="2231" grid="1" gridSize="10" guides="1" tooltips="1" connect="1" arrows="1" fold="1" page="1" pageScale="1" pageWidth="850" pageHeight="1100" math="0" shadow="0">
      <root>
        <mxCell id="0" />
        <mxCell id="1" parent="0" />
        <mxCell id="JOAAqWhhBDu5gQpFyMWB-9" value="" style="shape=image;verticalLabelPosition=bottom;labelBackgroundColor=default;verticalAlign=top;aspect=fixed;imageAspect=0;image=data:image/png,iVBORw0KGgoAAAANSUhEUgAAAoAAAAHgCAYAAAA10dzkAAAAOXRFWHRTb2Z0d2FyZQBNYXRwbG90bGliIHZlcnNpb24zLjQuMywgaHR0cHM6Ly9tYXRwbG90bGliLm9yZy/MnkTPAAAACXBIWXMAAA9hAAAPYQGoP6dpAABfxklEQVR4nO3dd3gU1f4/8PembTabQvomEHqoCUVAJHohGEApIqIiTUDwJ00kAg9FFAIiQVRQUfFrAywYC+JVEAUUoohc6U3kqiBFsgRIJyEJyfn9ce5sy26yaRvCvF/Ps092Z86cOXOmfXLOFI0QQoCIiIiIVMOtrgtARERERK7FAJCIiIhIZRgAEhEREakMA0AiIiIilWEASERERKQyDACJiIiIVIYBIBEREZHKMAAkIiIiUhkGgEREREQqwwCQiIiISGUYABIRERGpDANAIiIiIpVhAEhERESkMgwAiYiIiFSGASARERGRyjAAJCIiIlIZBoBEREREKsMAkIiIiEhlGAASERERqQwDQCIiIiKVYQBIREREpDIMAImIiIhUhgEgERERkcowACQiIiJSGQaARERERCrDAJCIiIhIZRgAEhEREakMA0AiIiIilWEASERERKQyDACJiIiIVIYBIBEREZHKMAAkIiIiUhkGgEREREQqwwCQiIiISGUYABIRERGpDANAIiIiIpVhAEiVotFonPrs3LmzWvNJSkqCRqOp0rQ7d+6skTJUx+nTp/HEE0+gbdu20Ov18Pb2RtOmTTF69Gjs2LEDQog6K1t8fDxiYmJqNM+///673O0hKSmpSvlWZ9qqsrftNW3aFOPGjauR/OPj463qxtvbG+3atcOSJUtQVFRUpTzXr1+Pl19+uUbKp2a268by07Rp0yrlOW7cuCpPW1XK/rh27VqXzpfqF4+6LgDVL7/88ovV72effRY7duzADz/8YDW8Xbt21ZrPo48+irvvvrtK095yyy345Zdfql2Gqvrqq68wcuRIhISEYNKkSbjlllug1Wrx559/4vPPP8edd96J7du3IyEhoU7KV5umTZuGkSNHlhneqFGjKuX3yy+/VHnamrRx40b4+/vXWH7NmzfHRx99BAC4dOkS3nnnHTzzzDM4e/Ys3nrrrUrnt379ehw7dgyJiYk1Vka1slw3lrRabZXye+aZZzB9+vTqFouoxjEApEq57bbbrH6HhobCzc2tzHBb+fn58PHxcXo+jRo1qvKJ39/fv8Ly1Ja//voLI0aMQPv27bF9+3aroKFXr16YMGECdu7cicDAwHLzqWx93SgaN25co3VfV+vRVufOnWs0P51OZ7Vs/fv3R7t27bBu3Tq8+uqr8Pb2rtH5VVV93Q4dEULg2rVr0Ol0DtPYrpvqatGiRY3lRVST2AVMNU7pYvzxxx8RFxcHHx8fjB8/HgDwySefoF+/foiIiIBOp0Pbtm0xd+5cXL161SoPR91wgwYNwrfffotbbrkFOp0Obdq0wXvvvWeVzl4X8Lhx4+Dr64s///wTAwYMgK+vL6KiojBz5kwUFhZaTX/+/Hk88MAD8PPzQ4MGDTBq1Cjs3bvXqS6VFStWID8/H2+88YbDFqP4+Hh07NixzLIeOHAADzzwAAIDA00njX379mH48OFo2rQpdDodmjZtihEjRuDMmTNWea5duxYajQbbtm3DI488gqCgIOj1etxzzz04deqU3XLs3bsX//rXv+Dj44PmzZtj2bJlKC0tLXf5aoKyffz000+47bbboNPp0LBhQzzzzDMoKSmxSmvbBZyfn49Zs2ahWbNm8Pb2RlBQELp27YqPP/7YarqvvvoKPXr0gI+PD/z8/NC3b98yrdcAsHnzZnTq1AlarRbNmjXDiy++aLfM9rqAs7KyMHPmTDRv3hxarRZhYWEYMGAAfv/990rXiYeHBzp16oSioiJkZWWZhgsh8MYbb6BTp07Q6XQIDAzEAw88YLVO4+PjsXnzZpw5c8aqyxJwfDmEvS5CZR85evQo+vXrBz8/P1MrtUajweOPP44PPvgAbdu2hY+PDzp27IhNmzY5tXxnz57F6NGjERYWBq1Wi7Zt2+Kll14ybW/FxcUICwvDww8/XGbarKws6HQ6zJgxwzQsJyfHtB14eXmhYcOGSExMLHMcUcr95ptvom3bttBqtVi3bp1TZS5PZfY3e13An332Gbp3746AgADT/qccIxUV1ZniwoULGDZsGPz8/BAQEICHHnoIRqPRbrn37duHwYMHIygoCN7e3ujcuTM+/fTTatcH1U9sAaRakZaWhtGjR2P27NlYunQp3Nzk/xp//PEHBgwYgMTEROj1evz+++94/vnn8euvv5bpRrbn8OHDmDlzJubOnYvw8HC88847mDBhAlq2bImePXuWO21xcTEGDx6MCRMmYObMmfjxxx/x7LPPIiAgAAsWLAAAXL16Fb1790ZGRgaef/55tGzZEt9++y0eeughp5Z727ZtiIiIQNeuXZ1Kb2no0KEYPnw4Jk2aZDqR/f3332jdujWGDx+OoKAgpKWlYfXq1ejWrRt+++03hISEWOUxYcIE9O3bF+vXr8e5c+fw9NNPIz4+HkeOHEGDBg1M6YxGI0aNGoWZM2di4cKF2LhxI+bNm4fIyEiMGTPGlC4+Ph6pqalOX7NYWlqK69evlxnu4WF9qDEajRg+fDjmzp2LxYsXY/PmzViyZAkyMzPx2muvOcx/xowZ+OCDD7BkyRJ07twZV69exbFjx3DlyhVTmvXr12PUqFHo168fPv74YxQWFmL58uWIj4/H999/jzvuuAMA8P333+Pee+9Fjx49kJKSgpKSEixfvhwXL16scDlzc3Nxxx134O+//8acOXPQvXt35OXl4ccff0RaWhratGnjVH1ZOn36NBo0aIDQ0FDTsIkTJ2Lt2rV44okn8PzzzyMjIwOLFy9GXFwcDh8+jPDwcLzxxht47LHH8Ndff2Hjxo2Vnq+loqIiDB48GBMnTsTcuXOt1uXmzZuxd+9eLF68GL6+vli+fDnuu+8+nDx5Es2bN3eY56VLlxAXF4eioiI8++yzaNq0KTZt2oRZs2bhr7/+whtvvAFPT0+MHj0ab775Jl5//XWrf54+/vhjXLt2DY888ggA+U9Ar169cP78eTz11FPo0KEDjh8/jgULFuDo0aPYvn271T+PX375JX766ScsWLAABoMBYWFhFdaDvW3Yzc3NdBxTOLu/Wfrll1/w0EMP4aGHHkJSUhK8vb1x5swZq+OfM3UGAAUFBejTpw8uXLiA5ORktGrVCps3b7Z7vNqxYwfuvvtudO/eHW+++SYCAgKQkpKChx56CPn5+TV2jSvVI4KoGsaOHSv0er3VsF69egkA4vvvvy932tLSUlFcXCxSU1MFAHH48GHTuIULFwrbzbNJkybC29tbnDlzxjSsoKBABAUFiYkTJ5qG7dixQwAQO3bssConAPHpp59a5TlgwADRunVr0+/XX39dABBbtmyxSjdx4kQBQKxZs6bcZfL29ha33XZbmeElJSWiuLjY9CkpKSmzrAsWLCg3byGEuH79usjLyxN6vV688sorpuFr1qwRAMR9991nlf7nn38WAMSSJUtMw5T185///Mcqbbt27cRdd91lNezOO+8U7u7uFZbr9OnTAoDDz08//VRm/v/+97+t8vh//+//CTc3N6v1C0AsXLjQ9DsmJkYMGTLEYTlKSkpEZGSkiI2Ntarj3NxcERYWJuLi4kzDunfvLiIjI0VBQYFpWE5OjggKCrK77Y0dO9b0e/HixQKA2LZtW4V1Y6tXr16iffv2pm0hLS1NLFiwQAAQb775pindL7/8IgCIl156yWr6c+fOCZ1OJ2bPnm0aNnDgQNGkSZMy87K3LwhhXl+W27Oyj7z33ntl8gEgwsPDRU5OjmmY0WgUbm5uIjk5udzlnTt3rt3tbfLkyUKj0YiTJ08KIYQ4cuSIACDeeustq3S33nqr6NKli+l3cnKycHNzE3v37rVK9/nnnwsA4ptvvrEqd0BAgMjIyCi3jApl27T3mTBhgildZfa3sWPHWq2bF198UQAQWVlZDsvhbJ2tXr3a4b5ku37btGkjOnfuLIqLi63SDho0SERERFjtL6QO7AKmWhEYGIg777yzzPBTp05h5MiRMBgMcHd3h6enJ3r16gUAOHHiRIX5durUCY0bNzb99vb2RqtWrcp0idqj0Whwzz33WA3r0KGD1bSpqanw8/MrcwPKiBEjKsy/PEOHDoWnp6fp88QTT5RJc//995cZlpeXhzlz5qBly5bw8PCAh4cHfH19cfXqVbv1NWrUKKvfcXFxaNKkCXbs2GE13GAw4NZbb7UaZlsXgGwls9ca4sj06dOxd+/eMp9OnTpZpfPz88PgwYOtho0cORKlpaX48ccfHeZ/6623YsuWLZg7dy527tyJgoICq/EnT57EhQsX8PDDD1u11vj6+uL+++/Hnj17kJ+fj6tXr2Lv3r0YOnSo1fV2fn5+ZbYRe7Zs2YJWrVqhT58+Faa15/jx46ZtISIiAosXL8a8efMwceJEU5pNmzZBo9Fg9OjRuH79uuljMBjQsWPHWrvL3d52CAC9e/eGn5+f6Xd4eDjCwsIq3Pd++OEHtGvXrsz2Nm7cOAghTC1fsbGx6NKlC9asWWNKc+LECfz6669W3aObNm1CTEwMOnXqZFUvd911l93u7jvvvLPCa24ttWjRwu42/Mwzz5RJ6+z+Zqlbt24AgGHDhuHTTz/FP//8UyaNs3W2Y8cOh/uSpT///BO///67qbyW9TZgwACkpaXh5MmTDstMNyd2AVOtiIiIKDMsLy8P//rXv+Dt7Y0lS5agVatW8PHxwblz5zB06NAyJ3N7goODywzTarVOTevj41Pm4nqtVotr166Zfl+5cgXh4eFlprU3zJ7GjRvbPSG+9NJLePrppwGYTwC27NXZyJEj8f333+OZZ55Bt27d4O/vD41GgwEDBthdZoPBYHeYZRcpUL16LE+jRo2c6v62V59K2W3LaunVV19Fo0aN8Mknn+D555+Ht7c37rrrLrzwwguIjo42TWuvLiMjI1FaWorMzEwIIVBaWuqwvipy6dIlq39EKqtFixZISUmBEAJnzpzBkiVLkJycjA4dOmD48OEAgIsXL0II4XDbK6/btap8fHwcXrta1W3mypUrdh+DEhkZaRqvGD9+PKZOnYrff/8dbdq0wZo1a6DVaq3+Abt48SL+/PNPeHp62p3f5cuXrX7b2xbK4+3t7fQlHM7ub5Z69uyJL7/8Eq+++irGjBmDwsJCtG/fHvPnzzctp7N15uh4ZVsu5bKGWbNmYdasWXbLZVtvdPNjAEi1wt4z/H744QdcuHABO3fuNLX6AbC66L2uBQcH49dffy0z3NFF1bb69u2L119/Hfv27bM6iThzJ6BtnWVnZ2PTpk1YuHAh5s6daxpeWFiIjIwMu3nYK6fRaETLli2dKr+r2LvOTim7vUBDodfrsWjRIixatAgXL140tQbec889+P33303TpqWllZn2woULcHNzQ2BgIIQQ0Gg0DuurIqGhoTh//nyF6RyxDDK6deuG3r17o3379khMTMSgQYPg6+uLkJAQaDQa/PTTT3YfQeLMY0mUf3hsb3RydLKv6rM3yxMcHOxwfQCwuo51xIgRmDFjBtauXYvnnnsOH3zwAYYMGWLVghcSEgKdTlfm5i/L8ZZqY5kUVd3f7r33Xtx7770oLCzEnj17kJycjJEjR6Jp06bo0aOH03Xm7PFKST9v3jwMHTrUbplat25dbpnp5sMuYHIZ5UBse+L6v//7v7oojl29evVCbm4utmzZYjU8JSXFqemffPJJ+Pj4YOrUqcjNza1WWTQaDYQQZerrnXfeKXO3rML2+WW7d+/GmTNnEB8fX62y1LTc3Fx89dVXVsPWr18PNze3Cm/mUYSHh2PcuHEYMWIETp48ifz8fLRu3RoNGzbE+vXrrW5cuXr1KjZs2GC6M1iv1+PWW2/FF198YdUCnJubi6+//rrCeffv3x///e9/nbpxyRnBwcFYtmwZLl68iFWrVgEABg0aBCEE/vnnH3Tt2rXMJzY21jS9o5Y4pRXpyJEjVsNt6742JSQk4LfffsOBAweshr///vvQaDTo3bu3aVhgYCCGDBmC999/H5s2bYLRaCxzd+ygQYPw119/ITg42G69uPKhy9Xd37RaLXr16oXnn38eAHDw4EEAztdZ7969He5Lllq3bo3o6GgcPnzYbp117drVqnuf1IEtgOQycXFxCAwMxKRJk7Bw4UJ4enrio48+wuHDh+u6aCZjx47FypUrMXr0aCxZsgQtW7bEli1b8N133wFAmbsAbbVo0QIff/wxRowYgdjYWEyePNn0IOj09HRs3boVAJx6qLC/vz969uyJF154ASEhIWjatClSU1Px7rvvOrzDcN++fXj00Ufx4IMP4ty5c5g/fz4aNmyIKVOmVK4i/ichIQGpqalOXwd49uxZ7Nmzp8zw0NBQq1bQ4OBgTJ48GWfPnkWrVq3wzTff4O2338bkyZPL7Vrt3r07Bg0ahA4dOiAwMBAnTpzABx98YArsAGD58uUYNWoUBg0ahIkTJ6KwsBAvvPACsrKysGzZMlNezz77LO6++2707dsXM2fORElJCZ5//nno9XqHLayKxMREfPLJJ7j33nsxd+5c3HrrrSgoKEBqaioGDRpkFdQ4a8yYMVixYgVefPFFTJ06Fbfffjsee+wxPPLII9i3bx969uwJvV6PtLQ07Nq1y7R9AfL6uS+++AKrV69Gly5d4Obmhq5du8JgMKBPnz5ITk5GYGAgmjRpgu+//x5ffPFFpctXVU8++STef/99DBw4EIsXL0aTJk2wefNmvPHGG5g8eTJatWpllX78+PH45JNP8Pjjj6NRo0ZlrrNMTEzEhg0b0LNnTzz55JPo0KEDSktLcfbsWWzduhUzZ85E9+7dq1zegoICu9swUPa5lFXZ3xYsWIDz588jISEBjRo1QlZWFl555RWr66GdrbMxY8Zg5cqVGDNmDJ577jlER0fjm2++MR2vLP3f//0f+vfvj7vuugvjxo1Dw4YNkZGRgRMnTuDAgQP47LPPqlplVF/V2e0ndFNwdBdw+/bt7abfvXu36NGjh/Dx8RGhoaHi0UcfFQcOHChzx5qju4AHDhxYJs9evXqJXr16mX47ugvYtpyO5nP27FkxdOhQ4evrK/z8/MT9998vvvnmG7t32zny119/iWnTponWrVsLnU4ntFqtaNKkiXjwwQfFxo0bRWlpaZkyXLp0qUw+58+fF/fff78IDAwUfn5+4u677xbHjh0rc1eqclfi1q1bxcMPPywaNGggdDqdGDBggPjjjz/K1Je99WN7t6KS1pnDREV3AY8aNarM/Hfu3Cm6du0qtFqtiIiIEE899VSZOxRhcxfw3LlzRdeuXUVgYKDQarWiefPm4sknnxSXL1+2mu7LL78U3bt3F97e3kKv14uEhATx888/lyn3V199JTp06CC8vLxE48aNxbJlyxxue5b1LYQQmZmZYvr06aJx48bC09NThIWFiYEDB4rff/+93Loqb//YvHmzACAWLVpkGvbee++J7t27C71eL3Q6nWjRooUYM2aM2LdvnylNRkaGeOCBB0SDBg2ERqOxKn9aWpp44IEHRFBQkAgICBCjR48W+/bts3sXsL19RAi5HqZOnVpmuL16sefMmTNi5MiRIjg4WHh6eorWrVuLF154we6dpyUlJSIqKkoAEPPnz7ebX15ennj66adF69athZeXlwgICBCxsbHiySefFEajscJyO1LeXcAATNtnZfY32/1q06ZNon///qJhw4bCy8tLhIWFiQEDBljdKV+ZOlOOEZbHq927d9t9asHhw4fFsGHDRFhYmPD09BQGg0HceeedVnefk3pohKjDl5IS1RNLly7F008/jbNnz94QryaztXbtWjzyyCPYu3dvlZ5B6Erx8fG4fPkyjh07VtdFIaqS+rS/ETnCLmAiG8qDiNu0aYPi4mL88MMPePXVVzF69OgbMvgjIiKqLAaARDZ8fHywcuVK/P333ygsLETjxo0xZ84c02NciIiI6jt2ARMRERGpDB8DQ0RERKQyDACJiIiIVIYBIBEREZHKMAAkIiIiUhneBVwNpaWluHDhAvz8/Gr1fZNERERUc4QQyM3NRWRkZIVveLpZMQCshgsXLiAqKqqui0FERERVcO7cOdU+35UBYDUoL88+d+6cU+92JSIiorqXk5ODqKgo03lcjRgAVoPS7evv788AkIiIqJ5R8+Vb6uz4JiIiIlIxBoBEREREKsMAkIiIiEhlGAASERERqQwDQCIiIiKVYQBIREREpDIMAImIiIhUhgEgERERkcowACQiIiJSGQaARERERCrDAJCIiIhIZRgAEhEREakMA0AiIiIilfGo6wJQWUIAaWnye0QEoNGUn8ZgkN8vXgTCw4HISPM09vJylL9tnkaj4+9CyN8ajcwDAC5ckONKS4ErV4CQEFmeS5fk34gI63Ja/g4Lk3mkpwOhofIvINMpZb540VwGgwE4fFj+7thRzvfiRTntxYty/u3ayWkvXpRlunxZ/o6JARo2lNP+8w9w/Lgsa8eOwJEjcniHDvK7EDLPEydkmk6d5LwslzM0FOjcGXBzM9fjhQvWy3XxonWdhYeblzc8XC7PoUOyroKDZV7h4XKa48dl2vbtzfMoLQV++02Wyd68bdeDwSDTONoGlPWnlFmZr7L8ERHm7cpyHkKYl0ejkZ/KbC+W2ywgy2Sb1nb7FMJ6ewgLk/Wo0ch1qAwPD5fbiBAyjbIdKnV9+bKs04YN7c9DUVpadh3YLmd4eNn1ZzBY15mj/dVyW+7QQX6/dMm83pTtR5nWNs/yyqps/5ZpLAlh3i9s0yvrVQi5rQUHy3o8cUJ+V/Zty+0FkPvdpUvW60OIisum0dhfl7br27ZMlscYy2Of7XLabjuWdWK7Ddse05S6j4gwb89CmPdfe8Mt933AvGy23y2PBZbHr7Zt5bDLl+VyKsulbHvK8TMtTS4/IKdXthmj0Tw8JKRsvSj5KPuevWOWUj579WK771rWlbJMRqMsf2io+dipzMNyn7Pcvm3PE47WKVWfRghHhwaqSE5ODgICApCdnQ1/f/8ay9dRIKbsfGlp8mB68aL5QGlvx7JHOdApJ5xOnayDioMH5Q7btq354GHv5Kmc6BwdbC0DQMuD3sWLMn/bk5sSoAEy34wM6+mVA6u9NGFh8mQghBx+5Yo5TX34HhIi/1ouW12XiXVxY31nvbAu1FgXGRll/8GuKbV1/q5P2AJYDyj/IZWWyt/Kf4pEREREVcFrAG8iQpi7J9muS0RERI6wBfAmZnvdjKOuYaXLubSUgSMREZEaMACkG5IQ8jpD5WJ0IiIiqjnsAiYiIiJSGbYAqojSJVxS4vqWNeX6ROVuNSIiIqo7bAEkIiIiUhkGgEREREQqwwCQiIiISGV4DeANSLleDjC/UoeIiIiopjAApHpLeVQMn19IRERUOewCJiIiIlIZBoD1iNI1rDwguabyvHChbl4fVxvLQ0RERBVjAEhERESkMrwGsJ5TWvDS09mKRkRERM5hAKgClncVO/P2DyV9RgYQElK7ZSMiIiLXYxcwERERkcqwBZBqlfKoFiGA4OC6Lg0REREBbAEkIiIiUh0GgEREREQqwy7gekwI4PJl+SYMZ27uICIiIgLYAkhERESkOgwAb1DKzRP//AOkpd34b8tQynujl5OIiIgYABIRERGpDq8BVDHLt4gQERGRerAFkIiIiEhl2AJ4E1DuBgbkq9t4RzARERGVhwHgDUx5J++VKwzqiIiIqOYwALzJWL56LTy89ueltDzavuZNKUdpafXuCi5vHkRERFQ1DADJKULIx9FcuGAOyIiIiKh+4k0gRERERCrDAJCIiIhIZdgFTADMN5ywe5eIiOjmxxZAIiIiIpVhC+BNyPJOYD4+hoiIiGwxAKwnLJ8JCFh/JyIiIqqMetkFnJSUBI1GY/UxGAym8UIIJCUlITIyEjqdDvHx8Th+/LhVHoWFhZg2bRpCQkKg1+sxePBgnD9/3tWLQkRERORy9TIABID27dsjLS3N9Dl69Khp3PLly7FixQq89tpr2Lt3LwwGA/r27Yvc3FxTmsTERGzcuBEpKSnYtWsX8vLyMGjQIJSUlNTF4hARERG5TL3tAvbw8LBq9VMIIfDyyy9j/vz5GDp0KABg3bp1CA8Px/r16zFx4kRkZ2fj3XffxQcffIA+ffoAAD788ENERUVh+/btuOuuu1y6LERERESuVG9bAP/44w9ERkaiWbNmGD58OE6dOgUAOH36NIxGI/r162dKq9Vq0atXL+zevRsAsH//fhQXF1uliYyMRExMjCkNERER0c2qXrYAdu/eHe+//z5atWqFixcvYsmSJYiLi8Px48dhNBoBAOE2L8INDw/HmTNnAABGoxFeXl4IDAwsk0aZ3p7CwkIUFhaafufk5NTUIhERERG5TL0MAPv372/6Hhsbix49eqBFixZYt24dbrvtNgCAxub5J0KIMsNsVZQmOTkZixYtqkbJXUsI84OdQ0L4SBgiIiKS6m0XsCW9Xo/Y2Fj88ccfpusCbVvy0tPTTa2CBoMBRUVFyMzMdJjGnnnz5iE7O9v0OXfuXA0vSe1THiejPCeQiIiI1OemCAALCwtx4sQJREREoFmzZjAYDNi2bZtpfFFREVJTUxEXFwcA6NKlCzw9Pa3SpKWl4dixY6Y09mi1Wvj7+1t9iIiIiOqbetkFPGvWLNxzzz1o3Lgx0tPTsWTJEuTk5GDs2LHQaDRITEzE0qVLER0djejoaCxduhQ+Pj4YOXIkACAgIAATJkzAzJkzERwcjKCgIMyaNQuxsbGmu4JvNpbdwcHBdVsWIiIiqlv1MgA8f/48RowYgcuXLyM0NBS33XYb9uzZgyZNmgAAZs+ejYKCAkyZMgWZmZno3r07tm7dCj8/P1MeK1euhIeHB4YNG4aCggIkJCRg7dq1cHd3r6vFIiIiInKJehkApqSklDteo9EgKSkJSUlJDtN4e3tj1apVWLVqVQ2XjoiIiOjGdlNcA0hEREREzquXLYBUfUKY7wTm42GIiIjUhS2ARERERCrDFkCqkGVrIe8gJiIiqv/YAkhERESkMgwAiYiIiFSGASARERGRyjAAJCIiIlIZ3gRCDik3f5SWyu9ERER0c2ALIBEREZHKMAAkIiIiUhkGgEREREQqw2sAVU4I4PJl+Z0PeSYiIlIHtgASERERqQwDQCIiIiKVYQBIREREpDIMAImIiIhUhgEgERERkcowACQiIiJSGQaARERERCrDAJCIiIhIZRgAEhEREakMA0AiIiIilWEASERERKQyDACJiIiIVIYBIBEREZHKMAAkIiIiUhkGgEREREQqwwCQiIiISGUYABIRERGpDANAIiIiIpVhAEhERESkMgwAiYiIiFSGASARERGRyjAAJCIiIlIZj7ouAKmTEIDRCFy+XNclISIiUh+2ABIRERGpDANAIiIiIpVhAEhERESkMgwAiYiIiFSGASARERGRyjAAJCIiIlIZBoBEREREKsMAkIiIiEhlGAASERERqQwDQCIiIiKVYQBIREREpDIMAImIiIhUhgEgERERkcowACQiIiJSGQaARERERCrDAJCIiIhIZep9AJicnAyNRoPExETTMCEEkpKSEBkZCZ1Oh/j4eBw/ftxqusLCQkybNg0hISHQ6/UYPHgwzp8/7+LSExEREblevQ4A9+7di7feegsdOnSwGr58+XKsWLECr732Gvbu3QuDwYC+ffsiNzfXlCYxMREbN25ESkoKdu3ahby8PAwaNAglJSWuXgwiIiIil6q3AWBeXh5GjRqFt99+G4GBgabhQgi8/PLLmD9/PoYOHYqYmBisW7cO+fn5WL9+PQAgOzsb7777Ll566SX06dMHnTt3xocffoijR49i+/btdbVIRERERC5RbwPAqVOnYuDAgejTp4/V8NOnT8NoNKJfv36mYVqtFr169cLu3bsBAPv370dxcbFVmsjISMTExJjS2FNYWIicnByrDxEREVF941HXBaiKlJQUHDhwAHv37i0zzmg0AgDCw8OthoeHh+PMmTOmNF5eXlYth0oaZXp7kpOTsWjRouoWn4iIiKhO1bsWwHPnzmH69On48MMP4e3t7TCdRqOx+i2EKDPMVkVp5s2bh+zsbNPn3LlzlSs8ERER0Q2g3gWA+/fvR3p6Orp06QIPDw94eHggNTUVr776Kjw8PEwtf7Yteenp6aZxBoMBRUVFyMzMdJjGHq1WC39/f6sPERERUX1T7wLAhIQEHD16FIcOHTJ9unbtilGjRuHQoUNo3rw5DAYDtm3bZpqmqKgIqampiIuLAwB06dIFnp6eVmnS0tJw7NgxUxoiIiKim1W9uwbQz88PMTExVsP0ej2Cg4NNwxMTE7F06VJER0cjOjoaS5cuhY+PD0aOHAkACAgIwIQJEzBz5kwEBwcjKCgIs2bNQmxsbJmbSoiIiIhuNvUuAHTG7NmzUVBQgClTpiAzMxPdu3fH1q1b4efnZ0qzcuVKeHh4YNiwYSgoKEBCQgLWrl0Ld3f3Oiw5ERERUe27KQLAnTt3Wv3WaDRISkpCUlKSw2m8vb2xatUqrFq1qnYLR0RERHSDqXfXABIRERFR9TAAJCIiIlIZBoBEREREKsMAkIiIiEhlXHYTyNWrV7Fs2TJ8//33SE9PR2lpqdX4U6dOuaooRERERKrmsgDw0UcfRWpqKh5++GFERERU+Fo2IiIiIqodLgsAt2zZgs2bN+P222931SyJiIiIyA6XXQMYGBiIoKAgV82OiIiIiBxwWQD47LPPYsGCBcjPz3fVLImIiIjIDpd1Ab/00kv466+/EB4ejqZNm8LT09Nq/IEDB1xVFCIiIiJVc1kAOGTIEFfNioiIiIjK4ZIA8Pr16wCA8ePHIyoqyhWzJCIiIiIHXHINoIeHB1588UWUlJS4YnZEREREVA6X3QSSkJCAnTt3ump2REREROSAy64B7N+/P+bNm4djx46hS5cu0Ov1VuMHDx7sqqIQERERqZrLAsDJkycDAFasWFFmnEajYfcwERERkYu4LAC0ffcvEREREdUNl10DSEREREQ3Bpe1AC5evLjc8QsWLHBRSYiIiIjUzWUB4MaNG61+FxcX4/Tp0/Dw8ECLFi0YABIRERG5iMsCwIMHD5YZlpOTg3HjxuG+++5zVTGIiIiIVK9OrwH09/fH4sWL8cwzz9RlMYiIiIhUpc5vAsnKykJ2dnZdF4OIiIhINVzWBfzqq69a/RZCIC0tDR988AHuvvtuVxWDiIiISPVcFgCuXLnS6rebmxtCQ0MxduxYzJs3z1XFICIiIlI9lwWAp0+fdtWsiIiIiKgcLrsGcPz48cjNzS0z/OrVqxg/fryrikFERESkei4LANetW4eCgoIywwsKCvD++++7qhhEREREqlfrXcA5OTkQQkAIgdzcXHh7e5vGlZSU4JtvvkFYWFhtF4OIiIiI/qfWA8AGDRpAo9FAo9GgVatWZcZrNBosWrSototBRERERP9T6wHgjh07IITAnXfeiQ0bNiAoKMg0zsvLC02aNEFkZGRtF+OmU1oK/PEHYDAAvr7W44qKgOLissOdUZVpi4qAvDz518ur6mlqWmEhkJkpv1suT2EhcPUqIASg1ZYtU3XLquTv6Vl2nFK/7u5ARgag0QB+frIc9tLalqOi9eNomS2n9fS0TmObZ3nLb7tsltMWFclxynCg/PI7mm9pqXketvMrKJDjK1r+a9dk2mvXAL3eflp7Krv9G43Arl3AQw/Zz8fNzbyefX3l8uXn2982KlM+T8+y21hN7GPOLr8yr7w8mV4Z5mg/Aiq/LVeF5fZi+T0/X24XSlkcbdvKfnH5svzr729/eRxtz5bbf20up5KnvWNHVeZXWAhkZ9fe8bkqxzKqfbUeAPbq1QuAvAu4cePG0Gg0tT3Lei89Hdi9G7h+HejaFfjnH+C334DBg+X448eB7duB774D2rUD5s8HLl2SO9KBA8C6dcBddwHe3kBwMBARIU+GV64Ahw8DQ4cC+/YBFy4AQ4aY53vpEvDyyzI4ad9eHhQaNJAn0GvX5DBfX+DQITmfwECgUSPgp5/kzhwdDdxyixyXkQH4+ABt28rvmzYBZ87IeZ86BQQFAY0by+nPnQPOn5fLHRYml9vNTQa3ISHAkSNAixayPGlpstw+PvLgHBEhy/733/Jg4u8vAwQhgN9/B/76S/7+179kWq1Wli8/X5bZ3x+IjZUHv8JCWWf//CPrq2FDOd7dHdDp5LCsLJkuIkKW32gEcnPlgb+wUKY5dUqWpWVLIDJSjm/ZUi7L9u2y7pUTTOvWclyDBnJeXl7ye1oacOwYEBAg8/Dzk/mfPCnza91artucHDlc+WRmyvXs5QUkJJgDTSFkHV+6JIMRpY4bNpR1kZ0NtGkj5/Pbb3J5o6Lk34gI4MQJOa/sbFmf/v5As2bA3r0yD61W/kOSlyfLrJTXzU2Ws7RUpjl7VpYtIEDWWU6OnL6kROZ96ZJchrAwIDxcpvHyktNmZ8t116gR0LOnXFfZ2XJe7u5y3qdPy+3owgU5zy5dZD4BAXIb1mhkXfj5yW25oAC4eFHOX6uV88/NlXXu5mZOp9PJbe7KFTmf3FwZWHz6qVyPmzcDAwbIevH1lXVx7JjcFjQaWZeNG8ttPSsLiImR61mnk+XU6eQnM1Mul6+vLPOff8p6vOUWWe4ffpDr093dvA8EB8t6SkuT5W3UyFz/167JbbF5c1n2K1eAVq3k39xcuc6Li+V88/PlPnrlCtCpk3kZQ0Pl34wM+ddgkNvw8eOy/gGZZ3S0nK8Qct4XLsg8fHzMgVjz5nJ9ZGbK/frsWaB7dzkuKEiu62vXZJ45OXId5OfLcT4+cl01aCC/azSyTF5e5kD0wgXAw0N+Cgrk36IiedwrKACaNpXrokkTWcaYGLmuAgKAo0flfunuLtedtzdwxx3yGHz1KvD99zKvmBi5vYSGyuX/+2+5THl58ngQFCTnk58vt6nTp+U8fX1leZTjibu7LK+ybRYWyu/K/qXRyDrw8ZHLnJkplz8wENiyRf6NiZEfZfsvKAD275fz7tTJHGw1ayaX7fRpuZ7++1+Zp1Jn//mPnPbWW+W2Hxgo1+OVK/L4n5Mj66OkxLxfR0fL42thoSxjUZGsk5AQWafXr8vjf3a2PG4VFMg6aNhQLuPRozJv5Th75Yr8m5FhPjb+/bec1/DhwMCBNXSCJTPhQj/++KMYNWqU6NGjhzh//rwQQoj3339f/PTTT64sRo3Jzs4WAER2dnaN5jtxohCAEL16CbF+vRAdOsjfXbsKMWWK/G756dat7DDLT2CgEN7eQoSHy9+NGpnHjRolxKefCvHNN0JMm1Z+Pj17CjFjRvlpKvPx8BCideuay48ffvjhh5+b7/PAA0JkZtboabbWzt/1icueA7hhwwY8/PDDGDVqFA4cOIDCwkIAQG5uLpYuXYpvvvnGVUW54UVFyb9ZWfI/uSNH5O99++TH1t695eendGso/1mfP28ed+WKHO7uLlsQynPunGxtcIabm/wvrzzXr8sWAEVoqPwv0d3d3LJgS6+X/yUD8j9XS56e5pYmpeVAKYNeL+entGpqtfI/2qwsOS+9Xv73mZsr5+/tLb8XFMj/1ktK5H/LwcHyP/PsbPlbq5X/1fv5yXl5espp8vNlHkLI+Wdmyum8veV4S8HBcv5KS52iQQNZhuvXzV1XPj7yc+2aHObpKadV5l1aKv9bLykxr1edTs7b09PcWlZQIMtfWipbCby8zF1AAQHmFlKNRqbVauV/9u7uMl8hZIuD0uWltGbl58vyCWEuX0GBHHb9ukzr5SXXT26unKe7u8zby0umVVpHw8Jki4HSCgjIaUpLza2YXl5yXsXFcj34+so0UVEy31On5F+l5U+jkeXMyTEvX2CguSu1tNRcL9evy3TK+i8slPWnbE9Kq4u3t5x3To71Nq+0HBYVyfrLy5Pz0WplGZWuUx8fOW1+vtwWCgvN+Sjr5soV87aitB5dvSrLVVoq56Fsu8plDUp963SyvoUwjxNCji8ult+9vWWaggL5W6+Xy1RaKsul0chyArKsgHkfV7rYlfp1d5d5FxTIfcrbWy5TUZFMf+2auUVdqUsPD3MrmFLmBg3kMup0spzXrsnyK/tIUZGcTulUcnOT0ygtbx4ecnplmfPz5badlmZu3c3MNG9PwcHmlmillaq42NyyFhws88zPN/eKFBXJ9ax0yfv7y/TXrsnvRUXmdaf0TgDmY7Fy3CgtNdd3SYmcTmmVVpZPWX/K/h0aap6XUvfK8UGpZ2V4fr653tzdZZlLSmS5vb3lsKwsubxFRbLOAXP3ckmJnFdIiKy7khLzMU6nM++Dynws618IOR8l3dWrcpxWK9e3Mq2ybr29zZeBeHubewPy8uT6pZrjsgBwyZIlePPNNzFmzBikpKSYhsfFxWHx4sWuKka9oNwrc/Gi3JlDQ2XXVG3QaOQOPWOG7P4pz/Xr8kAByG4my0CyTRvZ5aqIiJBdqfZ06GAOapWTwMMPm098Wq3sorAX2PbvL/9qtcCePbILApDda7fdJsunXGMXGioPKO7u8u/Fi/JvcLBMo5wYMzLMAcT16zJv5Xqta9fM1xMpByflu5eX+SSuHMzc3WVAoZxINRp5IFOudXF3l/kp3ZtCmOdrNJqX3145lBvolQP9lSvm9Mq8Q0PleI1GHqTT0+U8lJO30oV39aqcVjnwl5bKNFlZMo0yXyXfoqKyy+bpaQ6WGjQwX9+j18sT6/XrssxKPpbXKvn7m8vg7S1Pap6e8gQTFia7PpXgIifHen6ALGtGhv3l9/Q0d0OfPy9P6CUl5mDV8sSjrE8lT9v6vX5dbifKtql8d5ReqUd7da3VmutLp5NlU+rFXnmU4cq8lDpzc5P1dOmSLJ9GY95OLQMQJfh2c7POy/K70uXq5mYOHJTuZWV5vLxkeo1GTltQIMsZEmI+fnh5yfIoJ/fr1+VfpXsTMG8Lyj9VtvNSAh6lbI7qQq93vP0r26e7u3nbcXc3/9OoLKPRKIMVZdt2c5PbnbI8vr4yUFTqV1lmy/1C2Z41Glnvyj6q18v9Tgk+AfN1q5bbrHJJgr11Yxms2y6/EpxpNOblOn9eTqNcs2i7TSpd4p6ecl1Z5mt7rCkoMK9zy3nbbv+Otinb77b52x4L7O3LyrQlJTIYj4/ntYK1wWUB4MmTJ9GzZ88yw/39/ZGVleWqYtQLbdvKv5mZcuNX/pOvDUprWEXBH2A+wQDyOpF//jH/V9mihXUA2KKF4wCwc2dzAKjo108eeEpKZIBmLwB0d5fplDT5+eYAsHlzoHdvOTwrS6aJiDC3hOj15mu9IiLMNxsEB8sTl/IfflaWPAFERJQdrsy3ou9K/korgGWa/HxZ3vBwc+uecmAzGq3zslcOZfrAQPPyOLPMjuatBGuWeZa3/LbLZlmezEx54ggNlev++vXyy29vvpGR8iTaqJGcR0iI4/mVt/zKCT0qSgYBtuvB0feK8nc2vaO6VgIkPz/Zou7sNhUSIvdT5fqo8HBz672ybNXdbiuz/Mq8lJZ6ZZ072o8q2hacqWvburDdX2y3T8ttJyTEvF0EBJQtq+2+ExjoXP2Wt/1XdzmdWU/KPZWWdVGV+dXEtlPZ/J0pZ3a2XHdxcWz9qw0uCwAjIiLw559/omnTplbDd+3ahebNm7uqGPVC8+byP7jCQnkQUv4jqg1K16CzlBaYwEDr7kzlZgyF0o1tT6dO8kYVhYeHvKBYObkp3az33CO7vJWuaZ1OBgZKGsvNplEjeWF3cLA5oAoOtu46U5bTdrjSxWI7raPhzny3zN/e8KAgc/AcEmKuh4rK4Wh5KrPMlvO2TWP53dHyW+Zvb17+/ubtxNnyK9+VulBObM7Mz1H5lFYHX9+qrTdH+Venrh0Nr6hstttIedPX1HbrzPIr87Jd547KU9lt2Zm6cHb7tOyKdVRWZ9ZPRctgm39Vl9OZ9WSvLqozv+psO5XN35lyZmTIgJrBX+1w2ZtAJk6ciOnTp+M///kPNBoNLly4gI8++gizZs3ClClTXFWMekM5AR49au5CqQ3KdVTOprXszrF4prfpQKSwt8M+9hjw9NOy9cPNYssLCDAfGBSensC991o/XsP2cQeW8wwOdm4ZiIiIyIUtgLNnz0Z2djZ69+6Na9euoWfPntBqtZg1axYef/xxVxWjXigsNP+HdOZMxTdTVIe97mXlWg17aS2vHbIMyGwDQOU6FUu3326+4NvyJhHlOhZLXl4yT4PBPMwy4ATkf4YKe3kQERGRfS4LAAHgueeew/z58/Hbb7+htLQU7dq1g6+vL/Lz8+GjXDlN0GrNLYDp6ZWbVrnb0VlFRfK5UZYCA+0HgCUl5i5f2xZAywemKuNthYWZy2bZAqg8s8yW8kw8R3naPqRVubCZiIiIyueyLmCFj48PunbtiltvvRUeHh5YsWIFrwG04e1tvqZOuVDeWZW9VmLTJuCZZ6yHOepOte0Ctmzls23xs/dmC8uAzTIA1GploGsvgLP8v8A2ANRogB49gI4d5TWHtXmzDBER0c2k1gPAoqIizJ8/H926dUNcXBy+/PJLAMCaNWvQvHlzvPTSS5g+fXptF6PeCQuTf43Gyk1XmddeVTYPywDQtgvYNgC01wLoYdHebHsNoOVzyyxZ5mubp6cnMGECMGeO+blTREREVLFaP2UmJSXh9ddfR9++ffHzzz/jwQcfxPjx47Fz504kJydj5MiR8KzqizFvYso1dfYepWL5HCdb9lreqjpvW8rDcAEZmJUXANq7BtCym9cyACwpkctkL4CzzMf2ZhXlOkE/P/moDVe9Y5iIiKi+q/UA8NNPP8XatWtx33334fDhw+jcuTNycnJw/PhxeLDJxiGlG9beHcDKA0Xt8fKq/HWAtpo1A0aNktcGWj7bT3m6P2B+24bCmS7g9HQZ5ClvglDo9bLF0951h5b5Kg+htuTlJeujNh+VQ0REdLOp9S7gc+fOoVu3bgCAjh07wsvLC3PmzGHwVwHLO1xtldfNqzz1vzp8fID77pPX1lmybAG07Y6tqAt47Fjrbl7LYE6rdVxmey2JREREVD21HgAWFxfDy6JvztPTEwF8ZkeFHHXDAhVf51fdrlClRc52NVleA2gbsLnZbEmWgVtCgnxNm2U3r2V6ey17zowjIiKiqnFJM9yCBQtMj3kpKirCkiVLygSBK1ascEVR6g293vpZeZYs34k4bJjsLl692jysui2AygvrbQNNIcyv77F9ak9hoXyN14UL8l2/lg921ulki6ZlN69lAGgbPBIREVHtqvUAsGfPnjh58qTpd1xcHE6dOmWVRmP7GghCaal836fyGjRLlgFgfDzQunXNBoDK9PZa35QA0HYexcXAlCnyusF+/ayvQVRe+K7V2g8A2cpHRETkWrUeAO7cubO2Z3FT8vSUN2MoAWBYmPmh0JYBoF5v/bu0tPoBoHL9nr3LNJUWSXuPZDEYZPAXGlrxI1nYAkhERFR3eOq9QWm1QJMm5t+Wz8q2DL60Wus7YGvieXjKNYTl5WOv1S4kxNzVa3kdYklJ2bRVCQBr85V4REREasIA8AbWs6fsOu3aVb6eTWHZwuflJbtfx4yRAeOIEfbzqkwvu5J/eY9nzMuzDvKU1kmlq9fyOYUFBWWfW2gZQJbXBWwZ3DZowNe9ERER1YR6GQCuXr0aHTp0gL+/P/z9/dGjRw9s2bLFNF4IgaSkJERGRkKn0yE+Ph7Hjx+3yqOwsBDTpk1DSEgI9Ho9Bg8ejPPnz7t6UcoVGQmsWweMH28d9Fm2zHl5yUCtZ09g7lzZDWvvdXCVuc6uvGsAAXlTR0EB8PDDcn4PP1z2TR7FxUBsrPx+xx1l3/LhbAtgcTEwdSpw++3A0KF83RsREVFNqJcBYKNGjbBs2TLs27cP+/btw5133ol7773XFOQtX74cK1aswGuvvYa9e/fCYDCgb9++yM3NNeWRmJiIjRs3IiUlBbt27UJeXh4GDRqEEnv9lXXEy0veCBIWZv1YFcvWPOW5f0r3a2SkvHbQVmWus1Pyd9QFnJAg82vSBFiyBIiLK/smD09P4IkngHfeke/ptc3Ldhkc8fQEOncGRo+WgS0fH0lERFR99TIAvOeeezBgwAC0atUKrVq1wnPPPQdfX1/s2bMHQgi8/PLLmD9/PoYOHYqYmBisW7cO+fn5WL9+PQAgOzsb7777Ll566SX06dMHnTt3xocffoijR49i+/btdbx01rRa2a1qGfjYi1G9vGQ6f3/5GBZblekCzsiQXa+OWgA7dZKBqb+/4+v+vLzk8GbNZBrbZxM62wVsGdzazoOIiIiqxmUB4Jo1a/DZZ5+VGf7ZZ59h3bp1Vc63pKQEKSkpuHr1Knr06IHTp0/DaDSiX79+pjRarRa9evXC7t27AQD79+9HcXGxVZrIyEjExMSY0thTWFiInJwcq4+rWHZ9Ko9iAexfE2d5w4jC2S5gjUZ2uxYXO25ta97cfOexEnjau/NYeU2bvaCtMjeBlDcPIiIiqjyXBYDLli1DiJ3XW4SFhWHp0qWVzu/o0aPw9fWFVqvFpEmTsHHjRrRr1w5GoxEAEB4ebpU+PDzcNM5oNMLLywuBlndW2KSxJzk5GQEBAaZPVFRUpctdVZZ3BFs+Y+/y5bLvwXV3B3r3th7mTBewry+wfLnsdlU+9tTEi1z4HEAiIqK647Irqs6cOYNmdi5Oa9KkCc6ePVvp/Fq3bo1Dhw4hKysLGzZswNixY5Gammoab/twaSFEhQ+crijNvHnzMGPGDNPvnJwclwWB3bsDkyebu10PHgRiYsytdZY8PYFRo4Bjx4BLl+QwZ4KskBDZZevhIVvbHE1j+wzAqmAASEREVHdcFgCGhYXhyJEjaNq0qdXww4cPIzg4uNL5eXl5oWXLlgCArl27Yu/evXjllVcwZ84cALKVLyIiwpQ+PT3d1CpoMBhQVFSEzMxMq1bA9PR0xMXFOZynVquFto76IbVa+YiX9HT5PLwXXpDBndJSZ9kK6OUlgznLwMrZm0AsX/HmqAu4Jl7cwgdBExER1R2XnXqHDx+OJ554Ajt27EBJSQlKSkrwww8/YPr06Rg+fHi18xdCoLCwEM2aNYPBYMC2bdtM44qKipCammoK7rp06QJPT0+rNGlpaTh27Fi5AWBdU24I8fWVN0SEhspAz9H1d5aqEmTV5h23zt4EQkRERDXPZS2AS5YswZkzZ5CQkACP/0UWpaWlGDNmTKWvAXzqqafQv39/REVFITc3FykpKdi5cye+/fZbaDQaJCYmYunSpYiOjkZ0dDSWLl0KHx8fjBw5EgAQEBCACRMmYObMmQgODkZQUBBmzZqF2NhY9OnTp8aXvTYowWB5LK8VtPzurNoMANkCSEREVHdcFgB6eXnhk08+wbPPPovDhw9Dp9MhNjYWTSzvbnDSxYsX8fDDDyMtLQ0BAQHo0KEDvv32W/Tt2xcAMHv2bBQUFGDKlCnIzMxE9+7dsXXrVvj5+ZnyWLlyJTw8PDBs2DAUFBQgISEBa9euhftN1Bx1663A118DwcHOddvaBokMAImIiG5OLn+srvLsvup49913yx2v0WiQlJSEpKQkh2m8vb2xatUqrFq1qlpluZFNmwb4+QHt2gGvvlpx+roKAPlwZyIiIteq1VPvjBkz8Oyzz0Kv11vdPWvPihUrarMoqhQQAAwbJp8h+Nhj8q0dCQnyQc56PbB4sXV6VwaAVblBhYiIiGpGrQaABw8eRPH/nlFy8OBBh+kqejwLVZ2Xl/z06ye7grVa++8KtoddwERERDenWg0Ad+zYYfc7uZ5WK5/xd/26vIM4I6NsGtsWwNq8HJLPASQiIqo7vPpKRZTWQK227MOjAefuFK6pxlq2ABIREdWdWg0Ahw4d6nTaL774ohZLQrY8PYGnngJyc4HK3Afj4SHfP2zv/b6VwWsAiYiI6k6tnnot35vr7++P77//Hvv27TON379/P77//nsE1MTLZalSvLzkY2KGDKncdH37ym7k6mIXMBERUd2p1RbANWvWmL7PmTMHw4YNw5tvvml61l5JSQmmTJkCf3//2iwGOeDlJd8qoiivC3jgQHkN4e2318zNIZZdyQwAiYiIXMtlnW/vvfceZs2aZfWgZXd3d8yYMQPvvfeeq4pB5bANAIuKzN+1WiAuDmjYsPrdvwC7gImIiOqSy069169fx4kTJ8oMP3HiBEpLS11VDKoEyxtFoqLMN5DUBHYBExER1R2X3QX8yCOPYPz48fjzzz9x2223AQD27NmDZcuW4ZFHHnFVMagcti2Anp7AwoXykTGxsTX7XEAGgERERHXHZQHgiy++CIPBgJUrVyItLQ0AEBERgdmzZ2PmzJmuKgaVwzYA9PICOneWr5PLza2Zrl8Fu4CJiIjqjssCQDc3N8yePRuzZ89GTk4OAPDmjxtAYaH5e0lJ2Ue8KDeKWKarCXwOIBERUd1x+an30qVLOHLkCI4ePYrLly+7evZko7gY+F+PPIYOrZlHvDiDXcBERER1x2UtgFevXsW0adPw/vvvm276cHd3x5gxY7Bq1Sr4+Pi4qihkwdMTmDBBPualbdvaff+vJXYBExER1R2XnXpnzJiB1NRUfP3118jKykJWVhb+/e9/IzU1ldcA1iGtFggNlcFfWFjNXudXHsugz1VBJxEREUkuO/Vu2LABn3/+OeLj403DBgwYAJ1Oh2HDhmH16tWuKgrZsHxHcF6e6+fPFkAiIiLXctmpNz8/H+Hh4WWGh4WFIT8/31XFoBsQA0AiIiLXctmpt0ePHli4cCGuXbtmGlZQUIBFixahR48erioG3SAsHznDLmAiIiLXctmp95VXXsHdd9+NRo0aoWPHjtBoNDh06BC8vb3x3XffuaoYdANiCyAREZFruSwAjImJwR9//IEPP/wQv//+O4QQGD58OEaNGgWdTueqYtANwrIFkAEgERGRa7m0802n0+H//b//58pZUj3A5wASERG5lsvaXtatW4fNmzebfs+ePRsNGjRAXFwczpw546pi0A2ILYBERESu5bJT79KlS01dvb/88gtee+01LF++HCEhIXjyySddVQy6Qdi+d5iIiIhcx2VdwOfOnUPLli0BAF9++SUeeOABPPbYY7j99tutng1IRERERLXLZS2Avr6+uHLlCgBg69at6NOnDwDA29sbBQUFrioGERERkeq5rAWwb9++ePTRR9G5c2f897//xcCBAwEAx48fR9OmTV1VDLpBsAuYiIio7risBfD1119Hjx49cOnSJWzYsAHBwcEAgP3792PEiBGuKgYRERGR6rmsBbBBgwZ47bXXygxftGiRq4pANxC2ABIREdWdWg0Ajxw5gpiYGLi5ueHIkSPlpu3QoUNtFoWIiIiI/qdWA8BOnTrBaDQiLCwMnTp1gkajgbBo+lF+azQalJSU1GZRiIiIiOh/ajUAPH36NEJDQ03fiYiIiKju1WoA2KRJE7vfiYiIiKjuuPRdwCdPnsSqVatw4sQJaDQatGnTBtOmTUPr1q1dWQwiIiIiVXPZY2A+//xzxMTEYP/+/ejYsSM6dOiAAwcOICYmBp999pmrikE3CN4FTEREVHdc1gI4e/ZszJs3D4sXL7YavnDhQsyZMwcPPvigq4pCN5iiorouARERkbq4rAXQaDRizJgxZYaPHj0aRqPRVcWgG4TlTd+XLwOFhXVXFiIiIrVxWQAYHx+Pn376qczwXbt24V//+perikE3iB495F8/P6C4WH6IiIjINVzWBTx48GDMmTMH+/fvx2233QYA2LNnDz777DMsWrQIX331lVVaurndcQeQnAx4eACenvLDVkAiIiLXcFkAOGXKFADAG2+8gTfeeMPuOAB8KLRKaLUyCLx4UQaBWi2Ql1fXpSIiIlIHlwWApaWlrpoV1RNaLeDjU9elICIiUh+XXQNIRERERDeGWg8ABwwYgOzsbNPv5557DllZWabfV65cQbt27Wq7GERERET0P7UeAH733XcotLi6//nnn0dGRobp9/Xr13Hy5MnaLgYRERER/U+tB4DC5pUPtr+JiIiIyLV4DSARERGRytR6AKjRaKDRaMoMIyIiIqK6UeuPgRFCYNy4cdBqtQCAa9euYdKkSdDr9QBgdX0gEREREdW+Wg8Ax44da/V79OjRZdLYe0cwEREREdWOWg8A16xZU9uzICIiIqJK4E0gRERERCrDAJCIiIhIZeplAJicnIxu3brBz88PYWFhGDJkSJmHSQshkJSUhMjISOh0OsTHx+P48eNWaQoLCzFt2jSEhIRAr9dj8ODBOH/+vCsXhYiIiMjl6mUAmJqaiqlTp2LPnj3Ytm0brl+/jn79+uHq1aumNMuXL8eKFSvw2muvYe/evTAYDOjbty9yc3NNaRITE7Fx40akpKRg165dyMvLw6BBg1BSUlIXi0VERETkErV+E0ht+Pbbb61+r1mzBmFhYdi/fz969uwJIQRefvllzJ8/H0OHDgUArFu3DuHh4Vi/fj0mTpyI7OxsvPvuu/jggw/Qp08fAMCHH36IqKgobN++HXfddZfLl4uIiIjIFeplC6Ct7OxsAEBQUBAA4PTp0zAajejXr58pjVarRa9evbB7924AwP79+1FcXGyVJjIyEjExMaY0RERERDejetkCaEkIgRkzZuCOO+5ATEwMAMBoNAIAwsPDrdKGh4fjzJkzpjReXl4IDAwsk0aZ3lZhYaHVg6tzcnJqbDmIiIiIXKXetwA+/vjjOHLkCD7++OMy42xfOSeEqPA1dOWlSU5ORkBAgOkTFRVV9YITERER1ZF6HQBOmzYNX331FXbs2IFGjRqZhhsMBgAo05KXnp5uahU0GAwoKipCZmamwzS25s2bh+zsbNPn3LlzNbk4RERERC5RLwNAIQQef/xxfPHFF/jhhx/QrFkzq/HNmjWDwWDAtm3bTMOKioqQmpqKuLg4AECXLl3g6elplSYtLQ3Hjh0zpbGl1Wrh7+9v9SEiIiKqb+rlNYBTp07F+vXr8e9//xt+fn6mlr6AgADodDpoNBokJiZi6dKliI6ORnR0NJYuXQofHx+MHDnSlHbChAmYOXMmgoODERQUhFmzZiE2NtZ0VzARERHRzaheBoCrV68GAMTHx1sNX7NmDcaNGwcAmD17NgoKCjBlyhRkZmaie/fu2Lp1K/z8/EzpV65cCQ8PDwwbNgwFBQVISEjA2rVr4e7u7qpFISIiInK5ehkACiEqTKPRaJCUlISkpCSHaby9vbFq1SqsWrWqBktHREREdGOrl9cAEhEREVHVMQAkIiIiUhkGgEREREQqwwCQiIiISGUYABIRERGpDANAIiIiIpVhAEhERESkMgwAiYiIiFSGASARERGRyjAAJCIiIlIZBoBEREREKsMAkIiIiEhlGAASERERqQwDQCIiIiKVYQBIREREpDIMAImIiIhUhgEgERERkcowACQiIiJSGQaARERERCrDAJCIiIhIZRgAEhEREakMA0AiIiIilWEASERERKQyDACJiIiIVIYBIBEREZHKMAAkIiIiUhkGgEREREQqwwCQiIiISGUYABIRERGpDANAIiIiIpVhAEhERESkMgwAiYiIiFSGASARERGRyjAAJCIiIlIZBoBEREREKsMAkIiIiEhlGAASERERqQwDQCIiIiKVYQBIREREpDIMAImIiIhUhgEgERERkcowACQiIiJSGQaARERERCrDAJCIiIhIZRgAEhEREakMA0AiIiIilWEASERERKQyDACJiIiIVIYBIBEREZHKMAAkIiIiUhmPui4AEVF9pNEAoaHyuxB1WxYiospiAFhP8eRTf2k0gMEAuLkBly/XdWnqD2e3eY0GCAkBwsKAjIy62z+4nm8MlV0PaltvN8r+Qq5XL7uAf/zxR9xzzz2IjIyERqPBl19+aTVeCIGkpCRERkZCp9MhPj4ex48ft0pTWFiIadOmISQkBHq9HoMHD8b58+dduBS1QzlJhobK77U9rTKNweB4GmfS1DSNBoiIAGJj5YFNma9ycA8Lkx/bMlW3rEr+9urQsn7d3Bync1SOitaPo2W2nDYsDIiMNKdxc7POs7zlt1022+UJC5P5RkSY83VUfkfzjYiQH2fqqLzlj4wEGjas2rZclX3HUT6Wy+DuLssWGyuHVzXfsDBzHdnWbXX2MWeX33JdhYeb17mj/aiibaGmjgmW26fttmO5bdiWVZnW0b5juzyOtmfL7b+2l9NRnrUxv+qqyrGMXEMjRP2L97ds2YKff/4Zt9xyC+6//35s3LgRQ4YMMY1//vnn8dxzz2Ht2rVo1aoVlixZgh9//BEnT56En58fAGDy5Mn4+uuvsXbtWgQHB2PmzJnIyMjA/v374e7u7lQ5cnJyEBAQgOzsbPj7+9fY8gkBXLgAGI3yu0YjD7QAkJ4uDzQAcPGi+b815eAXEQGkpclxlgcyIczpLfMzGoFLl+R3yxOwMm9lWqNR/jccEiLHR0bKcWlp8m94OHD4sPzeqZOcR1oaUFoq5wvI8qSnm9MrywDIskdGWpc3Lc16+WwP3EoaZXqjUX5X0lU03jYPR8Ntp7VcbnsnE0vKurx4US6zbd3aWy57eTg7v+pMU9l8qjsPZ+q+OmWvyrztjXe07dRFWZwZDzi/79geP8rbhyIi5O9Dh+TvTp3sB7LV2acqs19UhW0ZlGOl5b5ZXrkrWyZ701ZnfdurQ+UYq9HYXyeW5xNlOstjbUXzdcX+WBdq6/xdn9TLANCSRqOxCgCFEIiMjERiYiLmzJkDQLb2hYeH4/nnn8fEiRORnZ2N0NBQfPDBB3jooYcAABcuXEBUVBS++eYb3HXXXU7NuzY3INud1jYAtA3sgIoDQHvTWgZ2yn/ryoHFcsuwnY9tAFjZA7ptYGTvgKSkq60AhIiI1IkBYD3tAi7P6dOnYTQa0a9fP9MwrVaLXr16Yffu3QCA/fv3o7i42CpNZGQkYmJiTGnsKSwsRE5OjtXHlZT/0h0FS2qj0ci6YH0QERFVzk0XABr/1wwVrjSZ/U94eLhpnNFohJeXFwIDAx2msSc5ORkBAQGmT1RUVA2XvvKUoLA616zZuz7DFYEVA1oiIqK6cdMFgAqNTUQhhCgzzFZFaebNm4fs7GzT59y5czVSVnuUIKyimyucCdScyaumymtbFrbSERER3XhuugDQYDAAQJmWvPT0dFOroMFgQFFRETIzMx2msUer1cLf39/qU59Vt/WQiIiI6qebLgBs1qwZDAYDtm3bZhpWVFSE1NRUxMXFAQC6dOkCT09PqzRpaWk4duyYKc2NQKORj7K45Rb5l0EaERER1YR6+SDovLw8/Pnnn6bfp0+fxqFDhxAUFITGjRsjMTERS5cuRXR0NKKjo7F06VL4+Phg5MiRAICAgABMmDABM2fORHBwMIKCgjBr1izExsaiT58+dbVYVaZ0syqU7taavL9buYvX9m5by/mWV6bqzLcm8iEiIiKzehkA7tu3D7179zb9njFjBgBg7NixWLt2LWbPno2CggJMmTIFmZmZ6N69O7Zu3Wp6BiAArFy5Eh4eHhg2bBgKCgqQkJCAtWvXOv0MQCIiIqL6qt4/B7Au1dVzhJx9/p29h4Y6WtvOPiy2pp63x2f4ERFRXeFzAOtpC6DasVuUiIiIquOmuwmEiIiIiMrHAJCIiIhIZdgFfBOzd3ew7XV9REREpD5sAVQZvpmDiIiIGAASERERqQy7gFVKaQm0fBwLERERqQNbAImIiIhUhi2AVKGafAA0ERER1T0GgOQQHzhNRER0c2IXMBEREZHKMAAkIiIiUhl2Aascu3mJiIjUhy2ARERERCrDAJCIiIhIZRgAEhEREakMA0AiIiIilWEASERERKQyDACJiIiIVIYBIBEREZHKMAAkIiIiUhkGgEREREQqwwCQiIiISGUYABIRERGpDANAIiIiIpVhAEhERESkMgwAiYiIiFSGASARERGRyjAAJCIiIlIZBoBEREREKsMAkIiIiEhlGAASERERqQwDQCIiIiKVYQBIREREpDIMAImIiIhUhgEgERERkcowACQiIiJSGY+6LgCpk0YDREbWdSmIiIjUiS2ARERERCrDAJCIiIhIZRgAEhEREakMA0AiIiIilWEASERERKQyDACJiIiIVIYBIBEREZHKMAAkIiIiUhkGgEREREQqwwCQiIiISGUYABIRERGpDANAIiIiIpVhAEhERESkMgwAiYiIiFSGASARERGRynjUdQHqMyEEACAnJ6eOS0JERETOUs7bynlcjRgAVkNubi4AICoqqo5LQkRERJWVm5uLgICAui5GndAINYe/1VRaWooLFy7Az88PGo2mRvPOyclBVFQUzp07B39//xrN+2bDunIe68p5rKvKYX05j3XlvNqqKyEEcnNzERkZCTc3dV4NxxbAanBzc0OjRo1qdR7+/v48QDiJdeU81pXzWFeVw/pyHuvKebVRV2pt+VOoM+wlIiIiUjEGgEREREQqwwDwBqXVarFw4UJotdq6LsoNj3XlPNaV81hXlcP6ch7rynmsq9rDm0CIiIiIVIYtgEREREQqwwCQiIiISGUYABIRERGpDANAIiIiIpVhAHgDeuONN9CsWTN4e3ujS5cu+Omnn+q6SC73448/4p577kFkZCQ0Gg2+/PJLq/FCCCQlJSEyMhI6nQ7x8fE4fvy4VZrCwkJMmzYNISEh0Ov1GDx4MM6fP+/CpXCN5ORkdOvWDX5+fggLC8OQIUNw8uRJqzSsL2n16tXo0KGD6aGyPXr0wJYtW0zjWU+OJScnQ6PRIDEx0TSM9WWWlJQEjUZj9TEYDKbxrCtr//zzD0aPHo3g4GD4+PigU6dO2L9/v2k868sFBN1QUlJShKenp3j77bfFb7/9JqZPny70er04c+ZMXRfNpb755hsxf/58sWHDBgFAbNy40Wr8smXLhJ+fn9iwYYM4evSoeOihh0RERITIyckxpZk0aZJo2LCh2LZtmzhw4IDo3bu36Nixo7h+/bqLl6Z23XXXXWLNmjXi2LFj4tChQ2LgwIGicePGIi8vz5SG9SV99dVXYvPmzeLkyZPi5MmT4qmnnhKenp7i2LFjQgjWkyO//vqraNq0qejQoYOYPn26aTjry2zhwoWiffv2Ii0tzfRJT083jWddmWVkZIgmTZqIcePGif/85z/i9OnTYvv27eLPP/80pWF91T4GgDeYW2+9VUyaNMlqWJs2bcTcuXPrqER1zzYALC0tFQaDQSxbtsw07Nq1ayIgIEC8+eabQgghsrKyhKenp0hJSTGl+eeff4Sbm5v49ttvXVb2upCeni4AiNTUVCEE66sigYGB4p133mE9OZCbmyuio6PFtm3bRK9evUwBIOvL2sKFC0XHjh3tjmNdWZszZ4644447HI5nfbkGu4BvIEVFRdi/fz/69etnNbxfv37YvXt3HZXqxnP69GkYjUaretJqtejVq5epnvbv34/i4mKrNJGRkYiJibnp6zI7OxsAEBQUBID15UhJSQlSUlJw9epV9OjRg/XkwNSpUzFw4ED06dPHajjrq6w//vgDkZGRaNasGYYPH45Tp04BYF3Z+uqrr9C1a1c8+OCDCAsLQ+fOnfH222+bxrO+XIMB4A3k8uXLKCkpQXh4uNXw8PBwGI3GOirVjUepi/LqyWg0wsvLC4GBgQ7T3IyEEJgxYwbuuOMOxMTEAGB92Tp69Ch8fX2h1WoxadIkbNy4Ee3atWM92ZGSkoIDBw4gOTm5zDjWl7Xu3bvj/fffx3fffYe3334bRqMRcXFxuHLlCuvKxqlTp7B69WpER0fju+++w6RJk/DEE0/g/fffB8Bty1U86roAVJZGo7H6LYQoM4yqVk83e10+/vjjOHLkCHbt2lVmHOtLat26NQ4dOoSsrCxs2LABY8eORWpqqmk860k6d+4cpk+fjq1bt8Lb29thOtaX1L9/f9P32NhY9OjRAy1atMC6detw2223AWBdKUpLS9G1a1csXboUANC5c2ccP34cq1evxpgxY0zpWF+1iy2AN5CQkBC4u7uX+e8lPT29zH9CaqbcWVdePRkMBhQVFSEzM9NhmpvNtGnT8NVXX2HHjh1o1KiRaTjry5qXlxdatmyJrl27Ijk5GR07dsQrr7zCerKxf/9+pKeno0uXLvDw8ICHhwdSU1Px6quvwsPDw7S8rC/79Ho9YmNj8ccff3DbshEREYF27dpZDWvbti3Onj0LgMcsV2EAeAPx8vJCly5dsG3bNqvh27ZtQ1xcXB2V6sbTrFkzGAwGq3oqKipCamqqqZ66dOkCT09PqzRpaWk4duzYTVeXQgg8/vjj+OKLL/DDDz+gWbNmVuNZX+UTQqCwsJD1ZCMhIQFHjx7FoUOHTJ+uXbti1KhROHToEJo3b876KkdhYSFOnDiBiIgIbls2br/99jKPqvrvf/+LJk2aAOAxy2Vcf98JlUd5DMy7774rfvvtN5GYmCj0er34+++/67poLpWbmysOHjwoDh48KACIFStWiIMHD5oeh7Ns2TIREBAgvvjiC3H06FExYsQIu48IaNSokdi+fbs4cOCAuPPOO2/KRwRMnjxZBAQEiJ07d1o9giI/P9+UhvUlzZs3T/z444/i9OnT4siRI+Kpp54Sbm5uYuvWrUII1lNFLO8CFoL1ZWnmzJli586d4tSpU2LPnj1i0KBBws/Pz3TsZl2Z/frrr8LDw0M899xz4o8//hAfffSR8PHxER9++KEpDeur9jEAvAG9/vrrokmTJsLLy0vccsstpsd5qMmOHTsEgDKfsWPHCiHkYwIWLlwoDAaD0Gq1omfPnuLo0aNWeRQUFIjHH39cBAUFCZ1OJwYNGiTOnj1bB0tTu+zVEwCxZs0aUxrWlzR+/HjTvhUaGioSEhJMwZ8QrKeK2AaArC8z5Tl1np6eIjIyUgwdOlQcP37cNJ51Ze3rr78WMTExQqvVijZt2oi33nrLajzrq/ZphBCibtoeiYiIiKgu8BpAIiIiIpVhAEhERESkMgwAiYiIiFSGASARERGRyjAAJCIiIlIZBoBEREREKsMAkIiIiEhlGAASker8/fff0Gg0OHToUK3NY9y4cRgyZEit5U9EVB0MAImo3hk3bhw0Gk2Zz9133+3U9FFRUUhLS0NMTEwtl5SI6MbkUdcFICKqirvvvhtr1qyxGqbVap2a1t3dHQaDoTaKRURUL7AFkIjqJa1WC4PBYPUJDAwEAGg0GqxevRr9+/eHTqdDs2bN8Nlnn5mmte0CzszMxKhRoxAaGgqdTofo6Gir4PLo0aO48847odPpEBwcjMceewx5eXmm8SUlJZgxYwYaNGiA4OBgzJ49G7Zv2RRCYPny5WjevDl0Oh06duyIzz//vBZriIjIMQaARHRTeuaZZ3D//ffj8OHDGD16NEaMGIETJ044TPvbb79hy5YtOHHiBFavXo2QkBAAQH5+Pu6++24EBgZi7969+Oyzz7B9+3Y8/vjjpulfeuklvPfee3j33Xexa9cuZGRkYOPGjVbzePrpp7FmzRqsXr0ax48fx5NPPonRo0cjNTW19iqBiMgRQURUz4wdO1a4u7sLvV5v9Vm8eLEQQggAYtKkSVbTdO/eXUyePFkIIcTp06cFAHHw4EEhhBD33HOPeOSRR+zO66233hKBgYEiLy/PNGzz5s3Czc1NGI1GIYQQERERYtmyZabxxcXFolGjRuLee+8VQgiRl5cnvL29xe7du63ynjBhghgxYkTVK4KIqIp4DSAR1Uu9e/fG6tWrrYYFBQWZvvfo0cNqXI8ePRze9Tt58mTcf//9OHDgAPr164chQ4YgLi4OAHDixAl07NgRer3elP72229HaWkpTp48CW9vb6SlpVnNz8PDA127djV1A//222+4du0a+vbtazXfoqIidO7cufILT0RUTQwAiahe0uv1aNmyZaWm0Wg0dof3798fZ86cwebNm7F9+3YkJCRg6tSpePHFFyGEcDido+G2SktLAQCbN29Gw4YNrcY5e+MKEVFN4jWARHRT2rNnT5nfbdq0cZg+NDQU48aNw4cffoiXX34Zb731FgCgXbt2OHToEK5evWpK+/PPP8PNzQ2tWrVCQEAAIiIirOZ3/fp17N+/3/S7Xbt20Gq1OHv2LFq2bGn1iYqKqqlFJiJyGlsAiaheKiwshNFotBrm4eFhunnjs88+Q9euXXHHHXfgo48+wq+//op3333Xbl4LFixAly5d0L59exQWFmLTpk1o27YtAGDUqFFYuHAhxo4di6SkJFy6dAnTpk3Dww8/jPDwcADA9OnTsWzZMkRHR6Nt27ZYsWIFsrKyTPn7+flh1qxZePLJJ1FaWoo77rgDOTk52L17N3x9fTF27NhaqCEiIscYABJRvfTtt98iIiLCaljr1q3x+++/AwAWLVqElJQUTJkyBQaDAR999BHatWtnNy8vLy/MmzcPf//9N3Q6Hf71r38hJSUFAODj44PvvvsO06dPR7du3eDj44P7778fK1asME0/c+ZMpKWlYdy4cXBzc8P48eNx3333ITs725Tm2WefRVhYGJKTk3Hq1Ck0aNAAt9xyC5566qmarhoiogpphLB5WBURUT2n0WiwceNGvoqNiMgBXgNIREREpDIMAImIiIhUhtcAEtFNh1e2EBGVjy2ARERERCrDAJCIiIhIZRgAEhEREakMA0AiIiIilWEASERERKQyDACJiIiIVIYBIBEREZHKMAAkIiIiUhkGgEREREQq8/8BCNdSnzKvdKoAAAAASUVORK5CYII=;" vertex="1" parent="1">
          <mxGeometry x="-270" y="840" width="413.34" height="310" as="geometry" />
        </mxCell>
        <mxCell id="JOAAqWhhBDu5gQpFyMWB-8" value="" style="shape=image;verticalLabelPosition=bottom;labelBackgroundColor=default;verticalAlign=top;aspect=fixed;imageAspect=0;image=data:image/png,iVBORw0KGgoAAAANSUhEUgAAAoAAAAHgCAYAAAA10dzkAAAAOXRFWHRTb2Z0d2FyZQBNYXRwbG90bGliIHZlcnNpb24zLjQuMywgaHR0cHM6Ly9tYXRwbG90bGliLm9yZy/MnkTPAAAACXBIWXMAAA9hAAAPYQGoP6dpAAB4iklEQVR4nO3deXhTVf4/8HdKk3Qv3RcoZUegbIIijAKyuSEqKsqiIPgdFEQq8EOREaoiRWZER1QcHQWXYXAcxXHEBVCoOsjIvomMyi4tZW0pLW1pz++P40lukps03dKk9/16njxNb27uPffc7ZOzXZMQQoCIiIiIDCOooRNARERERL7FAJCIiIjIYBgAEhERERkMA0AiIiIig2EASERERGQwDACJiIiIDIYBIBEREZHBMAAkIiIiMhgGgEREREQGwwCQiIiIyGAYABIREREZDANAIiIiIoNhAEhERERkMAwAiYiIiAyGASARERGRwTAAJCIiIjIYBoBEREREBsMAkIiIiMhgGAASERERGQwDQCIiIiKDYQBIREREZDAMAImIiIgMhgEgERERkcEwACQiIiIyGAaARERERAbDAJCIiIjIYBgAEhERERkMA0AiIiIig2EASERERGQwDACJiIiIDIYBIBEREZHBMAAkIiIiMhgGgEREREQGwwCQiIiIyGAYABIREREZDANAIiIiIoNhAEjVYjKZvHpt2LChVuvJysqCyWSq0Xc3bNhQJ2mojYMHD+Lhhx9Gx44dER4ejpCQELRs2RJjx47F+vXrIYRosLQNGDAAGRkZdbrMQ4cOeTwesrKyarTc2ny3pvSOvZYtW2L8+PF1svwBAwY45E1ISAg6deqE+fPno6ysrEbLXLFiBV544YU6SZ+ROe8b7atly5Y1Wub48eNr/N2aUufj8uXLfbpeCizBDZ0ACizfffedw/9PP/001q9fj6+++spheqdOnWq1nvvvvx/XX399jb57+eWX47vvvqt1Gmrq448/xujRoxEfH48HHngAl19+OaxWK37++Wf885//xMCBA7Fu3ToMGjSoQdJXn6ZOnYrRo0e7TG/evHmNlvfdd9/V+Lt1adWqVYiKiqqz5bVu3Rp/+9vfAAAnT57EX//6VzzxxBM4cuQIXnvttWovb8WKFdizZw8yMzPrLI1Gpd03WlartUbLe+KJJzBt2rTaJouozjEApGq56qqrHP5PSEhAUFCQy3RnxcXFCAsL83o9zZs3r/GNPyoqqsr01JdffvkFo0aNQufOnbFu3TqHoKF///6YOHEiNmzYgJiYGI/LqW5++YsWLVrUad431H501qNHjzpdXmhoqMO23XDDDejUqRPeeustvPjiiwgJCanT9dVUoB6H7gghcPHiRYSGhrqdx3nf1FabNm3qbFlEdYlVwFTnVBXj119/jb59+yIsLAwTJkwAALz33nsYOnQoUlJSEBoaio4dO+Kxxx7DhQsXHJbhrhpu2LBh+Pzzz3H55ZcjNDQUl112Gd58802H+fSqgMePH4+IiAj8/PPPuPHGGxEREYG0tDTMmDEDpaWlDt8/duwY7rjjDkRGRqJp06YYM2YMNm/e7FWVyuLFi1FcXIxXXnnFbYnRgAED0K1bN5dt3bZtG+644w7ExMTYbhpbtmzB3XffjZYtWyI0NBQtW7bEqFGjcPjwYYdlLl++HCaTCWvXrsV9992H2NhYhIeH4+abb8aBAwd007F582Zcc801CAsLQ+vWrbFw4UJUVlZ63L66oI6Pb775BldddRVCQ0PRrFkzPPHEE6ioqHCY17kKuLi4GDNnzkSrVq0QEhKC2NhY9OrVC3//+98dvvfxxx+jT58+CAsLQ2RkJIYMGeJSeg0Aq1evRvfu3WG1WtGqVSv86U9/0k2zXhXwuXPnMGPGDLRu3RpWqxWJiYm48cYb8eOPP1Y7T4KDg9G9e3eUlZXh3LlztulCCLzyyivo3r07QkNDERMTgzvuuMNhnw4YMACrV6/G4cOHHaosAffNIfSqCNU5snv3bgwdOhSRkZG2UmqTyYSHHnoI77zzDjp27IiwsDB069YNn3zyiVfbd+TIEYwdOxaJiYmwWq3o2LEjnnvuOdvxVl5ejsTERNxzzz0u3z137hxCQ0Mxffp027TCwkLbcWCxWNCsWTNkZma6XEdUul999VV07NgRVqsVb731lldp9qQ655teFfD777+P3r17Izo62nb+qWukUlWeKcePH8fIkSMRGRmJ6Oho3HXXXcjLy9NN95YtWzB8+HDExsYiJCQEPXr0wD/+8Y9a5wcFJpYAUr3Izc3F2LFjMWvWLCxYsABBQfK3xk8//YQbb7wRmZmZCA8Px48//ohnn30W33//vUs1sp6dO3dixowZeOyxx5CUlIS//vWvmDhxItq2bYt+/fp5/G55eTmGDx+OiRMnYsaMGfj666/x9NNPIzo6GnPnzgUAXLhwAddeey3OnDmDZ599Fm3btsXnn3+Ou+66y6vtXrt2LVJSUtCrVy+v5tcaMWIE7r77bjzwwAO2G9mhQ4fQoUMH3H333YiNjUVubi6WLl2KK664Aj/88APi4+MdljFx4kQMGTIEK1aswNGjR/GHP/wBAwYMwK5du9C0aVPbfHl5eRgzZgxmzJiBefPmYdWqVZg9ezZSU1Nx77332uYbMGAAcnJyvG6zWFlZiUuXLrlMDw52vNTk5eXh7rvvxmOPPYannnoKq1evxvz583H27Fm89NJLbpc/ffp0vPPOO5g/fz569OiBCxcuYM+ePTh9+rRtnhUrVmDMmDEYOnQo/v73v6O0tBSLFi3CgAED8OWXX+Lqq68GAHz55Ze45ZZb0KdPH6xcuRIVFRVYtGgRTpw4UeV2nj9/HldffTUOHTqERx99FL1790ZRURG+/vpr5Obm4rLLLvMqv7QOHjyIpk2bIiEhwTZt0qRJWL58OR5++GE8++yzOHPmDJ566in07dsXO3fuRFJSEl555RX8/ve/xy+//IJVq1ZVe71aZWVlGD58OCZNmoTHHnvMYV+uXr0amzdvxlNPPYWIiAgsWrQIt912G/bv34/WrVu7XebJkyfRt29flJWV4emnn0bLli3xySefYObMmfjll1/wyiuvwGw2Y+zYsXj11Vfx8ssvO/x4+vvf/46LFy/ivvvuAyB/BPTv3x/Hjh3D448/jq5du2Lv3r2YO3cudu/ejXXr1jn8ePzoo4/wzTffYO7cuUhOTkZiYmKV+aB3DAcFBdmuY4q355vWd999h7vuugt33XUXsrKyEBISgsOHDztc/7zJMwAoKSnB4MGDcfz4cWRnZ6N9+/ZYvXq17vVq/fr1uP7669G7d2+8+uqriI6OxsqVK3HXXXehuLi4ztq4UgARRLUwbtw4ER4e7jCtf//+AoD48ssvPX63srJSlJeXi5ycHAFA7Ny50/bZvHnzhPPhmZ6eLkJCQsThw4dt00pKSkRsbKyYNGmSbdr69esFALF+/XqHdAIQ//jHPxyWeeONN4oOHTrY/n/55ZcFAPHZZ585zDdp0iQBQCxbtszjNoWEhIirrrrKZXpFRYUoLy+3vSoqKly2de7cuR6XLYQQly5dEkVFRSI8PFz8+c9/tk1ftmyZACBuu+02h/n/85//CABi/vz5tmlq//z3v/91mLdTp07iuuuuc5g2cOBA0aRJkyrTdfDgQQHA7eubb75xWf+//vUvh2X83//9nwgKCnLYvwDEvHnzbP9nZGSIW2+91W06KioqRGpqqujSpYtDHp8/f14kJiaKvn372qb17t1bpKamipKSEtu0wsJCERsbq3vsjRs3zvb/U089JQCItWvXVpk3zvr37y86d+5sOxZyc3PF3LlzBQDx6quv2ub77rvvBADx3HPPOXz/6NGjIjQ0VMyaNcs27aabbhLp6eku69I7F4Sw7y/t8azOkTfffNNlOQBEUlKSKCwstE3Ly8sTQUFBIjs72+P2PvbYY7rH24MPPihMJpPYv3+/EEKIXbt2CQDitddec5jvyiuvFD179rT9n52dLYKCgsTmzZsd5vvnP/8pAIhPP/3UId3R0dHizJkzHtOoqGNT7zVx4kTbfNU538aNG+ewb/70pz8JAOLcuXNu0+Ftni1dutTtueS8fy+77DLRo0cPUV5e7jDvsGHDREpKisP5QsbAKmCqFzExMRg4cKDL9AMHDmD06NFITk5GkyZNYDab0b9/fwDAvn37qlxu9+7d0aJFC9v/ISEhaN++vUuVqB6TyYSbb77ZYVrXrl0dvpuTk4PIyEiXDiijRo2qcvmejBgxAmaz2fZ6+OGHXea5/fbbXaYVFRXh0UcfRdu2bREcHIzg4GBERETgwoULuvk1ZswYh//79u2L9PR0rF+/3mF6cnIyrrzySodpznkByFIyvdIQd6ZNm4bNmze7vLp37+4wX2RkJIYPH+4wbfTo0aisrMTXX3/tdvlXXnklPvvsMzz22GPYsGEDSkpKHD7fv38/jh8/jnvuucehtCYiIgK33347Nm3ahOLiYly4cAGbN2/GiBEjHNrbRUZGuhwjej777DO0b98egwcPrnJePXv37rUdCykpKXjqqacwe/ZsTJo0yTbPJ598ApPJhLFjx+LSpUu2V3JyMrp161Zvvdz1jkMAuPbaaxEZGWn7PykpCYmJiVWee1999RU6derkcryNHz8eQghbyVeXLl3Qs2dPLFu2zDbPvn378P333ztUj37yySfIyMhA9+7dHfLluuuu063uHjhwYJVtbrXatGmjeww/8cQTLvN6e75pXXHFFQCAkSNH4h//+Ad+/fVXl3m8zbP169e7PZe0fv75Z/z444+29Grz7cYbb0Rubi7279/vNs3UOLEKmOpFSkqKy7SioiJcc801CAkJwfz589G+fXuEhYXh6NGjGDFihMvNXE9cXJzLNKvV6tV3w8LCXBrXW61WXLx40fb/6dOnkZSU5PJdvWl6WrRooXtDfO655/CHP/wBgP0G4Ewvz0aPHo0vv/wSTzzxBK644gpERUXBZDLhxhtv1N3m5ORk3WnaKlKgdvnoSfPmzb2q/tbLT5V257Rqvfjii2jevDnee+89PPvsswgJCcF1112HP/7xj2jXrp3tu3p5mZqaisrKSpw9exZCCFRWVrrNr6qcPHnS4YdIdbVp0wYrV66EEAKHDx/G/PnzkZ2dja5du+Luu+8GAJw4cQJCCLfHnqdq15oKCwtz23a1psfM6dOndYdBSU1NtX2uTJgwAVOmTMGPP/6Iyy67DMuWLYPVanX4AXbixAn8/PPPMJvNuus7deqUw/96x4InISEhXjfh8PZ80+rXrx8++ugjvPjii7j33ntRWlqKzp07Y86cObbt9DbP3F2vnNOlmjXMnDkTM2fO1E2Xc75R48cAkOqF3hh+X331FY4fP44NGzbYSv0AODR6b2hxcXH4/vvvXaa7a1TtbMiQIXj55ZexZcsWh5uINz0BnfOsoKAAn3zyCebNm4fHHnvMNr20tBRnzpzRXYZeOvPy8tC2bVuv0u8reu3sVNr1Ag0lPDwcTz75JJ588kmcOHHCVhp4880348cff7R9Nzc31+W7x48fR1BQEGJiYiCEgMlkcptfVUlISMCxY8eqnM8dbZBxxRVX4Nprr0Xnzp2RmZmJYcOGISIiAvHx8TCZTPjmm290hyDxZlgS9YPHuaOTu5t9Tcfe9CQuLs7t/gDg0I511KhRmD59OpYvX45nnnkG77zzDm699VaHErz4+HiEhoa6dP7Sfq5VH9uk1PR8u+WWW3DLLbegtLQUmzZtQnZ2NkaPHo2WLVuiT58+XueZt9crNf/s2bMxYsQI3TR16NDBY5qp8WEVMPmMuhA737j+8pe/NERydPXv3x/nz5/HZ5995jB95cqVXn3/kUceQVhYGKZMmYLz58/XKi0mkwlCCJf8+utf/+rSW1ZxHr9s48aNOHz4MAYMGFCrtNS18+fP4+OPP3aYtmLFCgQFBVXZmUdJSkrC+PHjMWrUKOzfvx/FxcXo0KEDmjVrhhUrVjh0XLlw4QI++OADW8/g8PBwXHnllfjwww8dSoDPnz+Pf//731Wu+4YbbsD//vc/rzoueSMuLg4LFy7EiRMnsGTJEgDAsGHDIITAr7/+il69erm8unTpYvu+u5I4VYq0a9cuh+nOeV+fBg0ahB9++AHbtm1zmP7222/DZDLh2muvtU2LiYnBrbfeirfffhuffPIJ8vLyXHrHDhs2DL/88gvi4uJ088WXgy7X9nyzWq3o378/nn32WQDA9u3bAXifZ9dee63bc0mrQ4cOaNeuHXbu3KmbZ7169XKo3idjYAkg+Uzfvn0RExODBx54APPmzYPZbMbf/vY37Ny5s6GTZjNu3Dg8//zzGDt2LObPn4+2bdvis88+wxdffAEALr0AnbVp0wZ///vfMWrUKHTp0gUPPvigbSDo/Px8rFmzBgC8GlQ4KioK/fr1wx//+EfEx8ejZcuWyMnJwRtvvOG2h+GWLVtw//33484778TRo0cxZ84cNGvWDJMnT65eRvxm0KBByMnJ8bod4JEjR7Bp0yaX6QkJCQ6loHFxcXjwwQdx5MgRtG/fHp9++ilef/11PPjggx6rVnv37o1hw4aha9euiImJwb59+/DOO+/YAjsAWLRoEcaMGYNhw4Zh0qRJKC0txR//+EecO3cOCxcutC3r6aefxvXXX48hQ4ZgxowZqKiowLPPPovw8HC3JaxKZmYm3nvvPdxyyy147LHHcOWVV6KkpAQ5OTkYNmyYQ1DjrXvvvReLFy/Gn/70J0yZMgW/+93v8Pvf/x733XcftmzZgn79+iE8PBy5ubn49ttvbccXINvPffjhh1i6dCl69uyJoKAg9OrVC8nJyRg8eDCys7MRExOD9PR0fPnll/jwww+rnb6aeuSRR/D222/jpptuwlNPPYX09HSsXr0ar7zyCh588EG0b9/eYf4JEybgvffew0MPPYTmzZu7tLPMzMzEBx98gH79+uGRRx5B165dUVlZiSNHjmDNmjWYMWMGevfuXeP0lpSU6B7DgOu4lDU53+bOnYtjx45h0KBBaN68Oc6dO4c///nPDu2hvc2ze++9F88//zzuvfdePPPMM2jXrh0+/fRT2/VK6y9/+QtuuOEGXHfddRg/fjyaNWuGM2fOYN++fdi2bRvef//9mmYZBaoG635CjYK7XsCdO3fWnX/jxo2iT58+IiwsTCQkJIj7779fbNu2zaXHmrtewDfddJPLMvv37y/69+9v+99dL2DndLpbz5EjR8SIESNERESEiIyMFLfffrv49NNPdXvbufPLL7+IqVOnig4dOojQ0FBhtVpFenq6uPPOO8WqVatEZWWlSxpOnjzpspxjx46J22+/XcTExIjIyEhx/fXXiz179rj0SlW9EtesWSPuuece0bRpUxEaGipuvPFG8dNPP7nkl97+ce6tqOb15jJRVS/gMWPGuKx/w4YNolevXsJqtYqUlBTx+OOPu/RQhFMv4Mcee0z06tVLxMTECKvVKlq3bi0eeeQRcerUKYfvffTRR6J3794iJCREhIeHi0GDBon//Oc/Lun++OOPRdeuXYXFYhEtWrQQCxcudHvsafNbCCHOnj0rpk2bJlq0aCHMZrNITEwUN910k/jxxx895pWn82P16tUCgHjyySdt0958803Ru3dvER4eLkJDQ0WbNm3EvffeK7Zs2WKb58yZM+KOO+4QTZs2FSaTySH9ubm54o477hCxsbEiOjpajB07VmzZskW3F7DeOSKE3A9Tpkxxma6XL3oOHz4sRo8eLeLi4oTZbBYdOnQQf/zjH3V7nlZUVIi0tDQBQMyZM0d3eUVFReIPf/iD6NChg7BYLCI6Olp06dJFPPLIIyIvL6/KdLvjqRcwANvxWZ3zzfm8+uSTT8QNN9wgmjVrJiwWi0hMTBQ33nijQ0/56uSZukZor1cbN27UHbVg586dYuTIkSIxMVGYzWaRnJwsBg4c6ND7nIzDJEQDPpSUKEAsWLAAf/jDH3DkyBG/eDSZs+XLl+O+++7D5s2bazQGoS8NGDAAp06dwp49exo6KUQ1EkjnG5E7rAImcqIGIr7ssstQXl6Or776Ci+++CLGjh3rl8EfERFRdTEAJHISFhaG559/HocOHUJpaSlatGiBRx991DaMCxERUaBjFTARERGRwXAYGCIiIiKDYQBIREREZDAMAImIiIgMhgEgERERkcGwF3AtVFZW4vjx44iMjKzX500SERFR3RFC4Pz580hNTa3yCU+NFQPAWjh+/DjS0tIaOhlERERUA0ePHjXs+K4MAGtBPTz76NGjXj3blYiIiBpeYWEh0tLSbPdxI2IAWAuq2jcqKooBIBERUYAxcvMtY1Z8ExERERkYA0AiIiIig2EASERERGQwDACJiIiIDIYBIBEREZHBMAAkIiIiMhgGgEREREQGwwCQiIiIyGAYABIREREZDANAIiIiIoNhAEhERERkMAwAiYiIiAyGASARERGRwQQ3dAKodoQAcnPl+5QUwGTyfp7KSmDHDvl5UhIQFCQ/B4Djx4ETJ4DERDm/yQQkJ8vl5OXJeZKTgdRU13UK4fp9xWSyp0GbrqQkYOdOx7R4sz7nbQPk/5WV8nunTwMdOwL5+fJ9585yGXl5cp4TJ+TyunWT006cABIS5PyAfL9vHxAfD3TvLufJzQVOnpTfy8gAmjVz3B4hHNOXlwecOiWXkZgolxcXJ7dHbefx48DevY7rqW7+q3xX23bqlGsa1T4H5HpMJsd9Bcjve9o+d8ea9vPkZHs6nef15ph1pj2mkpLkdqt9rfJbe2y5+35ennyv8lPveHKeLynJvg/cbYsQ8pWf75g+T2lW86t8P3HCnnd655Ve3gkBbN8u91dcnP14cvd9521U60tJkcv15phLSXH8X+9z7bTERLncU6fsaUxKsm+zXj6r5aq8U+vUy2dP+8N5+dp8dt6vAPDrr47noXafaLdRvVfXLcB+DdF+ps4b7XXGeZnOx4JKk7tlO5/bqalym9V1CZDpV8eCdn9pj19tXlVWAj/8IPdPUpJcjsp35+NCfVftA7V8veup83mkzX91nAKu+0xv/3hznaDqYQAY4FSAAcgTyvnkVtO1F0N3QZs6WdXFUE1XJ2RFhTzp1QktBHDsmLxwxMcDPXrYAwqVJu0y1PcqK13Xf/y4fdnOadBuT16e4w1Ou/1JSa4XScAeCKr17N4t38fF2adv22a/2Kj1nTolt1ld2L74Qn4eF2efR7u8+HjX76v1CCEvqpWV8qXenz4tL/JqHiHkTeiHH+T7S5fkPNogR6U7P1/Oq7ZBuz3u0qidZ8sWx/m18wAyfbt2yenOy965U6alc2d5o1EXeHUT+vVXe35qjznn4EMdC+6CK+fg1Jn2uFX7V28e7b5Q26F+JCQny9eOHTLtsbH2PFdpTkyU+0TtqzNn5I+D7t1d15WbK9OhXefu3XK6Wo4Q9rScOOE+Xdp8c75ZHz8ul3fypP3YUQGANzdMNb/zceTpmDt5Up4Taj2XLtm3Jz7eHoho87yiwr5sFTjk57seU7t366/zxAn949zddHfvndepTdexY47bnJ8PbN3q+rnze+3ytPM7n0968+gtR50X2u3XW7ZSWSmvXadOyeNWu29VPmvzyF3a4+LkstR3TCa5b3ft8rw9zvO4S6+7/Hf+rnb/V1TYzzPtvY3qDgNAP+SuhKQmJSf+TBtcJiQ0bFqIiIiMhG0AicjvqZI+Vdrlbp6TJz3PQ0REEksAqc5oq2lV9RlRXVNVw+q9v1ABqKreJSLyZywBbETUjfH4cf+6MRJR7agSUG17x4ZMh14pK0tgiQILA8AApgI+XnCJiIioOhgABgjn4SmIAp2/lGr5O/7QI6L6wDaA5FPqpm8yuR/ag8gT7dA/noaH0Q7DQnVLO6wRg1KiwMQA0E85j9tXm2VUVtZt2ogoMLEmgYgUVgETERERGQwDQCIiIiKDYRVwI6dtL8Vx+aqmfXZvQ6yb7arsnJ+jTEREdYcBoIFog8Gatisk99jxoH6o4/b0af6IISKqKwwAA4w2iEtJadi0EBERUWBiAEhEDU71TjWZ5A8bb0v6+Pg1IqKaYScQIiKD8PQoNyIyFpYABijteF6VlfKCfvw4EBTEdlI1wfZ7VB2q5FGdc0REgYYBoJ9TgZ56T5IQQG6uvccsg15jUCVYZ86wZzARUW3wtysBsJdouHtCAKuOiIiIGg+WABIR+aG6Lv1Xy+OPOCICWALol1jaRo0Rn0NLROQ/WAJIPqU6W5hMQEJCQ6eGjE792Krp01e043J6Op5r+pQXIYATJ+T3VGcvPimGiOoCA0A/pm4uQUFAUlJDp8b/aB8VxmCy4aggpaKCgQkRUaBgFTC5YBU0UdV4nhBRIGMJIAU87ZhsHA6G6lJNq27rYr2qapmIqD4wADQA7SDHjbWqVN0wGQASERFVjQGgAanemEKw6oqIiMiIGAASEdVCQ1UTExHVBgNAIvI7Rh60WNtkIz6ezRqIqH6wFzDVGV/1iuSAwkRERLXDEkAiogDDamciqq2ALAHMysqCyWRyeCUnJ9s+F0IgKysLqampCA0NxYABA7B3716HZZSWlmLq1KmIj49HeHg4hg8fjmPHjvl6U+oFS8iIiIjIk4AMAAGgc+fOyM3Ntb12795t+2zRokVYvHgxXnrpJWzevBnJyckYMmQIzp8/b5snMzMTq1atwsqVK/Htt9+iqKgIw4YNQ0VFRUNsjlvql763wZyqhg2U4M/d9jkHsWo+I7YJIyIiqmsBWwUcHBzsUOqnCCHwwgsvYM6cORgxYgQA4K233kJSUhJWrFiBSZMmoaCgAG+88QbeeecdDB48GADw7rvvIi0tDevWrcN1113n020hIiIi8qWALQH86aefkJqailatWuHuu+/GgQMHAAAHDx5EXl4ehg4dapvXarWif//+2LhxIwBg69atKC8vd5gnNTUVGRkZtnmIyHcCreSaiCjQBWQJYO/evfH222+jffv2OHHiBObPn4++ffti7969yPvt+UlJSUkO30lKSsLhw4cBAHl5ebBYLIiJiXGZJ8/D85dKS0tRWlpq+7+wsLCuNslvaIff8DSPqopNTPRd2sgYhABycxkMEhHVp4AMAG+44Qbb+y5duqBPnz5o06YN3nrrLVx11VUAAJPT4FlCCJdpzqqaJzs7G08++WQtUl5zqoTk9Gk5Npi/0waJTrF4jZcDcEy0xkSNd2cyNd5HFBIR+auArQLWCg8PR5cuXfDTTz/Z2gU6l+Tl5+fbSgWTk5NRVlaGs2fPup1Hz+zZs1FQUGB7HT16tI63JHBUt3MKkb/y1fiVRET+pFEEgKWlpdi3bx9SUlLQqlUrJCcnY+3atbbPy8rKkJOTg759+wIAevbsCbPZ7DBPbm4u9uzZY5tHj9VqRVRUlMOLiIiIKNAEZBXwzJkzcfPNN6NFixbIz8/H/PnzUVhYiHHjxsFkMiEzMxMLFixAu3bt0K5dOyxYsABhYWEYPXo0ACA6OhoTJ07EjBkzEBcXh9jYWMycORNdunSx9Qr2J6q0DZDVZarEQn3W2NR0+7SP0IqLq/t0Uc2odqXqPRERNbyADACPHTuGUaNG4dSpU0hISMBVV12FTZs2IT09HQAwa9YslJSUYPLkyTh79ix69+6NNWvWIDIy0raM559/HsHBwRg5ciRKSkowaNAgLF++HE2aNGmozaoVFTSxjRwRERFVJSADwJUrV3r83GQyISsrC1lZWW7nCQkJwZIlS7BkyZI6Th0RKdofJrXpDERERHWrUbQBpPrBxvHka3yMIRGRbwRkCSARGZtqF1tZyUCRiKgmGAASkSGx0xARGRmrgImIGjlWrRORM5YAUq2p6rjjxx1vLtqneLB3MhERkf9gAGgw2l6Z3j7H13kcQk/LPX26btJJRERE9YdVwEREREQGwwCQiKgRY/s/ItLDKmDyO556Z/KJJ42fdogXwLj7WuWDycReykRU9xgAGowKrkwmICGhoVNDREREDYEBYCOiLTmLj69+yYkvB9dlpxHjUMelEHwcHBGRv2AASPWOA+4SERH5F3YCISIiIjIYlgAGIJaoUaDhoOBERP6FJYCNlLrhqpsuERmTam/LawERaTEAJCJqpNQYgAz+iMgZA0CDYqkAERGRcbENIBH5DNuvEhH5BwaABufLsf+IqH6p8/nXX4GgIPs0IiJnDACJyC+o0sGKCgYtRET1jW0AiYiIiAyGJYBERI2QEMCJE2zeQUT6WAJIREREZDAMAImIiIgMhgEgEVEjw3E+iagqbANIRNSIqODv9OmGTgkR+TOWABIREREZDANAIiIiIoNhAEhERERkMAwAiYiIiAyGASARERGRwTAAJCIiIjIYDgNDREQUYDjcD9UWSwCJiIiIDIYBIBEREZHBsAqYiBoUq7KIiHyPJYBEREREBsMAkIiIiMhgGAASERERGQwDQCIiIiKDYQBIREREZDAMAImIiIgMhgEgERERkcEEfACYnZ0Nk8mEzMxM2zQhBLKyspCamorQ0FAMGDAAe/fudfheaWkppk6divj4eISHh2P48OE4duyYj1NPRERE5HsBHQBu3rwZr732Grp27eowfdGiRVi8eDFeeuklbN68GcnJyRgyZAjOnz9vmyczMxOrVq3CypUr8e2336KoqAjDhg1DRUWFrzeDKCCpAZzz8uR7IiIKHAEbABYVFWHMmDF4/fXXERMTY5suhMALL7yAOXPmYMSIEcjIyMBbb72F4uJirFixAgBQUFCAN954A8899xwGDx6MHj164N1338Xu3buxbt26htokooAjBHDyJJCfD+TmyvdC2Ker/4mIyL8EbAA4ZcoU3HTTTRg8eLDD9IMHDyIvLw9Dhw61TbNarejfvz82btwIANi6dSvKy8sd5klNTUVGRoZtHiIiIqLGKiCfBbxy5Ups27YNmzdvdvksLy8PAJCUlOQwPSkpCYcPH7bNY7FYHEoO1Tzq+3pKS0tRWlpq+7+wsLDG20BERETUUAKuBPDo0aOYNm0a3n33XYSEhLidz2QyOfwvhHCZ5qyqebKzsxEdHW17paWlVS/xRERERH4g4ALArVu3Ij8/Hz179kRwcDCCg4ORk5ODF198EcHBwbaSP+eSvPz8fNtnycnJKCsrw9mzZ93Oo2f27NkoKCiwvY4ePVrHW0dERERU/wIuABw0aBB2796NHTt22F69evXCmDFjsGPHDrRu3RrJyclYu3at7TtlZWXIyclB3759AQA9e/aE2Wx2mCc3Nxd79uyxzaPHarUiKirK4UVEREQUaAKuDWBkZCQyMjIcpoWHhyMuLs42PTMzEwsWLEC7du3Qrl07LFiwAGFhYRg9ejQAIDo6GhMnTsSMGTMQFxeH2NhYzJw5E126dHHpVEJERETU2ARcAOiNWbNmoaSkBJMnT8bZs2fRu3dvrFmzBpGRkbZ5nn/+eQQHB2PkyJEoKSnBoEGDsHz5cjRp0qQBU05ERERU/xpFALhhwwaH/00mE7KyspCVleX2OyEhIViyZAmWLFlSv4kjIiIi8jMB1waQiIiIiGqHASARERGRwTAAJCIiIjIYBoBEREREBsMAkIiIiMhgGAASERERGQwDQCIiIiKDYQBIREREZDAMAImIiIgMhgEgERERkcEwACQiIiIymEbxLGAyFiGAU6fk+7i4hk0LERFRIGIJIBEREZHBMAAkIiIiMhgGgEREREQGwwCQiIiIyGAYABIREREZDANAIiIiIoNhAEhERERkMD4bB/DChQtYuHAhvvzyS+Tn56OystLh8wMHDvgqKURERESG5rMA8P7770dOTg7uuecepKSkwGQy+WrVRERERKThswDws88+w+rVq/G73/3OV6skIiIiIh0+awMYExOD2NhYX62OiIiIiNzwWQD49NNPY+7cuSguLvbVKomIiIhIh8+qgJ977jn88ssvSEpKQsuWLWE2mx0+37Ztm6+SQgZXVgaUlwMREQ2dEiKqS3v3AqmpPLeJvOGzAPDWW2/11arIj5WWAhcuAE7xv0/X/49/AF99Bfy//we0aQNYLFV/TwWNevPWJqAsKgKKi13zo6xMvrTLLCsDLl1ynKbyUwjAapXLM5lc5zl7Vr53TmN10q6dl0F0/VL732yW+1VNq888V8s3m+UxFfzb3cH5mPOUlrpKY1mZPJbLyrw7PwHgww+BZ58FunUDHn1Upt/5XKhqnc55Xlrq3faXlQGnTwNnzlRv28vKZF4DcnsBeS4HBTkuu7p5oXXxouM1ty6PI+31vKbXdu32mc2O1zn12cWLQFhY7dNLjnwSAF66dAkAMGHCBKSlpflilYaydau82PXqZZ9WVgZ89BHQtas8kc6dkxeoAweA5s3tF5Jjx+SJW1wsL17HjwPXXivnLysDSkqALVuA9HQgLw9ITgYOHZLrCwqS3//iCyA2FrjjDrnMvDxg5045LSJCLnvbNvl+xQogLQ343e/kuqKi5Ml+8CCQmysvIFFRMjCLipJpOnMGOHoUiI4G/vc/oEULoHVr+zYcOAD8+ivQvz+waxfQtKlMsxBAZaV8lZfL9GzdCrz3nvzeY48Bs2bJbayokN9r1kzmx8mTMn2AXE5Ojpyeng5cdZW8IBUXy7Rv3Aj89JPM/6uukssTAjh1Sn6/WzcgPx8oKADi4oAmTeRF7dAhmZ7ycuCyy4DOnYHERLmN778PFBYCXboAPXvKfaHSNGAAEB4O/PILcOSITHtZGXD+vFxHp04yLwCZn5s3y7xt2lS+WrSQeVlaKvPuxAngmmvk9jRpAnToIJdlMsl0nz4tA8jdu+W+69xZ7l+LRaa7eXO5v8LD5X7+6Se5/S1ayDy3WmW+qv1VUCD3k9Uqt7eiQh4zsbGuN7gLF4DvvwdSUuS61Y0CkPNeuCDzpKICWL1apjspSeZ9mzZyuSEhcp1BQXLbLl6U2xQeLo/zHj3ktv7jH3Keli3l5xER8rtnz8p5PvtMft6kiUxDYiJwww1yGSpYOnFC7tPcXHkcJCcDbdvKfElKkvvmwAF53sTEyLw7dAhISJD7u2lTmXdHjsjpo0fLEq3z54GXXgIyMmT+79gh19mxo5w3OFjOd+CAXGeXLp6vGRcvyuNn2zZ5fpWXy3Nw1y75eXq6XM7FizLvbrpJzhMUJPPts8/kdnXsKI/L0lJ5vq5fL4+JuDj53ZgYmV8q4IiKAr77DggNlfvTYpH527IlsGePXLe6HhQXy+MmIUHOV1Iij5nISJmOffvkNl+8KPf/m2/K7+/cCbzxhtwv+fnALbfI/QvIfXDunDz+i4vl+7AwuYyffpL7vXt3+fmhQ/LalpAADBwovx8eLufdulVuW3q6nLZ7tzxOIyKAYcOAyy+XpZGVlTIvQkLkuk6ckPkRFWU/N4uK7MGNxWI/tlq3ltOPHZPfi4yU+75TJ7m9ublynjVr5LJ695b5bDLJ6Tt2yH37wQdy/t69ZX7t2yfTk5Qk8/3cOZnPTZrI7T9yRH5fbVdkpNzPW7bI/dymjdwXISHyeBFCHrenTsnvNG0qA7nwcCA+XubJ7t1ynzdvLvfvyZNyOwsL7df2+Hj7vm/fXubBN9/I/REbC7RrJ9dJdcckhBC+WFFkZCR2796Nli1b+mJ1PlFYWIjo6GgUFBQgKiqqzpZ78CDw73/Lk7ZXL3mBUHvp/Hn5PjRUXiy2bwfmzJGfjRsnL9Qq0Hr3XXnCTJsmfxkrWVnypNqzB/jDH1zXf/nl8sZQXbfdBowYIYOq3Fw5LTRUXizcadJEbqezdu2AO+8EFizQ/97jjwNXXikvHlOnymlt2wI//1z9dFPtpaQAo0YBixfrf/7kkzIQjo2VpTPffSenN2smg3cAWLJEBgUpKfJGVFoqb+SffCI/79wZ2L9f3uDmzZM3r4cflgFEba5iffvKYOfDD6v/XXWuXHkl8MMP9lKcunLTTcB998k8WL5cTouI8Lye4GBgyhT5IysiQgYgp0/Lz+Li5Lk5dao8dygwmUy1O+YDzXXXAW+/LYPCulJf9+9A4rMq4EGDBmHDhg0YP368r1YZsF54AXjxRVkq06KFvKCrovGsLFlCNG+evKGuW2f/3s8/y19UJpP9BnvxIvDXvzouf88eWZKwd6/++mvaHPPkSXkTVMEf4Dn4A/SDP7WsL790/73cXPlrUbsNesFfUJDMu0uX5LpCQ+Uv2qIiOU1VO5SX668nOFh+Twg5X2iozGP1WXCwnHbhgr1kSgkPl8stK5OBrskk16lYLLIUITxc/sIvLnZ/UY+IkN8/f96+7shI+cu5qEi+v3hR5osqjRJCficsTM6nqpBOnLBPF8JeAhoSIv8vLZV/Kypk/jVtal9+SYncptBQWbqg3R/agCI83F61BQA//igDuPJyWSqjqOAPkIFcSor9//JyWRqhaPf1tm3yc20a3GnaVG5vebl9W7XUOaOYTPIVFOS4vwBZSmEyyeNTpQOQpT9ayclynxcWynU6Lyc2Vu7vixflvlWfX7zoON+pU3J/Hj5sn6YX/AUH25dx6ZI8D3v21K/mKypyDf70fqiFhcnpRUXymPAkLExuj5bVKvNanUOXLtnPIzVNe85ERNhL7ENC7HmhfvBWVtrTUVoql6+O4aAgeWw3by6PqcJCe/UtID8PDnZcn3aZ0dFymjo+VBWsOifDw+X00lK5TnWOhITI47xJE7nuggK5zyor5XeCguz732yW53tpqXyFhtrPKSUkxF4iqUq4VcmrxeKYJ86Cg+21HtrPzWZ7Vbg6ztWxffasnF5eLv9X1w6Vv1FR9mrqsDB7msxmmW51fQ0KshdUWCz2a5/aNpNJLruyUuaj2SzzzGKRyz171h7UquuGySTzo6RElkBS3fNZAHjDDTdg9uzZ2LNnD3r27Inw8HCHz4cPH+6rpPg9bdsPdcEym+VN58cf5f///a8s8dq50/69c+dkyZ+qMlScL97qohxUD33Ad+yo+XdjY2VV25dfyjQ2aeJ+XnVBd76xag0aJG/+6mZSWirXERwslx0SIqtXgoJkNaIKmpWePWWgrNrYqQtSZaX9IqiqbkwmmfcqkLzhBhk0qe1QD74JDrZXEcfHy+8HBcmbwQcf2IPYdu2Afv3kBTI3154XVqt8Xbgg1xkTYw/ILBa5jRcvyrSdOSPnSUhwDHBOnJDp0aY9LEyWElVWyuWr5ZSXy88iI+3fj4qSN8YPPpA3PEW1m0pLkyV7mza57i+z2X2QqwJqxWy2B7zOPvxQln47a99elqBrA/qbb5bbU1kp8+j8efn34EEZwGlvfF26yNLx4mK573bulPOp9AwaJOfdvl0GWXqSkmSVYXGxnNdqBb791h7ExcUBgwfLfarSEhIi03jqFLBhg31ZISHyc1WCpyc0FBg+XObrf/4jA6DgYPfVZdpA7e675f9Nm8prhqq2+/VXuc9KS+2BRWmpPF/++1/H5bVqJUtALRbgnXfktOBgWfWqPZ4uXZLzqHNB7YvgYPleBYmXLsn0REXZg8/gYPt1TLV1VW311PSoKPkKDpbbkZsrP1OBuNqHqg2c+lEjhP2aW1Ehp6lzQgkLk+eT9rxR0wsK5D5ISLBXK1+6ZD8GrVa5nWazfT+r7wYHy78qqCwqsn8vLEwuq7JS7pOiIvlS2/P11/YAq0UL2XTnwgV7oK2aK8TH26852h+7YWHyeFOBrNpHKs9U8Ke2QZv/ap6YGLnsJk1knhcW2q+VKpDT+656f+mS/KtKtVV1vrq2qWvu6NEyPVS3fBYAPvjggwCAxTp1RCaTCRXuioIMKD5e/j15Ul4A4uPliai9oQLyV5O2BGTvXvn66ivHkhTnEgOzWV5wPQVYNREZ6Vi6U12xsfJGokr+tEGH3rosFs8B4LXXypttXJzMx4oK+V7dAGNiZDBUUSEDL+cAsE8fGYSdO2cvERJCXoj0lrdmjb30c+BAWaqg5tHOr32vgo/ISFkyqwLANm1kCbBKo5pPlRqqdKekyP2r2hoVFMhjxXke1bBalTZ6yguVRu2NxHnes2dlOzBtANi0qf3zjAzH41XtL6vVMcjTUiUMiiptcEcFZkpQEDBhgkz388/bg6Zhw2Q6nfN/0yYZAKobMCBvpDffbN9+k8m+nrAw2f4yLk5+310AOGGCXE5lpT3vcnPtAWBCgn05zsfF4cOOAaAKfDw9KTM83L68w4dl8JaQ4L6Rv9qPTZvK49T5WEhKknmnggbtMXfunL30fP9+OX+nTnL9oaEyAD1wQFbZXX21vNZ4Ov6d36tjzmqVx+3JkzId3i5Dez6dOCHTp3ds671XpX3l5VWfH87Tg4Jke8CzZ2UQ5HyN8LROi0XuL9WWErAHQGrZenmxdas9AIyLk80F9NajrhEXL9p/vLnLF+dzvqpt0C5bBalqPd7uc+32qR9N6pg7d05+1rkz2//VB58FgM7P/iX3EhLk3wMHZFudJUvkCaW94RUXu1a5aHlqH6KqETwFTzURHOy+KtUb4eHyIgrYq2Gq4ikPmjeXbUbi4uw3Q+f2UKrHmt6TCdu3l+mJiLDnp8nkfnmxsfYAsFMn+zKd53f3XW3z2JQUe9q1pWZq/SrdztujXae7ebyZrrfNzvM69/ZTPyjCwuQ87rg7Np2nC2HvveyN8HDZAUGVIKn0Nmki89Jiccx/dT5pq+ZjYx33eWqqfflhYfKzuDhZyqmnVStZcpyYaP/hFRdnP6cBmTa1HOfjwvmYr6yUP/I8tfkLDbUvT/1ocvfjrrgYWLlSvo+OlueIWr/2WBRC/5hLTJTtOX/9VbYtBmR1d0qK/N6UKbLU9KabZBDnnOdVvXdepzfnkLvzSS1L79h2992qjnnn9WinR0XZO7tUN73qu57Oc+e80P5YUsdmVeup7jlfnW1wfu/tPtdun/P6LRa5Lxn81Q+fDQRN3ouJsb9Xvb1MJsdq3cJCe7WGHk8BoCo1rOsAsKLCXr1TExaL/YKkvRjqUWn3VEKkqiS9oUqvtKrb4Fh7867JQ29UyW9Nv+9rzsGK9uLt/Jm2gN/b4+7cOdcfFNpASo9qUzR9utz/o0fbSz+dqZJI1U5TfV9L21IlNNT+3l11lGqX5nzsaZfjaTgL7ToUT8c44JhmFfi5q1B58UV7yWxoqGu71apYLPK8aNpUdk4ZMUJ2hFFVeW3ayOrolJSaDVlC3tOeY3Vdm0PG4LMSwKeeesrj53PnzvVRSvyfNgAE5MU1LMyxlOrsWf1fXoqnQOz0aXnhr+tad9WpoqYsFvtNQ1VFeFoX4PnmWJ0bkF4AWJ0AEnBMb01KQrWlZqpRuj9zLjVVx1xQkGsAqA3A3B2bzt9RHS200tL0pwOO+d+lC/Dyy/axG/WqndWPDe1x63zMaAMybSmEuwDQXUmFNuhzav7s8ftCeC7lBhyPUxUIuAuyv/rKMU2qXV51WK3y+Pzd7+ydP1T+qnNYtdOj+qMN+uqjPTc1fj4LAFetWuXwf3l5OQ4ePIjg4GC0adOGAaCGczCiektpL+qnTtlvhOnprgGgp1KWU6fkqzbBmp7y8qp7C3pitdpvyqotjjsqePV0c6zOjU0v4Dp92nNVpjNtQJSfb2/LUpM0OPeQ9Ed61ZWAvRetlvZ4dHdsqgFrVbVQXp78q2247m2prNVqH1dMWx2rpfZNebl9+c77SxuQaYNBdwG6ux8N7koSq/p+ZaVjO0tFmyfVCQDDw+3Li4523x6zKhaLzN/ISHtHFvIt7fnHAJBqwmcB4HadLnuFhYUYP348brvtNl8lIyA4V/+pIEcbEJw/L3vkAbLBufPQLZ5K99RQHrVpr6envNx1GIvq0JYAquV5WhfgvgRQ9YDzlvMFdM6c6ufR738PZGYC11/vvkTJk9BQ2ebs0iV7g3Z/5hzkeVsF7K4E8NFHgYcekh0KgoPt7f9SUuzDwSQluU9PZaXj0xKqKo3SPulC29teS1typw0G3QWA3pQAeqoCds630lJ7Uw/tUCtNm9p/AFanCth5e2oTuFksMlivzY8+qjlWAVNt+SwA1BMVFYWnnnoKw4YNwz333NOQSfErziWAZ8/KQMc5uFI3ADXSvPZzT8GDetxTXffLuXSpdgGgajSueCoBq6oEsDaPmuvRQzaOVx0dvL3Bdesm21ipMbuqW7piscjxHUNC5D6qaemMr7gL8oKCXINDb9sAvvSSHJgZsPdwbNpUdioICvJcLT90aPWqNLXNDbypAta+V8eq8zHqLgDU9sj1VAXs7OJFewCYnGzvDVxVAOju3NYGwqoWgKV3gYklgFRbDX6LOXfuHAr06jgMzPmCvHWrrI50HhNNVfuaTPZBRRVPJYAVFbL6pq5HktdWAevdHKtisTiO7+epfV95ueyJ6DwUiFLdAFAb5MXGyhIe1Zjf27ZM6pFnnqodPbFYZAlXoFSruSsBrGkbQEUFzyq4T0iQnQ0KChwHRFZatgRuvFEOm1OdoLm6AaA2uCsrk8eH8zHuLkD1tgTQmTYATEmxB4DaEkhtuqqqAtb2qu7SpWZtAMk/MACk2vJZAPjiiy86/C+EQG5uLt555x1cf/31vkpGQNq1y/6MTi11g9Rra+YpAFSj0td1FaM2AIyKsj8L11vq5qnS5ikALCvTf4ydUt0LYnk5MHGifN7lnXe6Vkd7q7aN4AOpWs1dJxCTybVKSh2P2qczuKOCZ5V/alBgNSi1MzWeXXWDbvUjoazMvi3O+1y7Pu32lpfbxynTchcA1qYEUPXa1w5Jo02nt20AL1ywH1cjR8qx+vy9lJnc0x6PDACpJnx2+j///PMO/wcFBSEhIQHjxo3D7NmzfZWMRkWVPqinXWhVdZNVj0arCefnUKrR3dUTMwB5k6tNAFhS4jkALC21D/RaF8xmOfBzr16ydJQ3xqq56wTirgq4sBCYPFm/U4OWCp5Vibd2QPD4eOD222WgrkoD1RNZqht0qwDQ01M23AV0ZrMs7XUugfamDWB1ml4cPmzfTm3gqM17bRrVcau3DtWpxmKRpaWxsXXfDph8R/sji20AqSZ8dps76K6ujlxUtx1dixbuR/13Rz37sbqGDpU3cO3joEJDZUCmraKu7hAqgL1UQ92Yq6oCrkve9BolR84BoHoyhl4nkEuX5HOrDx3yfvlqH2gDQLMZGDVKBlTqsWM1be+pV8LrfCPVGyBcfbdlS/mINy13adHmR2FhzXp4uzvmtduh1qN3bmsHHa6vR0GS77AKmGrLZ4fNhAkTcF7nwZ4XLlzAhAkTfJWMgFBaCjzxhPdDkERHex5aQu/icOFCzW5Cqm2cllq3umHX9DFzKmhUNzRPAaDzEyKcb7zubtyeqEGEaxK8GpFzHqsfBepRUlqXLlW/05FeAKgGItaeGzUtrdX7nqf2ec4l5tqBu6tKy6VLss1d8+ZA69Y1+/FlscgOMrGxsqe0drrz+vVK99U6Veem2nSUoobHAJBqy2eHzVtvvYUS1a1Po6SkBG+//bavkhEQrFY5uv7dd3s3f3i456BFLxj76itZjVZdoaGuFxsVAKo2iZ7SEhEhn82qfeyZoq0Croq22m7yZNfP67qDC7nydNPR6yFc3R8F6geA86DL6uHxSk0DGb3j1DkA1P5IunjR8f9OnVy/7659n9ksH5327LNyHTUJWps2BcaOlY+G1A6How3EPbUBVNNCQ2Xwyh86gY0DQVNt1fthU1hYiIKCAgghcP78eRQWFtpeZ8+exaefforEaj5za+nSpejatSuioqIQFRWFPn364LPPPrN9LoRAVlYWUlNTERoaigEDBmDv3r0OyygtLcXUqVMRHx+P8PBwDB8+HMfUwHoNLCRElnJcdpn+59rSPtUBxFMJoN6N9623qk5HcrLrNL2brfO6PT23MSoKuPVW/dJN9T1vbuiqfWF6OtC2rX5aqX65u+noVS9Wp72pCt5VhYHesa0NXmoaAOp9z7lauLxcPhMakKVv2sAqMVEOWzN2rH66nJcbHy+P0/j4mnUwSk2Vr+Rkxw4h2h87nsYBVE1LwsLY87cxYAkg1Va9HzZNmzZFbGwsTCYT2rdvj5iYGNsrPj4eEyZMwJQpU6q1zObNm2PhwoXYsmULtmzZgoEDB+KWW26xBXmLFi3C4sWL8dJLL2Hz5s1ITk7GkCFDHKqgMzMzsWrVKqxcuRLffvstioqKMGzYMFTU9fPRashqlVVFerSlH6rEwlPQFRQEzJghH93kifMNsWNH13n0Si6cb3pVlUbGx+tXtWkH8K2KGhojMVHeEH//e/v4ceQb7qrZ9QLA6lR5lpTIYEVVGOg9YUZ7rNZlG0DnaWYzMHMm8OqrstRae/xbLEDXro7nVUGB+6YVqod3TYMv9d2ICPc/+FS+ewoAPV0rKHCwFzDVVr13Alm/fj2EEBg4cCA++OADxGoec2GxWJCeno5U7c9ZL9x8880O/z/zzDNYunQpNm3ahE6dOuGFF17AnDlzMGLECACy+jkpKQkrVqzApEmTUFBQgDfeeAPvvPMOBg8eDAB49913kZaWhnXr1uG6666r5VbXDXcntd6YYp6CLpNJBnNt2wK7d9uDJ2fax0sB+h1L9AJA5xJGi8V9ey+TSX6udxNSy6nODTImRlaNdeggO8Ns3GhfD9Uvd8en3qPgKiq8r5YvLJRjPAohjwk1MLaWXru36tILHJ3PI9Xm0N3YjKrzkBIRUfvhlS6/XD7ZJyHB8bnH7s4LbbDnqQ2gCgBZ9ds48EkgVFv1HgD2798fgOwF3KJFC5jq+M5cUVGB999/HxcuXECfPn1w8OBB5OXlYejQobZ5rFYr+vfvj40bN2LSpEnYunUrysvLHeZJTU1FRkYGNm7c6DYALC0tRammKKLQXSRVj5zHp1MlAVX9qlc9XD1d/K1Wezs+s1k/iNK72TpPCwqq+iaotxxtI3VvqQGnIyJYDexr7k5lvYGg9QLAoCD9HwoXLgC5ufJ9fLw8tp2fyFIXAaBeQOWuWtjT2IxmMzB7thyvr0OH2g8h9OSTwN/+BrRpAzzzjH2680DUirZDl6c2gCr9DAAbB1YBU2357LBJT0/Ht99+i7Fjx6Jv37749ddfAQDvvPMOvnUeS8ELu3fvRkREBKxWKx544AGsWrUKnTp1Qt5vg10lOT00NCkpyfZZXl4eLBYLYmJi3M6jJzs7G9HR0bZXWlpatdNdW86PGPOmCliVulXV9kf7mbv59G5uzjfN8HD3JYAqCNBbzrlz8kZWnQBQG2zyxuZbnkoAvakCdvf9oiJZAgjIUl29DgveHKtV0Ss1qWnv8d695eDKNW3fp5WYKDuAtW3rOF2bB+Xl9v87drTnrzdtAFkF3DgwAKTa8tlh88EHH+C6665DaGgotm3bZitJO3/+PBYsWFDt5XXo0AE7duzApk2b8OCDD2LcuHH4QQ1EBriUNAohqix9rGqe2bNno6CgwPY6evRotdNdXTfd5Pi/xeIYIHkbACqegivnUhW9m4je952nuSs91NK7+aamVv/RVMHBHLS5objbx3pVwOXlriWA7qqtzp61D7CcllZ1SZ0/7P/atu/TW57zM8GdO74sXChfrVvb88CbKmAGgI0DB4Km2vJZADh//ny8+uqreP3112HWXL379u2Lbdu2VXt5FosFbdu2Ra9evZCdnY1u3brhz3/+M5J/qwd0LsnLz8+3lQomJyejrKwMZ50Gk9POo8dqtdp6HqtXfcvMlIMvK2az48muAkBPvYC1PAWAzo+U0hm1x6sq4JiYqkvxtNvw//4f8Je/2AeodXcTHT4ccH5qYFQUezQ2FE9VwM43pPJy13Z87r5/9Chw5Ih837SpfqeKuqgC9nfO55A2Ty0WoFUr4IorHEsdWQVsHCwBpNry2WGzf/9+9OvXz2V6VFQUzjk/ULMGhBAoLS1Fq1atkJycjLVr19o+KysrQ05ODvr+1k20Z8+eMJvNDvPk5uZiz549tnn8RVQU8Fs/FQDyAq/9de9NCaCWp5ul9sZgtepX45rNrm3tnEt2vImLtelITZXVXepG5i54vPJKx/HPAAZ/DcndTUfvUXCXLrkGcm3a6H+/qMg+BmBYmH4wU19BTE0GR68vVZWi65U6qgBQ79xlCWDjwgCQastnh01KSgp+/vlnl+nffvstWrsb78SNxx9/HN988w0OHTqE3bt3Y86cOdiwYQPGjBkDk8mEzMxMLFiwAKtWrcKePXswfvx4hIWFYfTo0QCA6OhoTJw4ETNmzMCXX36J7du3Y+zYsejSpYutV7A/iY62v09JcSwJUDfCqnoBK9VpA6h3UQkOlo/iuuoq+zTnm2ZYGHDHHe7Xo5ajhIY63sj00njjjbInpvapEAAvfA3JUxtA5xLAsjJ7ByPl8cflcZSe7vp9VVoVGVl1u9PqPmHEk1On3Hf2CASeqoDVdjEAbBw4EDTVls8qTyZNmoRp06bhzTffhMlkwvHjx/Hdd99h5syZmDt3brWWdeLECdxzzz3Izc1FdHQ0unbtis8//xxDhgwBAMyaNQslJSWYPHkyzp49i969e2PNmjWI1EQPzz//PIKDgzFy5EiUlJRg0KBBWL58OZr4YWMK7bAv6emyikyrrMz7NiDetgGMjNSvVg4OliV8o0cDO3bIUoWuXYENG+zzhIcD110nb+Tz5+uvS5te5xu8Nh0pKfJJH7Gxcrpz6SIvfA2nOm0Ajx51rQJOSwPuvx944w3g8GH7dIvFHqw0a6b/g0B7zNTVU19uvlm/qjqQeFMFzACwcWAJINWWzwLAWbNmoaCgANdeey0uXryIfv36wWq1YubMmXjooYeqtaw33njD4+cmkwlZWVnIyspyO09ISAiWLFmCJUuWVGvdDUF7s2vf3nVssEuXvL8AeBsAhoe7LwG0WmU18Lx58qbSvLlj1bR6NF3Xrt6lwzkAdG7r1KGDDCiCgwHnTtraNGpLbkJCZGDMKuL646kKWO8z532nxtBzHhT8L3+xv3f3aDVtgFkXAWD79rKUWT0jN1BLAT0NBM0AsHFhAEi15dPm08888wzmzJmDH374AZWVlejUqRMiIiJQXFyMME9PYTe44GBZomY2yxLAzZvtn4WHV68nrKcAUHtjCAvTr1pT64mIkMNPqAFytb2G1QDSertU3bg9lQBqvxcSIi9uqjTSuaRTe+ErL5clSqtXA1OmVL9HMVWPp04g3g6nYrFUPTalL4SEyIGX1Q+coiLfrLeuqfObvYAbPw4ETbXl898NYWFh6NWrF6688koEBwdj8eLF1W4DaDRms2xTp0ootFWzycnyJtqiBXDNNfrf93YYGO3NNjQU6N5dPy2KthG63tiEnn6VatPkHABqnxMcGur4uafSQrNZtimbO1c+R7mx9g71F55KAKtzQ3K3n4KDvevdXtsnb6h1NYZn5HpTAshewI0Dh4Gh2qr3ALCsrAxz5szBFVdcgb59++Kjjz4CACxbtgytW7fGc889h2nTptV3MgKaepB8QoLroLiqg4jFArjLxpqMAxgWJoeYyMqSzxGu6vvam7i7ajstbbWdcwCg7ekbE+OYLuf1a4MQVaWYkCAH0w30m7m/q86j4Dxxd/Mym93vQ23Ho4sXa9Z7V1vNW1HhXz2Aa8qbgaD5w6hxYBUw1Va9HzZZWVl46aWXkJ6ejoMHD+LOO+/EpEmTsHDhQmRnZ+PQoUOYPXt2fScj4Gmf5KEXbKlnlnqzHHecSwAtFmDgQMcnEri7eWgvQN4EgFrOy9Q8Ltql16+nABCw5xNLOeqfp04g2v0SFeW5hMLdzctTyV55uTw2mzUD+vatWSlgebkcWggAbr21bkoSG5q7XsClpfYAsKSkcQS7RscAkGqr3n8L/uMf/8Dy5ctx2223YefOnejRowcKCwuxd+9eBPOnaI1ogzjV3g7wLujxtgpYVeNarY49b/XaBZaVOU5XgYG3NxnnNGkDQOf2Sp7aAJJveTsOYJMmckDn06f153cXHHoKyMxm2RM9LEwOL1OTS4nZDPzf/8lHuLVs2ThKxtz1Aj52zD5aQFRU4wh2jY4BINVWvR82R48exRVXXAEA6NatGywWCx599FEGf7Wg197OE+3N2NOFQi8ABByHxThzxrWHZHm57BCiFBbKecrL5c110CDv0wc4BoDOAafzYcMLX8Px1AlEu19MJs+Dg7sLAD317lXNIpKSav78XatVNhdo2bLxNBlwNxD0//4n/6am2juOUWBjAEi1Ve+XgfLyclg0V1az2Yxo7cjGVG3aEjNtCaA3PF0otDdA5+eOat87j5OmOqkUF8sOHELIecxm+Ri7sDDgyy+9T6M2HaraSvHUCYR8y9uBoGsaAFZFdUKqzZAtFou9J3Kg9vzV0qsCLi0F9u2T71u25OMTGwsGgFRbPvkdOHfuXNswL2VlZZg/f75LELh48WJfJKVR0AZk4eGuT1jwxDmg0nJ+FJx2HXPnyqAuIsJ1nDTVC3nGDODcOTm/asAfH+/Yjs+bMdu0yy4okFVXapudv6/X2J18w9sq4KAgx1Jdb5cDyH1v1Paczk0ovBnXUlsFLITcD+Xl9mcrt2nDYKGxYC9gqq16DwD79euH/fv32/7v27cvDhw44DCPqTpdBskWDAUFyTZyegGgXkkdAOg8jc9G297O+fFxPXrIm4rZrF9aEhEhh6TJz3ccS02V0lSHNt2tWtnXC7gGgHX1FAiqPk8lgM5jlKWmul+Ou30YGysfzZaQUPM0BrLycqBXL2DLFtnhxZtxLbWBQGWl/N9slj/MANlphtW/jQPHAaTaqvdLwQbtM8KoTqhgKCTEMVDTlpylptofr6WdZ8QIYO9e/eVqLyLFxY4lEKqqzFOsbrVW3SZR72bvXNJhNsvhZ3bvBm66yfW5wVqsymo41WkDmJxc/eXPnCmDIKN2WDCbgfvuA/r0kS9vAjdt7UBFhTynLRZ7AHjZZTxnGgtWAVNt8bdgAFI3AudgqLwceOQR4KuvgHvvtY/fp71RDxkibxL//a98YoaWNjiLj6+7G6/eeGvaFgCnTjlWEVqtchDqjAzZOL+oyJ425+pAo1YP+gNvnwUcFCSPp+oYPVr2HDabjVtiZbHIH3JJSfbzoCraQECVGJ49a/+R1aIFcOFC/aSXfEv7g50BINWEQS+tgU39yrdaHYMrsxno3Fk+19RdtZl6Ru+PP7p+FhwMZGfLvzExdXfjLS8HUlKA3Fz7mG1XXCGfbNKqlfzcubraXeN8DgPjP6rTCcRTAKhXKqwG9A4ONnaJlSp197aTijbf1Q+43Fz5Nzpa1howAGwcWAJItcUAMACpG6LVam9zp4IlVXLnaVBoi0X/eaBms+Pzfevqxms2A48+CvzwgxwSRgWWEyYAJ0/Kz507lrjDANB/eOoE4lwF7Knjv14AGB7u3RBH5Ej7o011kPrpJ/k3JqZ2PabJvzAApNpiABiALr9cNgq/8kp71Y4K1lTJmVZoqGsPQncXjLoYWsOZ1SqHn2je3LEqS1X7ajuNVMU53Wz83HA8tQF0/kwFgQUF3i1b7wcKVU3lvRDyh+Dp08Af/yg/s1rlgNCN4ZnHxE4gVHv83RCAIiJkG6n0dNdHwynl5fIpB2lpwEMPubbn03uiR312xtZ7RJvqNFKdm5Fz9SJ/+TYcbzuBALKENztb/zt6xyLbdtac9nnA//uf/dy/5hrZucuonWoaG5YAUm35rARw2bJliIiIwJ133ukw/f3330dxcTHGjRvnq6QEPOeqXr2SM7MZ6N1blhaqtlRazZu7fkdv2Bh/FBRkr97iha/heNsGELB3aIiMlE+KAeylzHpVwCwBrLkmTeS1oaJCdgAB5I/FtDT5g8uonWoaG44DSLXls9vnwoULEa/TEjwxMRELFizwVTIaDb0SNS0VJCYk6D/m6vLLgQcfBDIz7dPUoMv+jhc+/+DtQNCKxSLHoVPy8+XxphcAcmjQmlP75fhxYO1a+T41FWjXTv7wY/Vv48AqYKotnwWAhw8fRqtWrVymp6en44gapp7qlKcg0WIBRo2SAzwnJMj/mzcPjOohVn34B28HgtZ6/HHZC/3xx2Xw5+54C5QfI/6mrMwePC9eDKgx+BMT5bA6rFpvPNgUhmrLZ5UBiYmJ2LVrF1q2bOkwfefOnYiLi/NVMkjDapUN8+fPlwFgRUVgVA/xwucfqtMGUElPBx5+WDY3cNd+FZA/XLx58gU5Ki+Xnb6Kix073MTENFyaqH7whzDVls9u93fffTcefvhhREZGol+/fgCAnJwcTJs2DXfffbevkkFOLBY50GxdD/1SnxgA+gdvh4HR0mu/qq0CfughIC5OllYFwo8Rf2M2y7w7fdpxuqdnMVNgYgBIteWzS+z8+fNx+PBhDBo0CMG/XdkrKytx7733sg1gA6uPoV/qE9u++IeaVAEDroN8X3cdsH490LOnHMS8ZUvZM1j7WDPyjsUiH7v3yy+O04OCWKXe2DAApNryWQBosVjw3nvv4emnn8bOnTsRGhqKLl26ID093VdJoEaCJYD+oSZVwHri4oClS+2Dgjdt6loySN5zHgS+WzdZ9R4I7XvJe/whTLXl80qW9u3bo3379r5eLTUi/OXrH6rbC9gdi6Vmg4KTPu1gC82aAdOny7aBrFJvXBgAUm3V6yVh+vTpePrppxEeHo7p06d7nHfx4sX1mRRqRDgMjH/wVAVcXWpQcKo97XPAmzaV+yMqKjDa95L3WBNCtVWvAeD27dtR/tvowtu3b3c7n4mDflE18MLnHzxVAVPD0QaAV18tq9K5Txo3/hCmmqjXAHD9+vW674lqg1XA/oEBoH9q1gy47TZZqqqCQVb/Nm4MAKkmeFmggMMSQP9Ql1XAVHcsFmDMGPkkEJNJPgUkUB7zSDXD6yDVRL0GgCNGjPB63g8//LAeU0KNCRs/+wdPnUCo4Th3qomKch0XkBoXnnNUE/UaAEZHR9veCyGwatUqREdHo1evXgCArVu34ty5c9UKFIlYAugfWALov9ipxlh4HaSaqNcAcNmyZbb3jz76KEaOHIlXX30VTX67g1dUVGDy5MmIioqqz2RQI8NewP7BXaDHAJDIt3gdpJrw2e+GN998EzNnzrQFfwDQpEkTTJ8+HW+++aavkkGNgPbXLoONhsMqYCL/wHOOasJnh82lS5ewb98+l+n79u1DZWWlr5JBjQBLAP2Du5sO9wkRkf/zWS/g++67DxMmTMDPP/+Mq666CgCwadMmLFy4EPfdd5+vkkGNTJMm8rmx5HusAibyD3zOM9WEzwLAP/3pT0hOTsbzzz+P3NxcAEBKSgpmzZqFGTNm+CoZ1AhoA4ygIAaADYWdQIgajvbZzqdO2Xt+E3nLZwFgUFAQZs2ahVmzZqGwsBAA2PmDakQbYDRpwofcNxS2ASRqOHFx9vfl5RzrkarP5wNBnzx5Evv374fJZEKHDh0Qr31yOVE1MdhoOKwCJmo4rVsDmZnyvdksX6WlDZokCjA+u31euHABEyZMQEpKCvr164drrrkGKSkpmDhxIoqLi32VDGoEnKuAqWGwEwhRw7FYgBEj5POe4+Pl2I9E1eGz2+f06dORk5ODf//73zh37hzOnTuHf/3rX8jJyWEbQKoW5ypgahhsA0jUsNSA3xZLQ6eEApHPqoA/+OAD/POf/8SAAQNs02688UaEhoZi5MiRWLp0qa+SQo0IA8CGwzaARESBy2eX6uLiYiQlJblMT0xMZBUwVYu2hImlTQ2HbQCJiAKXzwLAPn36YN68ebh48aJtWklJCZ588kn06dPHV8mgRobBRsNhCSARUeDyWRXwn//8Z1x//fVo3rw5unXrBpPJhB07diAkJARffPGFr5JBjQCDPv/AEkAiosDlswAwIyMDP/30E9599138+OOPEELg7rvvxpgxYxAaGuqrZFAjwADDP7AEkIgocPn0Uh0aGor/+7//w3PPPYfFixfj/vvvr1Hwl52djSuuuAKRkZFITEzErbfeiv379zvMI4RAVlYWUlNTERoaigEDBmDv3r0O85SWlmLq1KmIj49HeHg4hg8fjmPHjtVqG4mMggEgEVHg8tml+q233sLq1att/8+aNQtNmzZF3759cfjw4WotKycnB1OmTMGmTZuwdu1aXLp0CUOHDsWFCxds8yxatAiLFy/GSy+9hM2bNyM5ORlDhgzB+fPnbfNkZmZi1apVWLlyJb799lsUFRVh2LBhqKioqP0GU71hCaB/YBUwEVHg8lkAuGDBAltp33fffYeXXnoJixYtQnx8PB555JFqLevzzz/H+PHj0blzZ3Tr1g3Lli3DkSNHsHXrVgCy9O+FF17AnDlzMGLECGRkZOCtt95CcXExVqxYAQAoKCjAG2+8geeeew6DBw9Gjx498O6772L37t1Yt25d3W481SkGGP6BJYBERIHLZ5fqo0ePom3btgCAjz76CHfccQd+//vfIzs7G998802tll1QUAAAiP3tadgHDx5EXl4ehg4dapvHarWif//+2LhxIwBg69atKC8vd5gnNTUVGRkZtnmclZaWorCw0OFFZFQMAImIApfPLtURERE4ffo0AGDNmjUYPHgwACAkJAQlJSU1Xq4QAtOnT8fVV1+NjIwMAEBeXh4AuIw7mJSUZPssLy8PFosFMTExbudxlp2djejoaNsrLS2txummmmMJoH/j/iEi8n8+CwCHDBmC+++/H/fffz/+97//4aabbgIA7N27Fy1btqzxch966CHs2rULf//7310+MzndiYQQLtOceZpn9uzZKCgosL2OHj1a43QTNVYsASQi8n8+u1S//PLL6NOnD06ePIkPPvgAcXFxAGRV7KhRo2q0zKlTp+Ljjz/G+vXr0bx5c9v05ORkAHApycvPz7eVCiYnJ6OsrAxnz551O48zq9WKqKgohxf5HkuY/Bsfz0dE5P98Ng5g06ZN8dJLL7lMf/LJJ6u9LCEEpk6dilWrVmHDhg1o1aqVw+etWrVCcnIy1q5dix49egAAysrKkJOTg2effRYA0LNnT5jNZqxduxYjR44EAOTm5mLPnj1YtGhRtdNEvsMA0L9x/xAR+b96DQB37dqFjIwMBAUFYdeuXR7n7dq1q9fLnTJlClasWIF//etfiIyMtJX0RUdHIzQ0FCaTCZmZmViwYAHatWuHdu3aYcGCBQgLC8Po0aNt806cOBEzZsxAXFwcYmNjMXPmTHTp0sXWPpGIqo8BIBGR/6vXALB79+7Iy8tDYmIiunfvDpPJBCGE7XP1v8lkqtbYe0uXLgUADBgwwGH6smXLMH78eABynMGSkhJMnjwZZ8+eRe/evbFmzRpERkba5n/++ecRHByMkSNHoqSkBIMGDcLy5cvRhHVYfo0Bhn9jG0AiIv9XrwHgwYMHkZCQYHtfV7RBpDsmkwlZWVnIyspyO09ISAiWLFmCJUuW1FnaiIyOAToRkf+r1wAwPT1d9z1RbTDA8G8sQCci8n8+6wQCAPv378eSJUuwb98+mEwmXHbZZZg6dSo6dOjgy2RQgGMA6B8qK/WnswqYiMj/+exS/c9//hMZGRnYunUrunXrhq5du2Lbtm3IyMjA+++/76tkEFE9Y4BOROT/fFYCOGvWLMyePRtPPfWUw/R58+bh0UcfxZ133umrpFCAY4DhH4J9Wn9ARER1yWclgHl5ebj33ntdpo8dO9bto9eI9DAA9A/NmgFOHfGJiChA+CwAHDBgAL755huX6d9++y2uueYaXyWDGpnS0oZOgXFZLMBDD7lOLytz/N+LTvtERORjPqvEGT58OB599FFs3boVV111FQBg06ZNeP/99/Hkk0/i448/dpiXyB1tQJGfL6siLZaGS49RWSxAeLjr9FOnHKdXVMigkPuIiMh/+CwAnDx5MgDglVdewSuvvKL7GYBqDwpNxnPllUBODhAaai9tYnDRMIKCgLZtgZ9/tk8rLweKi4FevYAtW4BbbgEuXeI+IiLyJz4LACvdjRlBVE3Dhsmq39RUGVSwM0LDMZuBadOAnTtlQB4RIaeFhQGTJsngr2NH7iMiIn/DyzIFnJAQYOBAWaqUmAgUFTV0iozLagXS0oCUFCA6GigokMFeVBSQkADExHAfERH5o3rvBHLjjTeioKDA9v8zzzyDc+fO2f4/ffo0OnXqVN/JoEbGYpGlTFZrQ6eE1L6IipJ/VVUv9xERkf+q9wDwiy++QKmmq+azzz6LM2fO2P6/dOkS9u/fX9/JICIiIqLf1HsAKJzGgHD+n4iIiIh8i0/tJCIiIjKYeg8ATSYTTE6PbnD+n4iIiIh8p957AQshMH78eFh/awl+8eJFPPDAAwj/baTYUj7KgYiIiMin6j0AHDdunMP/Y8eOdZlH7xnBRERERFQ/6j0AXLZsWX2vgoiIiIiqgZ1AiIiIiAyGASARERGRwTAAJCIiIjIYBoBEREREBsMAkIiIiMhgGAASERERGQwDQCIiIiKDYQBIREREZDAMAImIiIgMhgEgERERkcEwACQiIiIyGAaARERERAbDAJCIiIjIYBgAEhERERkMA0AiIiIig2EASERERGQwDACJiIiIDIYBIBEREZHBMAAkIiIiMhgGgEREREQGwwCQiIiIyGCCGzoBREREtWUyAQkJ8r0QDZsWokDAAJAMhTcJIiIiVgETERERGU5ABoBff/01br75ZqSmpsJkMuGjjz5y+FwIgaysLKSmpiI0NBQDBgzA3r17HeYpLS3F1KlTER8fj/DwcAwfPhzHjh3z4VYQ6VOllAkJ8j0R+V51zkOTCUhO9r9z1l/TRf4hIKuAL1y4gG7duuG+++7D7bff7vL5okWLsHjxYixfvhzt27fH/PnzMWTIEOzfvx+RkZEAgMzMTPz73//GypUrERcXhxkzZmDYsGHYunUrmjRp4utNqnO+quqsznrUxSgoCDh1yvfVsWr9JhNw4oT36zSZgPh4+f70adfParoNQUFA165ASgpw/Dhw5oycrtKYn2+/cJ86BcTFyfdC2Nfbvbt9W4QAmjSxv1fpS0kBmjWT75OSgB07gJMnvUu7yQQkJsr15OXJlxByWlKSfH/mjOP64uPl59rp9U3tW3XqJiRUb/1V5YX6XOWHOobdzeecX9plV5VHahlC2NdRX+eKSktSkj3vkpKA1FR5/CUmyml5ea7pc06Lt8eTt/NUlT/aZajjPDUVyM2V6a1OfunleVXzqmWr/5s1k3loMgGVlfrfc77+qfMIAIKD7fl94oRchvP+0Z7bgFxWly7yvXYf6a1XXTvcnbtq3vh4e7CottNkcl2PdntOn3Z//nnaX82ayf8rK+3XP+f1q7RT3TMJEdgtoUwmE1atWoVbb70VgCz9S01NRWZmJh599FEAsrQvKSkJzz77LCZNmoSCggIkJCTgnXfewV133QUAOH78ONLS0vDpp5/iuuuu82rdhYWFiI6ORkFBAaKioupsmyor5U1a3Th++MF+QTGZZCBw+rR8n5Fhv+jl5sobOyBPoqAg+8VFXcyFAPbutS9be3IJYQ8mVLAAOE5LTpYnbm6unJ6UZP8/N1de2BISgG7dgJ075f+dOtkDmsRE1/UBcrmpqfaL5/bt9u8GOZVTV1a6boNKp1pWSor9QpWcbH+fkuK4/txcx3nUBTY/375t2u8C9u9ol+W8PL15ARnoqXxT2+vu++qC7ZxGvXXXNb206M1z/Lg939TxkZoqP8/NldO1+0sdl8nJ8rVzp+NxLoT9+AYc96/zMQwAnTvL5akbit6+dZ6u9oH2ZgvoHzfa41y7vzxtu7u88rRv9dLofD6bTI7noPNxqU2PNpDR5mdcnLzRqqDi5EnX41x7nKk80P6v3b+ejg9vtt/T+VCdZXkzr/P+dM7DujifqrOfq9qeqq5P6lqqPfa1x6X6Xl0ck75S02OiJurr/h1IArIE0JODBw8iLy8PQ4cOtU2zWq3o378/Nm7ciEmTJmHr1q0oLy93mCc1NRUZGRnYuHGj1wFgfVEXeXXzVNPUzVD9ctP7nvqlVR9pyc+vel6VRnWTVxcotRzthUxNU9+t63SrGxXg+F5vHudfweom67wcd8vyJg2A/MWrfvXWZBnerru29NJeH+twPs6rmlcdP6o0wtP87va52gfqZuPpe/V5A/I2j7WlW55KeZo1k/Oo4NHdfOocTU0F0tLsn7k7ztwds9U5PvS2VbsvqqM6x6bzvM7rq+tj3N12elqPp2PV3T5p3twxWNN+x9s8rUla61tNjwmqmUYXAOb9doVMUsVXv0lKSsLhw4dt81gsFsTExLjMk+fuCgtZklhaWmr7v7CwsK6S7RPqRpKfby9ZIEfOJUnV/W5DXjwDmbYKTltNpAIVD6clERHVQKMLABWT0x1cCOEyzVlV82RnZ+PJJ5+sk/TVlDaIq6qtinZ+52pUcuQPwZs/pMEfuSupVZ81RFWVNk0MTokoEDW6sCD5tzpF55K8/Px8W6lgcnIyysrKcPbsWbfz6Jk9ezYKCgpsr6NHj9Zx6l2pkhHnXlxqemqqDO5SU+u3sWxVbZx8TVuV5Q/pId9QgVddHYfaqmUjHEf+dh4TUcNpdAFgq1atkJycjLVr19qmlZWVIScnB3379gUA9OzZE2az2WGe3Nxc7NmzxzaPHqvViqioKIdXfajrm5ze8p2DJ7XOQLoR1nc+kXe8DaIaW7Cl2itdfnnVpZA1OVZNJtnQv0sXuR71Q6+mxzuDPyLSCsgq4KKiIvz888+2/w8ePIgdO3YgNjYWLVq0QGZmJhYsWIB27dqhXbt2WLBgAcLCwjB69GgAQHR0NCZOnIgZM2YgLi4OsbGxmDlzJrp06YLBgwc31Ga5qKtqJu1yqmpsr+bX9pKr62EnUlPtDZjratn12aGEfE9bwt2Q+5PV8kTUWAVkALhlyxZce+21tv+nT58OABg3bhyWL1+OWbNmoaSkBJMnT8bZs2fRu3dvrFmzxjYGIAA8//zzCA4OxsiRI1FSUoJBgwZh+fLljWIMQKNxDiqJApm2Ry+PZyKqLwEZAA4YMACehi80mUzIyspCVlaW23lCQkKwZMkSLFmypB5S2LBUCZ4afsXX6/XF8CEJCfZtJGpILCUkokAUkAGgkaibiwp0UlI8V5s6V9/6O3e9OLVVgGqgXu2AtxT4tCW32n3KDj5VY9BJRLXFAJAcaAdB9jRPQ7fNosZF24ZTO42IiOoHA8AAFAgdHrRBYm06ejiXdAT2gwvJHzXUWIJERA2JAWAA8McgyNPgvHWxbH8PcMk7JpN8bFXz5nXb65uIiGqHAWAjUR/VsoHWu5btooiIiLzT6AaCJiIiIiLPWAJI9SbQShCpYdRkcPC6KO01UomxvwysTUT+gwGgwaj2dfXxdA/eWIiIiAIDA0CqE0YqTSEiIgp0DACpSgzuiAIXB9YmIj0MAMnveAo4Wd3c+HFcPok/vIioPjEAbES8GZuvJg3uiYiIqHFhAEg29VXioLdclm4QERE1HAaAAYjBExEREdUGA0AiqnccE7JhqGGfgoLYppKIHDEAbKRYSkhEADtOEZE+BoAGxRIZIiIi42IAaHAsKSQiIjIeBoBE5DP8weEbavBnk4lVv0SkjwEgEfkFBoe1p83DvLyGTQsR+beghk4AEREREfkWSwCJiBohkwlISmIPYCLSxxJAIiIiIoNhAEhERERkMKwCJiJqZNQTQFJSWP1LRPpYAkhERERkMCwBJCJqRDicDhF5gyWARERERAbDAJCIiIjIYBgAEhERERkMA0AiIiIig2EASERERGQwDACJiIiIDIYBIBEREZHBMAAkIiIiMhgGgEREREQGwwCQiIiIyGAYABIREREZDJ8FTEREFGD4zGeqLZYAEhERERkMA0AiIiIig2EASERERGQwDACJiIiIDMbwAeArr7yCVq1aISQkBD179sQ333zT0EkiIiIiqleGDgDfe+89ZGZmYs6cOdi+fTuuueYa3HDDDThy5EhDJ42IiIio3hg6AFy8eDEmTpyI+++/Hx07dsQLL7yAtLQ0LF26tKGTRkRERFRvDBsAlpWVYevWrRg6dKjD9KFDh2Ljxo0NlCoiIiKi+mfYgaBPnTqFiooKJCUlOUxPSkpCXl6e7ndKS0tRWlpq+7+wsLBe00hERERUHwxbAqiYTCaH/4UQLtOU7OxsREdH215paWm+SCIRERFRnTJsABgfH48mTZq4lPbl5+e7lAoqs2fPRkFBge119OhRXySViIiIqE4ZNgC0WCzo2bMn1q5d6zB97dq16Nu3r+53rFYroqKiHF5EREREgcawbQABYPr06bjnnnvQq1cv9OnTB6+99hqOHDmCBx54oKGTRkRERFRvDB0A3nXXXTh9+jSeeuop5ObmIiMjA59++inS09MbOmlERERE9cbQASAATJ48GZMnT27oZBARERH5jGHbABIREREZFQNAIiIiIoNhAEhERERkMAwAiYiIiAyGASARERGRwRi+FzAFHpMJSE1t6FQQEREFLpYAEhERERkMA0AiIiIig2EASERERGQwDACJiIiIDIYBIBEREZHBMAAkIiIiMhgGgEREREQGwwCQiIiIyGAYABIREREZDANAIiIiIoNhAEhERERkMAwAiYiIiAwmuKETQESByWQCUlPlXyEaOjVERFQdLAEkIiIiMhgGgEREREQGwwCQiIiIyGAYABIREREZDANAIiIiIoNhL2AiqjHVE1iPu+lERNTwWAJIREREZDAMAImIiIgMhgEgERERkcEwACQiIiIyGAaARERERAbDAJCIiIjIYBgAEhERERkMA0AiIiIig2EASERERGQwDACJiIiIDIYBIBEREZHBMAAkIiIiMhgGgEREREQGwwCQiIiIyGAYABIREREZTHBDJyCQCSEAAIWFhQ2cEiIiIvKWum+r+7gRMQCshfPnzwMA0tLSGjglREREVF3nz59HdHR0QyejQZiEkcPfWqqsrMTx48cRGRkJk8lUp8suLCxEWloajh49iqioqDpddmPCfPIO88l7zCvvMJ+8x7zyji/zSQiB8+fPIzU1FUFBxmwNxxLAWggKCkLz5s3rdR1RUVG8YHiB+eQd5pP3mFfeYT55j3nlHV/lk1FL/hRjhr1EREREBsYAkIiIiMhgGAD6KavVinnz5sFqtTZ0Uvwa88k7zCfvMa+8w3zyHvPKO8wn32InECIiIiKDYQkgERERkcEwACQiIiIyGAaARERERAbDAJCIiIjIYBgA+qFXXnkFrVq1QkhICHr27IlvvvmmoZPkU19//TVuvvlmpKamwmQy4aOPPnL4XAiBrKwspKamIjQ0FAMGDMDevXsd5iktLcXUqVMRHx+P8PBwDB8+HMeOHfPhVtS/7OxsXHHFFYiMjERiYiJuvfVW7N+/32Ee5pW0dOlSdO3a1TbAbJ8+ffDZZ5/ZPmc+6cvOzobJZEJmZqZtGvMKyMrKgslkcnglJyfbPmceOfr1118xduxYxMXFISwsDN27d8fWrVttnzO/Goggv7Jy5UphNpvF66+/Ln744Qcxbdo0ER4eLg4fPtzQSfOZTz/9VMyZM0d88MEHAoBYtWqVw+cLFy4UkZGR4oMPPhC7d+8Wd911l0hJSRGFhYW2eR544AHRrFkzsXbtWrFt2zZx7bXXim7duolLly75eGvqz3XXXSeWLVsm9uzZI3bs2CFuuukm0aJFC1FUVGSbh3klffzxx2L16tVi//79Yv/+/eLxxx8XZrNZ7NmzRwjBfNLz/fffi5YtW4quXbuKadOm2aYzr4SYN2+e6Ny5s8jNzbW98vPzbZ8zj+zOnDkj0tPTxfjx48V///tfcfDgQbFu3Trx888/2+ZhfjUMBoB+5sorrxQPPPCAw7TLLrtMPPbYYw2UooblHABWVlaK5ORksXDhQtu0ixcviujoaPHqq68KIYQ4d+6cMJvNYuXKlbZ5fv31VxEUFCQ+//xzn6Xd1/Lz8wUAkZOTI4RgXlUlJiZG/PWvf2U+6Th//rxo166dWLt2rejfv78tAGReSfPmzRPdunXT/Yx55OjRRx8VV199tdvPmV8Nh1XAfqSsrAxbt27F0KFDHaYPHToUGzdubKBU+ZeDBw8iLy/PIY+sViv69+9vy6OtW7eivLzcYZ7U1FRkZGQ06nwsKCgAAMTGxgJgXrlTUVGBlStX4sKFC+jTpw/zSceUKVNw0003YfDgwQ7TmVd2P/30E1JTU9GqVSvcfffdOHDgAADmkbOPP/4YvXr1wp133onExET06NEDr7/+uu1z5lfDYQDoR06dOoWKigokJSU5TE9KSkJeXl4Dpcq/qHzwlEd5eXmwWCyIiYlxO09jI4TA9OnTcfXVVyMjIwMA88rZ7t27ERERAavVigceeACrVq1Cp06dmE9OVq5ciW3btiE7O9vlM+aV1Lt3b7z99tv44osv8PrrryMvLw99+/bF6dOnmUdODhw4gKVLl6Jdu3b44osv8MADD+Dhhx/G22+/DYDHVEMKbugEkCuTyeTwvxDCZZrR1SSPGnM+PvTQQ9i1axe+/fZbl8+YV1KHDh2wY8cOnDt3Dh988AHGjRuHnJwc2+fMJ+Do0aOYNm0a1qxZg5CQELfzGT2vbrjhBtv7Ll26oE+fPmjTpg3eeustXHXVVQCYR0plZSV69eqFBQsWAAB69OiBvXv3YunSpbj33ntt8zG/fI8lgH4kPj4eTZo0cflFk5+f7/LryKhUTztPeZScnIyysjKcPXvW7TyNydSpU/Hxxx9j/fr1aN68uW0688qRxWJB27Zt0atXL2RnZ6Nbt27485//zHzS2Lp1K/Lz89GzZ08EBwcjODgYOTk5ePHFFxEcHGzbVuaVo/DwcHTp0gU//fQTjycnKSkp6NSpk8O0jh074siRIwB4nWpIDAD9iMViQc+ePbF27VqH6WvXrkXfvn0bKFX+pVWrVkhOTnbIo7KyMuTk5NjyqGfPnjCbzQ7z5ObmYs+ePY0qH4UQeOihh/Dhhx/iq6++QqtWrRw+Z155JoRAaWkp80lj0KBB2L17N3bs2GF79erVC2PGjMGOHTvQunVr5pWO0tJS7Nu3DykpKTyenPzud79zGZ7qf//7H9LT0wHwOtWgfN/vhDxRw8C88cYb4ocffhCZmZkiPDxcHDp0qKGT5jPnz58X27dvF9u3bxcAxOLFi8X27dttQ+EsXLhQREdHiw8//FDs3r1bjBo1SnfIgObNm4t169aJbdu2iYEDBza6IQMefPBBER0dLTZs2OAwHEVxcbFtHuaVNHv2bPH111+LgwcPil27donHH39cBAUFiTVr1gghmE+eaHsBC8G8EkKIGTNmiA0bNogDBw6ITZs2iWHDhonIyEjbdZp5ZPf999+L4OBg8cwzz4iffvpJ/O1vfxNhYWHi3Xfftc3D/GoYDAD90MsvvyzS09OFxWIRl19+uW1YD6NYv369AODyGjdunBBCDhswb948kZycLKxWq+jXr5/YvXu3wzJKSkrEQw89JGJjY0VoaKgYNmyYOHLkSANsTf3RyyMAYtmyZbZ5mFfShAkTbOdUQkKCGDRokC34E4L55IlzAMi8ErZx6sxms0hNTRUjRowQe/futX3OPHL073//W2RkZAir1Souu+wy8dprrzl8zvxqGCYhhGiYskciIiIiaghsA0hERERkMAwAiYiIiAyGASARERGRwTAAJCIiIjIYBoBEREREBsMAkIiIiMhgGAASERERGQwDQCIynEOHDsFkMmHHjh31to7x48fj1ltvrbflExHVBgNAIgo448ePh8lkcnldf/31Xn0/LS0Nubm5yMjIqOeUEhH5p+CGTgARUU1cf/31WLZsmcM0q9Xq1XebNGmC5OTk+kgWEVFAYAkgEQUkq9WK5ORkh1dMTAwAwGQyYenSpbjhhhsQGhqKVq1a4f3337d917kK+OzZsxgzZgwSEhIQGhqKdu3aOQSXu3fvxsCBAxEaGoq4uDj8/ve/R1FRke3ziooKTJ8+HU2bNkVcXBxmzZoF56dsCiGwaNEitG7dGqGhoejWrRv++c9/1mMOERG5xwCQiBqlJ554Arfffjt27tyJsWPHYtSoUdi3b5/beX/44Qd89tln2LdvH5YuXYr4+HgAQHFxMa6//nrExMRg8+bNeP/997Fu3To89NBDtu8/99xzePPNN/HGG2/g22+/xZkzZ7Bq1SqHdfzhD3/AsmXLsHTpUuzduxePPPIIxo4di5ycnPrLBCIidwQRUYAZN26caNKkiQgPD3d4PfXUU0IIIQCIBx54wOE7vXv3Fg8++KAQQoiDBw8KAGL79u1CCCFuvvlmcd999+mu67XXXhMxMTGiqKjINm316tUiKChI5OXlCSGESElJEQsXLrR9Xl5eLpo3by5uueUWIYQQRUVFIiQkRGzcuNFh2RMnThSjRo2qeUYQEdUQ2wASUUC69tprsXTpUodpsbGxtvd9+vRx+KxPnz5ue/0++OCDuP3227Ft2zYMHToUt956K/r27QsA2LdvH7p164bw8HDb/L/73e9QWVmJ/fv3IyQkBLm5uQ7rCw4ORq9evWzVwD/88AMuXryIIUOGOKy3rKwMPXr0qP7GExHVEgNAIgpI4eHhaNu2bbW+YzKZdKffcMMNOHz4MFavXo1169Zh0KBBmDJlCv70pz9BCOH2e+6mO6usrAQArF69Gs2aNXP4zNuOK0REdYltAImoUdq0aZPL/5dddpnb+RMSEjB+/Hi8++67eOGFF/Daa68BADp16oQdO3bgwoULtnn/85//ICgoCO3bt0d0dDRSUlIc1nfp0iVs3brV9n+nTp1gtVpx5MgRtG3b1uGVlpZWV5tMROQ1lgASUUAqLS1FXl6ew7Tg4GBb5433338fvXr1wtVXX42//e1v+P777/HGG2/oLmvu3Lno2bMnOnfujNLSUnzyySfo2LEjAGDMmDGYN28exo0bh6ysLJw8eRJTp07FPffcg6SkJADAtGnTsHDhQrRr1w4dO3bE4sWLce7cOdvyIyMjMXPmTDzyyCOorKzE1VdfjcLCQmzcuBEREREYN25cPeQQEZF7DACJKCB9/vnnSElJcZjWoUMH/PjjjwCAJ598EitXrsTkyZORnJyMv/3tb+jUqZPusiwWC2bPno1Dhw4hNDQU11xzDVauXAkACAsLwxdffIFp06bhiiuuQFhYGG6//XYsXrzY9v0ZM2YgNzcX48ePR1BQECZMmIDbbrsNBQUFtnmefvppJCYmIjs7GwcOHEDTpk1x+eWX4/HHH6/rrCEiqpJJCKfBqoiIApzJZMKqVav4KDYiIjfYBpCIiIjIYBgAEhERERkM2wASUaPDli1ERJ6xBJCIiIjIYBgAEhERERkMA0AiIiIig2EASERERGQwDACJiIiIDIYBIBEREZHBMAAkIiIiMhgGgEREREQGwwCQiIiIyGD+P/cH1PwGe1BJAAAAAElFTkSuQmCC;" vertex="1" parent="1">
          <mxGeometry x="120" y="840" width="413.34" height="310" as="geometry" />
        </mxCell>
        <mxCell id="JOAAqWhhBDu5gQpFyMWB-2" value="" style="shape=image;verticalLabelPosition=bottom;labelBackgroundColor=default;verticalAlign=top;aspect=fixed;imageAspect=0;image=data:image/png,iVBORw0KGgoAAAANSUhEUgAAAoAAAAHgCAYAAAA10dzkAAAAOXRFWHRTb2Z0d2FyZQBNYXRwbG90bGliIHZlcnNpb24zLjQuMywgaHR0cHM6Ly9tYXRwbG90bGliLm9yZy/MnkTPAAAACXBIWXMAAA9hAAAPYQGoP6dpAACgfUlEQVR4nO2dd5xU1dnHf7NlZvuyvdAREOkIimABBVEU0aCxoiCY2COKr4oaRSWAGtGIURMLWGIwxvIasYEiatBXBEWa2JDi7tKXBXbZet4/jmdumTttd8qdmd/385nPzNx6zi3n/u7znOc5DiGEACGEEEIISRiSol0AQgghhBASWSgACSGEEEISDApAQgghhJAEgwKQEEIIISTBoAAkhBBCCEkwKAAJIYQQQhIMCkBCCCGEkASDApAQQgghJMGgACSEEEIISTAoAAkhhBBCEgwKQEIIIYSQBIMCkBBCCCEkwaAAJIQQQghJMCgACSGEEEISDApAQgghhJAEgwKQEEIIISTBoAAkhBBCCEkwKAAJIYQQQhIMCkBCCCGEkASDApAQQgghJMGgACSEEEIISTAoAAkhhBBCEgwKQEIIIYSQBIMCkBBCCCEkwaAAJIQQQghJMCgACSGEEEISDApAQgghhJAEgwKQEEIIISTBoAAkhBBCCEkwKAAJIYQQQhIMCkBCCCGEkASDApAQQgghJMGgACSEEEIISTAoAAkhhBBCEgwKQEIIIYSQBIMCkBBCCCEkwaAAJEHhcDgC+nz00Udt2s/MmTPhcDhate5HH30UkjK0hc2bN+MPf/gDjjrqKGRmZiItLQ1dunTBxIkTsWzZMgghola2kSNHom/fviHd5s8//+zzepg5c2arttuWdVuL1bXXpUsXTJ48OSTbHzlypOHYpKWloXfv3pg1axYaGhpatc2XXnoJjzzySEjKl8iYz43+06VLl1Ztc/Lkya1et7Wo+3HhwoUR3S+JLVKiXQASW3z22WeG//fddx+WLVuGDz/80DC9d+/ebdrPFVdcgdNPP71V6x599NH47LPP2lyG1vLmm2/i4osvRmFhIa666iocffTRcLlc+OGHH/Dvf/8bp5xyCpYuXYpRo0ZFpXzh5Prrr8fFF1/sMb1Dhw6t2t5nn33W6nVDyeuvv46cnJyQba9bt274xz/+AQDYtWsXnn76afzxj3/E1q1b8fe//z3o7b300ktYt24dpk2bFrIyJir6c6PH5XK1ant//OMfccMNN7S1WISEHApAEhTHHXec4X9RURGSkpI8ppupra1FRkZGwPvp0KFDqx/8OTk5fssTLn788UdcdNFF6NOnD5YuXWoQDSNGjMDUqVPx0UcfIS8vz+d2gj1edqFTp04hPfbROo9mBg0aFNLtpaenG+o2duxY9O7dG8899xweffRRpKWlhXR/rSVWr0NvCCFw+PBhpKene13GfG7ayhFHHBGybRESSugCJiFHuRg//vhjDB8+HBkZGZgyZQoA4OWXX8aYMWNQVlaG9PR0HHXUUbjttttw6NAhwza8ueHGjRuHd999F0cffTTS09PRq1cvPPvss4blrFzAkydPRlZWFn744QecccYZyMrKQseOHTF9+nTU19cb1t++fTvOO+88ZGdno127drjkkkuwcuXKgFwq8+bNQ21tLR5//HGvFqORI0diwIABHnVdvXo1zjvvPOTl5bkfGl9++SUuvPBCdOnSBenp6ejSpQsuuugibNmyxbDNhQsXwuFwYMmSJbj88suRn5+PzMxMnHXWWfjpp58sy7Fy5UqceOKJyMjIQLdu3TB37ly0tLT4rF8oUNfHJ598guOOOw7p6elo3749/vjHP6K5udmwrNkFXFtbi5tvvhldu3ZFWloa8vPzMWTIEPzzn/80rPfmm29i2LBhyMjIQHZ2Nk499VQP6zUALF68GAMHDoTL5ULXrl3x5z//2bLMVi7g6upqTJ8+Hd26dYPL5UJxcTHOOOMMfPvtt0Efk5SUFAwcOBANDQ2orq52TxdC4PHHH8fAgQORnp6OvLw8nHfeeYZzOnLkSCxevBhbtmwxuCwB790hrFyE6h5Zu3YtxowZg+zsbLeV2uFw4LrrrsMLL7yAo446ChkZGRgwYADeeuutgOq3detWTJw4EcXFxXC5XDjqqKPw0EMPua+3xsZGFBcX49JLL/VYt7q6Gunp6bjpppvc02pqatzXgdPpRPv27TFt2jSPdkSV+8knn8RRRx0Fl8uF5557LqAy+yKY+83KBfzKK69g6NChyM3Ndd9/qo1U+DtmioqKCpx//vnIzs5Gbm4uLrjgAlRVVVmW+8svv8T48eORn5+PtLQ0DBo0CP/617/afDxIbEILIAkLlZWVmDhxIm655RbMnj0bSUnyXeP777/HGWecgWnTpiEzMxPffvst7r//fnzxxRcebmQr1qxZg+nTp+O2225DSUkJnn76aUydOhXdu3fHSSed5HPdxsZGjB8/HlOnTsX06dPx8ccf47777kNubi7uuusuAMChQ4dw8sknY+/evbj//vvRvXt3vPvuu7jgggsCqveSJUtQVlaGIUOGBLS8ngkTJuDCCy/EVVdd5X6Q/fzzzzjyyCNx4YUXIj8/H5WVlXjiiSdwzDHHYMOGDSgsLDRsY+rUqTj11FPx0ksvYdu2bbjzzjsxcuRIfPPNN2jXrp17uaqqKlxyySWYPn067r77brz++uuYMWMGysvLcdlll7mXGzlyJJYvXx5wn8WWlhY0NTV5TE9JMTY1VVVVuPDCC3Hbbbfh3nvvxeLFizFr1izs27cPjz32mNft33TTTXjhhRcwa9YsDBo0CIcOHcK6deuwZ88e9zIvvfQSLrnkEowZMwb//Oc/UV9fjwceeAAjR47EBx98gBNOOAEA8MEHH+Dss8/GsGHDsGjRIjQ3N+OBBx7Ajh07/NbzwIEDOOGEE/Dzzz/j1ltvxdChQ3Hw4EF8/PHHqKysRK9evQI6Xno2b96Mdu3aoaioyD3tyiuvxMKFC/GHP/wB999/P/bu3Yt7770Xw4cPx5o1a1BSUoLHH38cv//97/Hjjz/i9ddfD3q/ehoaGjB+/HhceeWVuO222wzncvHixVi5ciXuvfdeZGVl4YEHHsBvfvMbbNq0Cd26dfO6zV27dmH48OFoaGjAfffdhy5duuCtt97CzTffjB9//BGPP/44UlNTMXHiRDz55JP461//anh5+uc//4nDhw/j8ssvByBfAkaMGIHt27fj9ttvR//+/bF+/XrcddddWLt2LZYuXWp4eXzjjTfwySef4K677kJpaSmKi4v9HgerazgpKcndjikCvd/0fPbZZ7jgggtwwQUXYObMmUhLS8OWLVsM7V8gxwwA6urqMHr0aFRUVGDOnDno2bMnFi9ebNleLVu2DKeffjqGDh2KJ598Erm5uVi0aBEuuOAC1NbWhqyPK4khBCFtYNKkSSIzM9MwbcSIEQKA+OCDD3yu29LSIhobG8Xy5csFALFmzRr3vLvvvluYL8/OnTuLtLQ0sWXLFve0uro6kZ+fL6688kr3tGXLlgkAYtmyZYZyAhD/+te/DNs844wzxJFHHun+/9e//lUAEO+8845huSuvvFIAEAsWLPBZp7S0NHHcccd5TG9ubhaNjY3uT3Nzs0dd77rrLp/bFkKIpqYmcfDgQZGZmSn+8pe/uKcvWLBAABC/+c1vDMv/97//FQDErFmz3NPU+fm///s/w7K9e/cWp512mmHaKaecIpKTk/2Wa/PmzQKA188nn3zisf///d//NWzjd7/7nUhKSjKcXwDi7rvvdv/v27evOOecc7yWo7m5WZSXl4t+/foZjvGBAwdEcXGxGD58uHva0KFDRXl5uairq3NPq6mpEfn5+ZbX3qRJk9z/7733XgFALFmyxO+xMTNixAjRp08f97VQWVkp7rrrLgFAPPnkk+7lPvvsMwFAPPTQQ4b1t23bJtLT08Utt9zinnbmmWeKzp07e+zL6l4QQjtf+utZ3SPPPvusx3YAiJKSElFTU+OeVlVVJZKSksScOXN81ve2226zvN6uvvpq4XA4xKZNm4QQQnzzzTcCgPj73/9uWO7YY48VgwcPdv+fM2eOSEpKEitXrjQs9+9//1sAEG+//bah3Lm5uWLv3r0+y6hQ16bVZ+rUqe7lgrnfJk2aZDg3f/7znwUAUV1d7bUcgR6zJ554wuu9ZD6/vXr1EoMGDRKNjY2GZceNGyfKysoM9wtJDOgCJmEhLy8Pp5xyisf0n376CRdffDFKS0uRnJyM1NRUjBgxAgCwceNGv9sdOHAgOnXq5P6flpaGnj17erhErXA4HDjrrLMM0/r3729Yd/ny5cjOzvYIQLnooov8bt8XEyZMQGpqqvvzhz/8wWOZc88912PawYMHceutt6J79+5ISUlBSkoKsrKycOjQIcvjdckllxj+Dx8+HJ07d8ayZcsM00tLS3HssccappmPBSCtZFbWEG/ccMMNWLlypcdn4MCBhuWys7Mxfvx4w7SLL74YLS0t+Pjjj71u/9hjj8U777yD2267DR999BHq6uoM8zdt2oSKigpceumlBmtNVlYWzj33XHz++eeora3FoUOHsHLlSkyYMMHQ3y47O9vjGrHinXfeQc+ePTF69Gi/y1qxfv1697VQVlaGe++9FzNmzMCVV17pXuatt96Cw+HAxIkT0dTU5P6UlpZiwIABYYtyt7oOAeDkk09Gdna2+39JSQmKi4v93nsffvghevfu7XG9TZ48GUIIt+WrX79+GDx4MBYsWOBeZuPGjfjiiy8M7tG33noLffv2xcCBAw3H5bTTTrN0d59yyil++9zqOeKIIyyv4T/+8Y8eywZ6v+k55phjAADnn38+/vWvf+GXX37xWCbQY7Zs2TKv95KeH374Ad9++627vPrjdsYZZ6CyshKbNm3yWmYSn9AFTMJCWVmZx7SDBw/ixBNPRFpaGmbNmoWePXsiIyMD27Ztw4QJEzwe5lYUFBR4THO5XAGtm5GR4dG53uVy4fDhw+7/e/bsQUlJice6VtOs6NSpk+UD8aGHHsKdd94JQHsAmLE6ZhdffDE++OAD/PGPf8QxxxyDnJwcOBwOnHHGGZZ1Li0ttZymd5ECbTuOvujQoUNA7m+r46nKbi6rnkcffRQdOnTAyy+/jPvvvx9paWk47bTT8OCDD6JHjx7uda2OZXl5OVpaWrBv3z4IIdDS0uL1ePlj165dhheRYDniiCOwaNEiCCGwZcsWzJo1C3PmzEH//v1x4YUXAgB27NgBIYTXa8+X27W1ZGRkeO272tprZs+ePZZpUMrLy93zFVOmTMG1116Lb7/9Fr169cKCBQvgcrkML2A7duzADz/8gNTUVMv97d692/Df6lrwRVpaWsBdOAK93/ScdNJJeOONN/Doo4/isssuQ319Pfr06YM77rjDXc9Aj5m39spcLtWt4eabb8bNN99sWS7zcSPxDwUgCQtWOfw+/PBDVFRU4KOPPnJb/QAYOr1Hm4KCAnzxxRce0711qjZz6qmn4q9//Su+/PJLw0MkkEhA8zHbv38/3nrrLdx999247bbb3NPr6+uxd+9ey21YlbOqqgrdu3cPqPyRwqqfnSq7ldBQZGZm4p577sE999yDHTt2uK2BZ511Fr799lv3upWVlR7rVlRUICkpCXl5eRBCwOFweD1e/igqKsL27dv9LucNvcg45phjcPLJJ6NPnz6YNm0axo0bh6ysLBQWFsLhcOCTTz6xTEESSFoS9cJjDnTy9rBvbe5NXxQUFHg9HwAM/Vgvuugi3HTTTVi4cCH+9Kc/4YUXXsA555xjsOAVFhYiPT3dI/hLP19POOqkaO39dvbZZ+Pss89GfX09Pv/8c8yZMwcXX3wxunTpgmHDhgV8zAJtr9TyM2bMwIQJEyzLdOSRR/osM4k/6AImEUM1xOYH19/+9rdoFMeSESNG4MCBA3jnnXcM0xctWhTQ+jfeeCMyMjJw7bXX4sCBA20qi8PhgBDC43g9/fTTHtGyCnP+shUrVmDLli0YOXJkm8oSag4cOIA333zTMO2ll15CUlKS32AeRUlJCSZPnoyLLroImzZtQm1tLY488ki0b98eL730kiFw5dChQ3j11VfdkcGZmZk49thj8dprrxkswAcOHMB//vMfv/seO3Ysvvvuu4AClwKhoKAAc+fOxY4dOzB//nwAwLhx4yCEwC+//IIhQ4Z4fPr16+de35slTlmRvvnmG8N087EPJ6NGjcKGDRuwevVqw/Tnn38eDocDJ598sntaXl4ezjnnHDz//PN46623UFVV5REdO27cOPz4448oKCiwPC6RTLrc1vvN5XJhxIgRuP/++wEAX331FYDAj9nJJ5/s9V7Sc+SRR6JHjx5Ys2aN5TEbMmSIwb1PEgNaAEnEGD58OPLy8nDVVVfh7rvvRmpqKv7xj39gzZo10S6am0mTJuHhhx/GxIkTMWvWLHTv3h3vvPMO3nvvPQDwiAI0c8QRR+Cf//wnLrroIvTr1w9XX321OxH0zp078f777wNAQEmFc3JycNJJJ+HBBx9EYWEhunTpguXLl+OZZ57xGmH45Zdf4oorrsBvf/tbbNu2DXfccQfat2+Pa665JrgD8SujRo3C8uXLA+4HuHXrVnz++ece04uKigxW0IKCAlx99dXYunUrevbsibfffhtPPfUUrr76ap+u1aFDh2LcuHHo378/8vLysHHjRrzwwgtuYQcADzzwAC655BKMGzcOV155Jerr6/Hggw+iuroac+fOdW/rvvvuw+mnn45TTz0V06dPR3NzM+6//35kZmZ6tbAqpk2bhpdffhlnn302brvtNhx77LGoq6vD8uXLMW7cOIOoCZTLLrsM8+bNw5///Gdce+21OP744/H73/8el19+Ob788kucdNJJyMzMRGVlJT799FP39QXI/nOvvfYannjiCQwePBhJSUkYMmQISktLMXr0aMyZMwd5eXno3LkzPvjgA7z22mtBl6+13HjjjXj++edx5pln4t5770Xnzp2xePFiPP7447j66qvRs2dPw/JTpkzByy+/jOuuuw4dOnTw6Gc5bdo0vPrqqzjppJNw4403on///mhpacHWrVvx/vvvY/r06Rg6dGiry1tXV2d5DQOeeSlbc7/ddddd2L59O0aNGoUOHTqguroaf/nLXwz9oQM9ZpdddhkefvhhXHbZZfjTn/6EHj164O2333a3V3r+9re/YezYsTjttNMwefJktG/fHnv37sXGjRuxevVqvPLKK609ZCRWiVr4CYkLvEUB9+nTx3L5FStWiGHDhomMjAxRVFQkrrjiCrF69WqPiDVvUcBnnnmmxzZHjBghRowY4f7vLQrYXE5v+9m6dauYMGGCyMrKEtnZ2eLcc88Vb7/9tmW0nTd+/PFHcf3114sjjzxSpKenC5fLJTp37ix++9vfitdff120tLR4lGHXrl0e29m+fbs499xzRV5ensjOzhann366WLdunUdUqopKfP/998Wll14q2rVrJ9LT08UZZ5whvv/+e4/jZXV+zNGKatlAmgl/UcCXXHKJx/4/+ugjMWTIEOFyuURZWZm4/fbbPSIUYYoCvu2228SQIUNEXl6ecLlcolu3buLGG28Uu3fvNqz3xhtviKFDh4q0tDSRmZkpRo0aJf773/96lPvNN98U/fv3F06nU3Tq1EnMnTvX67WnP95CCLFv3z5xww03iE6dOonU1FRRXFwszjzzTPHtt9/6PFa+7o/FixcLAOKee+5xT3v22WfF0KFDRWZmpkhPTxdHHHGEuOyyy8SXX37pXmbv3r3ivPPOE+3atRMOh8NQ/srKSnHeeeeJ/Px8kZubKyZOnCi+/PJLyyhgq3tECHkerr32Wo/pVsfFii1btoiLL75YFBQUiNTUVHHkkUeKBx980DLytLm5WXTs2FEAEHfccYfl9g4ePCjuvPNOceSRRwqn0ylyc3NFv379xI033iiqqqr8ltsbvqKAAbivz2DuN/N99dZbb4mxY8eK9u3bC6fTKYqLi8UZZ5xhiJQP5pipNkLfXq1YscIya8GaNWvE+eefL4qLi0VqaqooLS0Vp5xyiiH6nCQODiGiOCgpITHC7Nmzceedd2Lr1q22GJrMzMKFC3H55Zdj5cqVrcpBGElGjhyJ3bt3Y926ddEuCiGtIpbuN0K8QRcwISZUIuJevXqhsbERH374IR599FFMnDjRluKPEEIICRYKQEJMZGRk4OGHH8bPP/+M+vp6dOrUCbfeeqs7jQshhBAS69AFTAghhBCSYDANDCGEEEJIgkEBSAghhBCSYFAAEkIIIYQkGBSAhBBCCCEJBqOA20BLSwsqKiqQnZ0d1vEmCSGEEBI6hBA4cOAAysvL/Y7wFK9QALaBiooKdOzYMdrFIIQQQkgr2LZtW8Lmd6UAbANq8Oxt27YFNLYrIYQQQqJPTU0NOnbs6H6OJyIUgG1AuX1zcnIoAAkhhJAYI5G7byWm45sQQgghJIGhACSEEEIISTAoAAkhhBBCEgwKQEIIIYSQBIMCkBBCCCEkwaAAJIQQQghJMCgACSGEEEISDApAQgghhJAEgwKQEEIIISTBoAAkhBBCCEkwKAAJIYQQQhIMCkBCCCGEkASDApAQQgghJMFIiXYBCLETQgC//AKsWyd/FxYCDof8lJTIbyGAqipgzx6gd285bedOOb+sDKioANavl+sOGgQk/fqa1dICfPWVXFYIOb1vX6C8HKisBHbs0LZRVSXXKSkBvv4a2L0b6NMHaN9eK0NlpVymrExOs6pLRYW23fJyOV0/Te1LCPlR9dAvW1kJ7Nol/xcWynKrY+FweO5fHcP164GCAqC0VK5TWmrc144d8huQ65eWyv2qbZnPRVGR3FdZmfXxammR0wCguFjWRR1DwLNulZXGsrS0yOPscGjnxbzdoiJgwwatPKWl2raLi43Xypo1cjl1rPTHR21PlU1/LPTHQ9VVfz1YnWvzdq2OZUWFdvzVPkpK5P8NGzzPla/9Wp33aKHuBX299GUzzzejjrX+XDscwIABcpr+GOiPVXExsHGj9TUOWN8XvsoZqmOh7u/iYjlNXVsOh/G+UL/VPF/3dCC0tMi2CgAGDpTr+2uj/NWlLesT/ziE8HZbEH/U1NQgNzcX+/fvR05OTrSLQ9qIajwrK2XDuHcvkJcn5+3bJ38nJUkRJATw/fdAu3bG+fpGKilJCsQdO4DvvpPL6h9Kah39+up3fr4UGIBRlLRvL6fphVFBgRSj6k7WC8uKCuNyu3dr9fJXFs6P/Hz1ANYLbSGkmG5p8VxW4XCE9vzqr79du4z3QnU10LOnfCgnJUX/4ayEQkuL9mLWp48m4K2ecC0t8r7Yuxfo0UOWf/duOV3Vv7DQeF+pffk7ltXVwJFHAkcfrb38qX1+9ZU8noWF8rjpX0aA4I6llaBUL4y7dsk6+Cq/uta8tR/ml82WFvn93Xdy/eJi7YXMLJ7bKgCtXl5DfY3x+U0XMCGEEEIghdeePd6FM4kv6AImJAzoG1JCCIlVVJcXZYEm8QMtgIQQQgJGCOlipJUoceE1EB/QAkgIIcT2MCiAkNBCCyAhNieYfjnsw0PiGeWOrKjg9U1IW6EAJIQQQnQoF6c5ipaQeIICkBBCCCFhQaV0odXWflAAEkIIIYQkGBSAhBBCCLENqq/nrl20GoYTCkBCCCGEkASDApAQQgghJMFgHkBCCCEJiYr2ZU7B6MH8jtGDFkBCCCGEkASDFkBCwoSyLqjfhBBiF4QA9u6VY/zS6paY0AJICCGEkKBROf448lBsQgFICCGEEJJgUAASQgghhCQYFICEEEIIIQkGBSAhhBBCSIJBAUgIIYQQkmBQABJCCCGEJBjMA0gIIYQQNyq9S1ISUFLStu1UVcnfpaWhKRsJHRSAhBBCbIl+mDAKCEJCC13AhBBCCCEJBgUgITGMGm5uzx5m4ieE2B/lXq6oMLZZ3qaT8EEXMCGEEBJjqP51Qsh+epEez1e9fAoh+wr6Wm73bvm7rMyznPp6FBfLbTY3yzGK9+yR88rLOV5xOKAFkBBCCCEkwaAAJIQQQghJMOgCJoQQm6F3rxUXR7s0hJB4hBZAQgghhJAEIyYF4MyZM+FwOAyfUl2SKCEEZs6cifLycqSnp2PkyJFYv369YRv19fW4/vrrUVhYiMzMTIwfPx7bt2+PdFUIIYSEARVcoAIMCCFGYlIAAkCfPn1QWVnp/qxdu9Y974EHHsC8efPw2GOPYeXKlSgtLcWpp56KAwcOuJeZNm0aXn/9dSxatAiffvopDh48iHHjxqG5uTka1SGEEEJCQiTTQ6l9UWjHHjHbBzAlJcVg9VMIIfDII4/gjjvuwIQJEwAAzz33HEpKSvDSSy/hyiuvxP79+/HMM8/ghRdewOjRowEAL774Ijp27IilS5fitNNOi2hdCCGEEDuhLKjNzaERdirPn8Mhf+/YIUd5KS72zAdYVaX1gSXhI2YtgN9//z3Ky8vRtWtXXHjhhfjpp58AAJs3b0ZVVRXGjBnjXtblcmHEiBFYsWIFAGDVqlVobGw0LFNeXo6+ffu6lyGEEEJI4ChroFUyZ7rk7UdMWgCHDh2K559/Hj179sSOHTswa9YsDB8+HOvXr0fVryNPl5hGsC4pKcGWLVsAAFVVVXA6ncjLy/NYRq1vRX19Perr693/a2pqQlUlQgghIUYfTV1aymTChOiJSQE4duxY9+9+/fph2LBhOOKII/Dcc8/huOOOAwA4THe6EMJjmhl/y8yZMwf33HNPG0oeP+gHabfK7k4IIYQQ+xKzLmA9mZmZ6NevH77//nt3v0CzJW/nzp1uq2BpaSkaGhqwb98+r8tYMWPGDOzfv9/92bZtW4hrQgghhBASfuJCANbX12Pjxo0oKytD165dUVpaiiVLlrjnNzQ0YPny5Rg+fDgAYPDgwUhNTTUsU1lZiXXr1rmXscLlciEnJ8fwIYSQaCKEjPaMt07zKmggHvuMqf5wVn3l4hHlio+3azTWiUkX8M0334yzzjoLnTp1ws6dOzFr1izU1NRg0qRJcDgcmDZtGmbPno0ePXqgR48emD17NjIyMnDxxRcDAHJzczF16lRMnz4dBQUFyM/Px80334x+/fq5o4IJIYQQO6Pv41hWFu3SGGE0r/2JSQG4fft2XHTRRdi9ezeKiopw3HHH4fPPP0fnzp0BALfccgvq6upwzTXXYN++fRg6dCjef/99ZGdnu7fx8MMPIyUlBeeffz7q6uowatQoLFy4EMnJydGqFiGEkABR/ZCDERcq/UhLC0VJICgRt2cPUFAQ7dKQUBOTAnDRokU+5zscDsycORMzZ870ukxaWhrmz5+P+fPnh7h0hBBCCCH2JiYFICHRQu9yoQWBEHui+g/S/UiIdygACYlD1ANQubv27pXfhBDiD73rNz8/2qUh4YICkBBCSEKgLPjsA0hInKSBIYQQQgghgUMLICGEkLjF3G93zx6gXTt7lAmQQ9QREg0oAAmJEVS/PoeD7isSXvQChdcaIfEJBSAhhJC4QuX7U9Y+jlUeOEr8OxzacWP2g/iEfQAJIYQQQhIMCkBCCCG2h0OLERJa6AImhBASkyhRCADFxcZpu3dTKBLiC1oACSGEEEISDFoACSGE2BZl0fOWvFkFKOzYIf8z4CM2EEJaaVtajAEnJHLQAkgIIYQQkmBQABJCCIkJVCLnqir274tFlLWW588e0AVMCCEkrmEeO0I8oQWQEEIIISTBoAAkhBBCCEkw6AImJA5hLjRC7Ifqw9jcDCTZ3PwiBLB3rxal62u+3etCrOFpI4QQQiKM6pdYUcGXNBIdKAAJIYQQQhIMuoBJWBACqKyUv8vKmOSTEELChb9k2ZEsh0rTU1oavXKQwKAAJIQQEhfo+6UlGuz3S4KFApCQOEP1LaLVlRBCiDfYB5AQQgghJMGgACSEEEKigHLbcmg0Eg3oAia2hwElhBBiXzjUXmxCAUhiAiGAHTvkd3l56EWgEDIfF9/EiV1QD9VoR3aS8KACVoQAioujXRqSiNAFTFqNcl/EeiJTij9iV5QI3LOH1yaJb9TzRFkSSfihBZCEDCWkduyQb7QOR2gsdfr0BnxTJoQQQtoOBSCJKuzfRwghhEQeCkAScpSo27MHKCqSGeEp7AghiYhqD9mXk9gNCkASMpSrdudO2dhVVwOFhZprGKCVL1BU3y/1mxASO6g2LylJvgCzfxuxIxSANiRYt6gd3KiqwWMDRwghxvF5CbEjFIA2Ry/uSkvl78pKbaivvn1lWhRv65gFYaBiMZKisqUFWL9e7m/QIPnWTAghsY4Sgeo3IXaCAtCGqEZDCKC5WUbV7toFrFkjXapqmT17gG++kZa3vXt997fTpzoB5HKhLmtbGjjl8qyoANq3p5uYEGLsClFUFN2yBIo+KbI5fU+ii0B97kP1LCPRgwLQpuiTwBJCCIkdVPu9bx+QlxfeF1pzf2G1T0L8QQFIEgY79JUkhBA9ZgGXlMT2iUQG9rYiUUW5kDnSASGESFSXnYoK6QVSv9lGklBCAUgIIYREEWUF5HCUJJJQABJCCCGEJBjsA0jIr+ij9/gWTog9UJGjKoMBISQ00AJoc5QoYR85QgghhIQKWgAJIYREBUbma6iXfYcjdHlaCfFFzFsA58yZA4fDgWnTprmnCSEwc+ZMlJeXIz09HSNHjsT69esN69XX1+P6669HYWEhMjMzMX78eGzfvj3CpSetRR8lR8soIdHB233o7/70td4vvwCrV8vvRL63VYaEX36RIlkNK8d2j4SKmLYArly5En//+9/Rv39/w/QHHngA8+bNw8KFC9GzZ0/MmjULp556KjZt2oTs7GwAwLRp0/Cf//wHixYtQkFBAaZPn45x48Zh1apVSE5OjkZ1CCEkLtAPgaYfnUhZ/CherGlpATZu1I6dOZF0ZaUx0XMkEk2T+CVmBeDBgwdxySWX4KmnnsKsWbPc04UQeOSRR3DHHXdgwoQJAIDnnnsOJSUleOmll3DllVdi//79eOaZZ/DCCy9g9OjRAIAXX3wRHTt2xNKlS3HaaadFpU6EeEMIYOdO+WGjH7+ogIeWFnufX/31CMiybt8O7N4tr88ePeS0vXs9h3fUi8OSEu9DV4ZiiEkSGwghrx0h7H3dxxsx6wK+9tprceaZZ7oFnGLz5s2oqqrCmDFj3NNcLhdGjBiBFStWAABWrVqFxsZGwzLl5eXo27evexkr6uvrUVNTY/gQQgghhMQaMWkBXLRoEVavXo2VK1d6zKv69dWypKTEML2kpARbtmxxL+N0OpFnGjCxpKTEvb4Vc+bMwT333NPW4hNCCCGERJWYswBu27YNN9xwA1588UWkpaV5Xc5hsiMLITymmfG3zIwZM7B//373Z9u2bcEVnhBCCCHEBsScAFy1ahV27tyJwYMHIyUlBSkpKVi+fDkeffRRpKSkuC1/Zkvezp073fNKS0vR0NCAffv2eV3GCpfLhZycHMOHEEIIIRoqylsl1if2JOYE4KhRo7B27Vp8/fXX7s+QIUNwySWX4Ouvv0a3bt1QWlqKJUuWuNdpaGjA8uXLMXz4cADA4MGDkZqaalimsrIS69atcy9DCCGEEBKvxFwfwOzsbPTt29cwLTMzEwUFBe7p06ZNw+zZs9GjRw/06NEDs2fPRkZGBi6++GIAQG5uLqZOnYrp06ejoKAA+fn5uPnmm9GvXz+PoBJCCCGEkHgj5gRgINxyyy2oq6vDNddcg3379mHo0KF4//333TkAAeDhhx9GSkoKzj//fNTV1WHUqFFYuHAhcwASQgghYUSNelJdDeTnM/VLtIgLAfjRRx8Z/jscDsycORMzZ870uk5aWhrmz5+P+fPnh7dwhBBCCCE2I+b6ABJCCCGEkLZBAUgIIYQQkmBQABJCCCGEJBgUgIQQQgghCQYFICGEEEJIgkEBSAghhBCSYFAAEkIIISRkCAFUVQF79nAoODtDAUg8UOM4VlXx5iWEEELiEQrAOEFlVq+ooGgjhBBCiG8oAEnYoCglhBBC7ElcDAVHCCGEkOijXvzVb2JfaAEkhBBCCEkwKAAJIYQQQhIMCkBCCCGEkASDApAQQgghJMFgEEgcoZJvAoDDIT+EEEIIIWZoASSEEEIISTBoASSEEEJI1BEC2LsXaGmJdkkSA1oACSGEEEISjIhZAA8dOoS5c+figw8+wM6dO9Fikvg//fRTpIpCQozqeygEE38SQgghsUDEBOAVV1yB5cuX49JLL0VZWRkcjFAghBBCCIkKEROA77zzDhYvXozjjz8+UrtMaIQAduyQ3+Xl0S4NIYQQQuxExPoA5uXlIT8/P1K7I4QQQgghXoiYALzvvvtw1113oba2NlK7JIQQAqChATh0SH4TQggQQRfwQw89hB9//BElJSXo0qULUlNTDfNXr14dqaIQQrzQ0ADU1gKZmYDLFe3SkFBQVwf8859Anz7yk5wc7RIRQuxAxATgOeecE6ldEdJqGhrkJyVFs5oIAezfDxw+DCQlSWGUkSHnr1ol18vOlv+bmuQILDk52vr19bI/5r59QHo6UFgIpKbK+Xv2SMG1dy/Q2Cj3u307UF0NtGsntyWEp+XmwAG5jMsl5+/eLcsIyO/GRiAvD3A65br798vvxka5z8ZGWYa6Orl+dTWwcSOwcCHQuzdw1FFAt25SCKalyeUyM7XtNzRoI800NMgo8Nxcuc3du2Udi4rk/g8eBCoq5HopKfK7tlYeQ5dL5vzSl09ty+mU2zMfy+3b5fK5ubIMBw9qxzEjQ9alqUnuy+WS523HDuPx3bULyMqS/9X5BWQdGxrkuaqtldtPSpL7EEL+r66WyzkcWpl++QWoqZHbOHhQbi8zU7tOKirk9pKT5bYbG+X8xka5vtp/aqomwB0Orczma6m2Vk5X14d+fXUsm5rk5513gKVL5ef+++W5TE6W16Laf22tXLexUTtXmZnyGhRCHrNVq6SArK7Wyu9wyPUi+bIghDx/FRWeox2pax3QzuWhQ/JacjqNyx48KK81dS80N8vjdfCgvCYdDnktCyHrZ3Wsqqvl76Ymre1Q91e7dp5lV9dvS4tsM/TT1TXbGtS9o66Vgwfl9P37tfI7HLLs+/Z5XstCAJWV8prQHz/z9g8fBrZtk8c/I8N4Haj9hwr1MlpfH7ptEiMREYBNTU0AgClTpqBjx46R2CUhQbNnDzB/vvzd1CT/p6fLhmjrVtlYOp1Ar15Afj7w+efyYaooKpLrHTgAdOok1+3RA1izBti8WS6TnAwcfbQUNT/8ILebkiK3W1Aglzl4UIqJ8nIpvjIzpVjp0AE46yxZnjvukA+SsjL5IBRCPohUYz5oEHDOObKx/uwz4KuvZANdUiIfPko4trRoDXt1tdx/RYUUC1lZ8iHV2CjLW1YmyyWEPDY1NbLhP3xYljM9XUsD5HLJ49HcLMWtOi61tXJb2dmy3sXF8hjW1MjvlhZNgDc3yzp17KiJqMZGuY/sbFnXmhq57fR07VuJtuRkua8dO+QnNVUKU3V88/PlNpqa5L6Ki+X/3bvlMklJsjzV1fK7vFw++FwueS5qa+XxbWiQ6yucTm3/5eVyWwcPyvo7nbIMSlTv2iWPU2qqFLTqHGVnA2vXAieeCHTpAixeLLe5b58m7vbskdtR1112tvyurZX7S0uT5ams1Mp2xx1ymcxMeVyFkMu6XPJz6JD8uFyyPCUlcv7XX2svN2Vl2svJ6NFA376yDNFk40ZZ5uefl+fkuOOAk04C/vMfeS926wZ8/708J717SzG7eLE8hgUF8tvhkOfH5ZLHef9+eY0cPCiXaWmR11dmpjyX9fXymKelaS81SrB07QpMnCj3rVi1CrjrLvk7IwO4+GJgyBB5Lc6YIc/12WcHZ6FVL4Lz58s6H3ss8MILwDffyOtGvRiqFyNAljcjQ9Y1L0+W8Ztv5HWSny/nHXOMPLdpafJ6++IL+SJRUyOPb1OTbB/GjgWOPx7YskW2h+3ayW2OHy/nf/qpLEevXp4C3Bc7d8pzmZcn74PkZFk/EloiIgBTUlLw5z//GZMmTYrE7ghpFfPnAx984HuZ+nop6KzYtUv7rdJarl9vXKa5GVi50jitsVF+Dh0yTt+61XMfO3YAv/mNNu+XX4zbUY38f/8rHwYPP2zMqq9f3h9KuADyQeIrVad+WX/7qqnRrGVbtvgvx549ntPMXYlVvX3R1CQfXopdu4znTC+UrFD1P3BAHg9v6K2133/vOa+iwjjNvN9vv9V+OxzA229LEW1FY6MsT6D8+i6OQ4eM+7GiokIKKz1CyOmqDps3A3/+s7bdaPDhh8CttxqnffSRFP8ffij/u1yaJamoSAo8VWZvx1Y/z9u1sWOH9fQffwSWLQPOP1+btmKF9ru2Fnj6aVmWpUvl/bB4MXDGGd7LYmbPHuD667WXj+++k+L0//5P/tefO/01efiw/ADSAqpfbu9e+dmxQ4q2rl3ltTJ3ruf+Dx6UAm/AANnO6CkslOL4b3+T/596SvN8BMIzz8g2TFFTAwwcqL3UkNAQMRfwqFGj8NFHH2Hy5MmR2iUhQfHzz8b/RUXyAQvIN9DiYikC9C6JsjL5v65Ovj07nbIBTUkxCpf0dNl4ORyaawqQ6ygLVH29XK+lxShU9Hz/vbQEKReUmZ495YOgsVGKG6shlUpK5PrqU19vXE5ZI9VDUlnPlHVNb3HLyZHHRn9MGhs1S5765OXJ5Roa5Pbr6uRy6emaBTE5WX6SkrQ6KpcboFm5nE65jrJkKSuW06mJaKdTswSmpGgPvZwczVqqrJW1tbI8aWnyPChXf7t2sjypqZq1s7paLpuXJ+uiXGv19bIu9fXSgpKZKa+D5mZ5LJSVzuGQ6yUlyd/t2smy19fL/2ahceiQVn+XCygt1fbV1CS3oxfRyuqZnKy55AFZ3v37ZdmVi1MdpwMH5LFo105us7HRKIpcLqB9ezk9OVnOUwJeuUND6frzRWWltEYOGqRZjt9803M55a5V6H/rRX9enrzOFd26yWOuF3bZ2fKYKmuYuk8bGrTro7lZLpeUpAlr5UZWWImf2lqj9Tg1NXAL4OefG9cFNGFnpl07eUxyc+U5rqvzfHHo2lWeW9WF5Msvgc6dAavu+Z06yZfQHTus25g9e6QVT9HYKPcbqAA0vzy6XPJ4UwCGlogJwLFjx2LGjBlYt24dBg8ejEx9BwMA48ePj1RRSIKjrBjKnaXQN9YuFzB0qGywVD+uggLZaG7fLpfp1Uta2TIyZMPbrp383dws36zff197oA8YIF1Su3Zp/ZSamqQYKy7WHqTJyXJbzz6ruZczMjQR0L69bASTfo3fP/547U25SxfgD38AZs/W+nFZcd552kPb5ZL7rK7WhFF9vXxbz8qSYmHXLtnYJydrfeaKiqQIyc2V0xsb5fFJSdH6VSnXr8Mhy6xEoNqXEr319bLOpaVyGUBzh6u+Xjt2yONQXCy3l5WlbVsJP+W6U33clDhLTpb1UO46ddyVSN2/Xxt/tK5OlqWoSC6jzu2WLXJ9JTpSUuR28/Plt+p/qI6P6jrQ0qL1JVSBNTt2yDIrVzwgy+BwSDGjt2aqfn4AcOaZ8hjV1cnytbTI7Tz2mCbIRo6Uxyg/Xx7DggJZPuXirK6WLxcul1xXCcm9e+WxSU2V3089pb1gjBwp95eXJ+uwZYsMKgHktJyc4Nx7raW+Hvif/5EvQSeeCNx5p7Gfmp7kZHms/NGjh3RvAlJUnnaarN/772svcJdeKo+Fy2V0vavrJTNTHrfSUrnff/0L2LRJE40KK5Gsv5cBed+ZPQHeSE/3nGaVae3ss+V01V9z3z7ZVr33nvbycMIJ0sLW3Cwtzlu2aC9jZsv+scfKNmTWLHndWVlBlTBWBPuSkJVl/K/6BJPQEjEBePXVVwMA5s2b5zHP4XCg2fwqQ2IC1SEb0B7a8YDTCQwfLuukOtYXFUk3jhKA7dvLh2NGhnwo5OZqD6SdO4F16zQB2KWL7O+jxE59vWw8S0tlY7xvnyYG6uuBF1/UBGC3bnJbgNaxXFmv9Em+c3Lk//JyKZrMFk3FoEGaNTIjQwsiycmRD7jqarkN9dZ96JAsf2ambMRra7V+a6qv26FDmnhTx0GJXBWIUVgo56t9NTfL7asghqIiWR61LYdDWiD27ZOisqBAbre+Xs5Xxyc9XS6TnS33s2+f0eKYmiofYuqhUl8vxZ2ySjQ3a/09VZCMXow2NspzrSw8e/dq1tPMTE1g5ebK41NTI+uq+laqfpI5Odr6WVlyvtOprZ+eLl2WegGoFweDBkkrzcGD8oEuhJyflaUJwB49gCOPlMcyM1NuXwjtnNTWyr5/KoBG7b+qSh77tDRZVr2F+aijgO7dZZ2SkuSxW79e9htT0yJBY6PmUv/kE1kX1d/STFKSrI8/+vbVBGCnTrJ/bvv2wPLl2jLduslzp861/ljt3St/Kwt/crJ06QLyvPgTLeqaUuit2P6wqp+Vhe3oo7W+iEoAZmdLkaoE4MCBwLBh8l5QL5TqhdQ8vGe7dvK+zMmR152VJ6Kw0NgtICtLtomB9hU1C8CyMlr/wkHEBKB57F9C7Ia+oUtJkQ9KJQJSU2XDp492bNdOWlsALepPWWvat5eNrooSLijQXINqX0qoALLhV+Ju3z7jQ+HEEzUBCMhGWpU1J0ebriIV1UPHyh2kLGP6siqLlWp0hdC2oSJxhdDKqiwI+vXNDy2nUzs2qq5qm2pf+vXV8QWM21LbSU017l911teXNyNDfhwOTUCq+crFqdZX21YCSUVNA3Ib+vVV2dR8q+3roz7VOXC5ZD1V/fUC1Hz81P7ND/CmJu1cFxVpUbmqnqoeinbt5MNXv339sVT1NZe/oMB4fPVuyIICKRhV+XNypKj45hv5P1LuX/Oxycjw7lJsafHvSnU4tGsU0AIg2rUDTj9dWuG7d5fXa16e9rKkP1ZW14K342H1CGzLsbMSl1b7KCgw3ovq/KsXMkC2deraUtHJ+uvFvF/18gdYC3CzcJw7V/advvFGKbr9YRaAVhHVpO1ETAASEkt4s2roHyr+Gm/1kACMKR+C3b/TKaPyVPCIvnHVvxWrhlmVy8qozhxw9sYqrYl6qIfimgwU/XbM14zTqb14qAj2SGBONdOli2b5NNPS4t8yqfpLKvT36BlnSBGi+lEGc1zVfs3CyfxfldNqeiBYiV+re96bSNbXPTfX+/LmAJ/kZOMLmJUlsr7euB0VOLdkibQo+8N8HwRizSXBEzEBeO+99/qcf5eKjyfEBpgbIIWvB6MZ/VtrsALQ3B9RCb30dONbuV4Aqn5dvhrLSFlrSOswX3cqoAbwLmj05zTQTvb+0F/bVte5Ha6jtDTvAlClOPKFWQDqBWZamuzeoXJaBiNy1Tk079+qPKGOnrbah7drQt926I+DOt9KTJpdvGq+ugas2kpvARuq76yZPXtk0EmfPvK/2Xthh+stHonYYX399dcN/xsbG7F582akpKTgiCOOoAAktiKQh62/Rkkv+oJNlKvfvwpk0E/3JgABrcFXDXhysvE3sS/m6y5YARiqB6X+OrESEN6sXHZBJXX2heoOoaipMaZLUUEywVo4vR0bK3Gm784RLN4simYCaXv0y6hzr46flQUQ0Opplai5sdH6elX5B/XU1wNTpsj+0r/7ncz3Z058zwCQ8BAxAfjVV195TKupqcHkyZPxm9/8JlLFICQgAnnY+hNTektcY6OWNiTY/au0KIDW6KtvfSSg2rZaVr25q7QrxP5YWQDVufZ2vYVbAFpt0w4CsKpKWo68CSF/cYUq5ZJK+N2xY2gscsFYANsS+2hVb6vteRNP+rZj714tT5/ZAuhNAKpvlXdQT329dRtqVZbGRi1YbuVK2d3FXA+9hZKEjqgaVnNycnDvvfdi3LhxuPTSS6NZFBIkQsgGeNcubViheCIU1pZ27YAJE7TccyoiNtj9q5xxgNZnyFsfQEBrmJUAVEO+AfF3nuIN8/nRiwZv16Q53UYo8Peiow96sCMtLYFZAFNS5PB4Bw7I6OaUlLYPPabOU7gFYKDb8yYAhwyR/fH69DHm6QtWAJoT2wPGoSL1WLWZ+ms2PV1u17xPBoGEh6h71qurq7HfW8IyQiKI/mEWCgtgSoqMJmxs1MZuDRRvAlAv/gCjlVE19Gpd1YjSfRI7+BLogfRLDUcfQKvr1puVK5wEI5YCsQCqYIYjjpDLpqTI4xdoGhZvBNsHMNwuYG/tVFqadL2qaGp1ns0uYG99AH21f/rgJT3ma0kIYz9ONX65eZ/e8j2SthExAfjoo48a/gshUFlZiRdeeAGnn356pIpBEhA10HkwDW0oIi6dTm2sWTUObGv270sAWlkUrVzAJDbwFblqpyCQaFgAzaLA174DsQCq46ZGjfG3zUAJJgo4En0AveF0ytQ32dnyulHBZYFaAH1dq/q+q3qs2kyrF1oKwMgQMQH4sGmwwKSkJBQVFWHSpEmYMWNGpIpBSECEqsO9yqUVrFtJb+0xC0B9w2o1GoBZADLwI3bwZQGMVh9AK1EZDQFoFiK+LHyqy4UvwnVfRCoKuK0CENCyBuivO30XkgMHPNsudY35EoAqwbsZq3OmH9ebAjCyREwAbt68OVK7IqTNBNLfKpzCylcQiDlhtbd11cOFAjB28CUAI9kH0GwBND/MIxkE0tAgRYJ5SDKrESjM6/kiXKlFgu0DGEoLYCgG1FLnfsUKOQ6wfrQh/Xx/LmCrslidE/2YxOr6NZ9b5gEMDxEaxAeYMmUKDphHnwZw6NAhTJkyJVLFICFAjaWrAkAiud+qKrnvYPar1quqCnw9bw9if5aRUOEvCEShL6c5XYhqRCM1VBdpO62xAOrXCcc1Gc00MF9/Ddx6q/w2jzmrBIa3MvgTiHawALZFAFptLxR9MvXH5fBh4KefrOf7E4BW9VLWRDXEZEODUdgrsW8WimzDwkPEDutzzz2HOotcFHV1dXj++ecjVQxCAiIUQSBtwewCVpgtgHoXkmpQzX142HjGDq0RgHrCIQCj2Qfw2muB774DFi40ugoB/wLPX7eLcN2/weYBbC3hEoD+LKNt6QN4+LBso55+GliwQKafUUMzAsCrr8oxis3nzmpYS9J2wv5oqKmpwf79+yGEwIEDB1BTU+P+7Nu3D2+//TaK9QMyBsATTzyB/v37IycnBzk5ORg2bBjeeecd93whBGbOnIny8nKkp6dj5MiRWL9+vWEb9fX1uP7661FYWIjMzEyMHz8e27dvD0mdSewTyaS7/vbvcBgfKvqGVS8Ay8vlf3PZ6QKOHVrjAtYTqoAfvXjx1Qcw3FHASuSZxR/gXzz5E4jhun8jFQVs5U4NhQs4kCH0AN/XqjcXcF2dtOS+/Tbw7rvS+rd3rza/thaYNw8wJwbZvp0iMByEXQC2a9cO+fn5cDgc6NmzJ/Ly8tyfwsJCTJkyBddee21Q2+zQoQPmzp2LL7/8El9++SVOOeUUnH322W6R98ADD2DevHl47LHHsHLlSpSWluLUU081uKCnTZuG119/HYsWLcKnn36KgwcPYty4cWgOxR1EYp5oWwD1+09O9h4E4nQCM2bIfIMDB1oPtUQBGDt4u+4cjsByOIbD2mu1zVBYAIPpmpGU5JkLzl8Ahd36AIa6z55V/UPx+ArUAugLby7gpiajME9K8i3s8vKAiROlRdDf+STBE/YgkGXLlkEIgVNOOQWvvvoq8vPz3fOcTic6d+6McnMvUz+cddZZhv9/+tOf8MQTT+Dzzz9H79698cgjj+COO+7AhAkTAEj3c0lJCV566SVceeWV2L9/P5555hm88MILGD16NADgxRdfRMeOHbF06VKcdtppbay1PRFC9tsDZNJT4h07WQB99QF0uWTm/K5dtTFLzWVn8ufYwdu5CvQchuNcW20z0iOBWF3XKnGxtzL4Ewx2cAG3JQrYqo0KdR9AK1S756v9a2y0FqPNzcbt5+Zqo4BYccUVwODB2jjnJLSEXQCOGDECgIwC7tSpExwhbqGam5vxyiuv4NChQxg2bBg2b96MqqoqjBkzxr2My+XCiBEjsGLFClx55ZVYtWoVGhsbDcuUl5ejb9++WLFihVcBWF9fj3pd54QabyORk5gn2gJQf5vorT/mPoBJSbIc+jFL6QKOXbxdd3brxxnpNDAul6dYsqsF0JsLONR5AK3uaysBGMwQlN62azXflyA7fNi7C97s3fC1v6Iiaazo0ME46hEJDRFrVjp37oxPP/0UEydOxPDhw/HLL78AAF544QV8+umnQW9v7dq1yMrKgsvlwlVXXYXXX38dvXv3RlVVFQCgxGTiKikpcc+rqqqC0+lEXl6e12WsmDNnDnJzc92fjh07Bl3uUKOset7GxCStI5CUG3awAFqV05cLmNbA2MRu5y3SAtDp9BR0SgB6s3pFywLo7dhEIg2M1T527w7OfRqoAPS13OHDxvQu+un6aO6ffwa2bvW+nfp62eZS/IWHiAnAV199FaeddhrS09OxevVqtyXtwIEDmD17dtDbO/LII/H111/j888/x9VXX41JkyZhw4YN7vlmS6MQwq/10d8yM2bMwP79+92fbdu2BV1uEhsEMuxWpASgvg8g4D0NjNW6Vv+JfbGLBdCf4Iz0UHAul6dLUQlAb/3e/AUN2CUPYGvxtb0+fWT/uQsu0Mb5DZRQRAE3N1vvc/t24C9/0f4/9BDwn/94305Li/9gHtJ6ItaszJo1C08++SSeeuoppOrMKMOHD8fq1auD3p7T6UT37t0xZMgQzJkzBwMGDMBf/vIXlJaWAoCHJW/nzp1uq2BpaSkaGhqwTx9/blrGCpfL5Y48Vp9Epq5OpmiIx865vjrjK6KRCLqlRWv4vT2k6QKOXQI9p9EmGi5gsxBQYsebiIqFkUDCZQHs2hW4/35gwADjOL+BEGgfQP1yhYXGZRoaQmO1drnCm2810YlYs7Jp0yacdNJJHtNzcnJQXV3d5u0LIVBfX4+uXbuitLQUS5Yscc9raGjA8uXLMXz4cADA4MGDkZqaalimsrIS69atcy9DfHP4MHDffcCNNwKvvRZ/IjAQARiNRND6PoCBJKs2b4vYm9YEgUSj60ckgkD0As7p9BR0ShB6E4D+rGt2sQCGIxF0aqoUZeoTTABFoBZAfTtjHpKyudl6mMpgKSwMrv8iCY6IDQVXVlaGH374AV26dDFM//TTT9GtW7egtnX77bdj7Nix6NixIw4cOIBFixbho48+wrvvvguHw4Fp06Zh9uzZ6NGjB3r06IHZs2cjIyMDF198MQAgNzcXU6dOxfTp01FQUID8/HzcfPPN6NevnzsqmPimoQH46iv5+913gbPPjm55Qk0goimSFsBgBCBdwLGL2fUfbDLvSL2IRUIAmocIC9YCGAt9ALdsCc9QcMnJUvTpg8MCJVALoP6aNIu0xsbQWADZ9y+8REwAXnnllbjhhhvw7LPPwuFwoKKiAp999hluvvlm3HXXXUFta8eOHbj00ktRWVmJ3Nxc9O/fH++++y5OPfVUAMAtt9yCuro6XHPNNdi3bx+GDh2K999/H9nZ2e5tPPzww0hJScH555+Puro6jBo1CgsXLkQy/WUBYW5UfL01qnxfDgdQWmq/Du1WBPLAjVQUsLcgkED7i/GSjk1SUgITgLpmDbt3R+Z8R8IFrE8Q3NQku5zoaWqSIs+b0PPXdyxc7ZA6/oFEAa9b13pPgq+0Mm156WtNEIj5edDS0rYUNwBfXCNBxATgLbfcgv379+Pkk0/G4cOHcdJJJ8HlcuHmm2/GddddF9S2nnnmGZ/zHQ4HZs6ciZkzZ3pdJi0tDfPnz8f8+fOD2jeR6N/MHI7YytEkhIxE8yVIvTU+/iJwQ4V5JBCrIJBAXcAUgLGD/rynpGhDYvm61saPBzZsAE44IXId5iMRBKIfI7a52XN4sLo64PPPZT9kK/wNBacEZKgJxgIItP6cWQnKUIz/7a+9UNvWL2flpj10SPtdWChH+bAa0cXffkj4iJgABGTC5jvuuAMbNmxAS0sLevfujaysLNTW1iIjIyOSRSEhZs8e2cDFgnXPG/6ia82E090WSBqYQF3A+noxVZC90Z9TvYXZ1/WYkwNMnQpkZEhrUrxYAH1dx4AUeI8+6n19fboRK4QIzcgZZlS5zdsORCwHczzVsh07AiohhZrWlmvAn2fDKgjEyoqpt9hedZW0VD/+uHR7BwIFYPiJ+CHOyMjAkCFDcOyxxyIlJQXz5s0Lug8gsReRSgURSQJJA7N3b/hEYCBDwQUqAPWWEIcj/gJ24glvQUa+HoZOJ5CfL5PmBtvhv7VEog+gv2EXhQjOomTmwIHwiOVgLYDBLmNeVn++/XUPCYTW9AG0uuZUOzN0KNC5M9ClC5CVFXg5KADDT9gPcUNDA+644w4cc8wxGD58ON544w0AwIIFC9CtWzc89NBDuOGGG8JdDBJGEsmq1KePHHN3/Pjg82sFg7kPoP6B2xoL4Flnycb38svDY/UgoUF/7gIVgIB8AGdkRK4rhi8BqJLT79rVtrZBL4aE8LzXkpKsXY+BCod9+8JzvJSACrcAVNvXXyfqGIXTAhhIH0BAc0dnZMgXk6ys4CJ6KQDDT9hdwDNnzsRf//pXnHrqqfjvf/+L3/72t5gyZQo++ugjzJkzBxdffLEhLyCJPcJpARQCqKho+8MkVLhcwLXXyrfb2trwBoIo9A1hU5Nm9Qi0D2BqKjBsGHDaabKhZp/A2EB/bUXzYWhlMY6EC1jfrlgFFTQ1SXFh7uuXkhKYldtqdJFQEEweQDOtEYD6+znYqHErWpMH0EoAqvOSmqrND6a9pAAMP2F/fP3rX//CwoUL8Zvf/AZr1qzBoEGDUFNTg/Xr1yMlEk9PEnbsIMz8oawSQsixJVuL0ynfZhsbpQspUu429VD58kugXTv5O1ABmJMj65ydLRtgfedsYi/MQSCKSPet1QsRq8jiSAhAvaXaygKoBKApnz9SU43CzuGwLuc554THGu7t2ARyrFrjAtZfM5EIArGKNLay7FkFMAVj64nl/uSxQtg19rZt23DMMccAAAYMGACn04lbb72V4i+KqLQsFRWhacBjQQB6Q1kYfQwB7UE03G36RnTpUvkdqAtYvYFHssykdXgLAom0NWTwYPmdlydFhVkoRSIKWL/t5mbPod3q64HMTM/1zI+W0aOB9u2N0264QWYACIc1PNJBIPr6hsIF7G/dffukwPZnAVTnq7XJ82kBDD9hV2GNjY1w6q6O1NRU5Obmhnu3JILESxCIXYWs3gKohyOBxB+t7QMYas45R1qMO3e2jiyORBCIuQ+gOV1KQ4N8qTGjP25ZWcAppwD9+gHz5slp110HdOsmreLhSJvTliCQYCySVi7gUOQB9HZOU1NlsJHq++xNACqLq7IA6pcLplxst8JPRMxwd911lzvNS0NDA2bNmuUhAuepu5PEHHYVTr4QQrq2Kirs72pITrZuDANNBM2GNHawiwUwPV32GVUPenO3gWj0ATTfpy0t1sON6Y/bpZcCBQXGcnbqJFOnOJ2e7uNQ4G0ouECOVTDH08oFHKogkOHD5ffHH2vTH3lEy8eYkuI9D6DLJa1/ygJoTmkVKGy3wk/YBeBJJ52ETZs2uf8PHz4cP/30k2EZh92fwMQn8WIBtGs9gh0f1tz4M+o3dvDmLotGE+l0yo8QngIwEhZA/XXb0uIpCA4dsk72rD9W2dmyD6w+J11mZni7QkQqDYwi1EEgKSnA5MnS0qcXgOXlxr7P+uOsP55OpxR/6tzolwsmCpiyIPyEXQB+9NFH4d4FiTK+HgKqv+HevTJPmZ2xqwDU5wHUE2gfQOb9ix3sYgEMlEhZAK36ADY3W7/c6K/3zMzIW8S9WQADFYCBCh9fFsC21NHplMfNHHTjdMqXEiXs9OdeL+yUGLQKAqEAtBeMxIhzVJCD+h0O7CqcgsWu9TAHgeine1teT6SGByNtJ1YEYKT7AP7yC7BokXG+N8u2Xrikp3sGhYQ7/tDbsQnUBRyo8NEnfVb97kLhAgY0668v9OdHL+zUvq0sgIwCthc2a1ZILBKLfQCtsKsABKwFQKAWQArA2MFbEIjdHoaRjgK2or7eOBxaYSEwaZJRABYUeAqZcCVvV7TFAhhMdw39iEBqn6ESgMHsHzAeYyWwrUYlYcpfe0ELIGkzFIDhJxgXsNnCQQEYO7RmKLhoEAlB6k8MHTyoLXPSScCxx8rfekuhEib6e6CmRrqJw9UPMNKJoJWHQO8Sj8T1om/39YLT3P60VgDGy3PFztisWSGxiJ2FkzeEAPbskf0TVUMTa8EStADGH7HiAlYP/HCPAuQLfX7C7GwZpNCxo/X1npOj/W5qCq8VsC0CsDV5AB0ObZ+h6AMYKPr66PdnjszWzwvmxYECMPzQAkjaTLzcqHYWsm1xAVtFShJ7EisWQEWkooD97d/lkjkBhbC+j4uKZPLnpCRp+QtnP8C2jAXcmjQwegGojlkkXMD6snpzBwPWI5UQexAxAbhgwQJkZWXht7/9rWH6K6+8gtraWkyaNClSRSEhpjUPASGAykrZcKj1VcSwwyHf5qM5/JXdsDoW3kSBufGvrWUkcKxgl0TQ/tCXJ5jAhWDw166kplonQ7bC6QRGjozMEI6RHgouXH0AzW1GQ4PxmtTPr6nRfvtyAQcjAO3W7zUeiVizMnfuXBQWFnpMLy4uxuzZsyNVDBIGaAEMPebGry1pYI49Nvbc24mKNxew3R6G+vKE677xd83qrX2BCORIDYfoLwgkP19+9+vnuW5rjqV+pKBQuoAbG4GxY+XvSy7xdJuXl2u/9fPM/fys0tQEgt2u+XgkYhbALVu2oGvXrh7TO3fujK1bt0aqGCSCNDTIZK3Z2dEuSWDYSQCaRXUwjaF+2RNPlB3kI+ESIm0nVvoA6ssTrvvG33b13gM7HR9/fQCVsys1FVi71rhMa13AZtEZivs9NVUOozd6tOxDabbs9e8PXHQR0KGDUdj5sgCaczmS6BIxAVhcXIxvvvkGXbp0MUxfs2YNCgoKIlUMEiEOHwZeew3o00daoGIh/N9OAtBMMC5gPf37y/5P5pEciD3xNrqCnQQOYCxna7uA7Nolf3tLEO/tfkxOltbBpqbQCp5Q4S8PYFER0L27DEIz05ooYKu2IRRCy+mU1srsbNl+q1Fh9PNHj5bzN2zQppvben35undve7lI6IhYs3LhhRfiD3/4A5YtW4bm5mY0Nzfjww8/xA033IALL7wwUsUgEeK994DFi4EHHpCWwFjo/GsnAdgWF7Aelyv8Li8SOmLRAhjpBPPquFilPdH3S0tNjU7fV38WQOWK1rtQFcF01dBbPw8eNM6rrg5N3f25zdV8vejz5QI+8URpNbSTYE9kImYBnDVrFrZs2YJRo0Yh5dc7uKWlBZdddhn7AMYhW7Zov9UQQnbHTgIwEBewN1Ggb/gPHmQASCwRa4mgAd/3jTmwKxh8CcD6eimWzEEgjY1Ap07A1q3AccdFp++rvz6Aan5yskyZoh+nuLUuYDMpKeFPeO0NXy5gl0taDZctk9cFiS4RE4BOpxMvv/wy7rvvPqxZswbp6eno168fOnfuHKkikAiif8MrLo4NF6SdBKCZYNLANDUBZWWyge3RI3oPAhI8sZIGpq0u4EDw5QIGpLgzi6rUVGDKFODnn4EhQ6JjafIXBaw/lxkZrReAvvo/ZmdrQjnS+LIAAtIgYLfrOVGJeB7Anj17omfPnpHeLYkw+hu8pka6JCyCwG2FnQSgWdwFIwBTUoC77pL9gLKyovcgIMGjP890AVtPVwJD7wJWQs/plMmge/eWxy8aL57ekmRbWewyM419AUPVB7CkRB6LaNTflwVQES+ZI2KdsArAm266Cffddx8yMzNx0003+Vx23rx54SwKaQMqZx8gLUuBoG+UzC5IIYCKCmDHDu8dwM00NMiPPqN/qLGTAAykgfQmAJ1OIC9PPhxTUuQDMxYssCQ2LYCRjgLW9wG0soKpfmlAdK57Kwugt1EzVDkVwbyo+XIBZ2UFvp1wY1U+CkB7EFYB+NVXX6Hx197/X331ldflHHbr4EJCSm1t29Y/fBh4803g5ZeB3/0OuOKKwIVoMNg5V16wQSBOp3dXFLEv3qKA7XYOI+EC9nY/6gVgMHkAI4VVH0D9MdKXdccO47rBBMv5sgBGOvBL383EHIHc2nNDWRB+wioAly1bZvmbRA4htEYmUGtbKNBb/Q4dkq6Otmzr1VdlQMPDD8tOxKZsQgGhUk8I4fnQ2rfP2IhF2xrYFhcwiV3051R/zuvr5X1gl4juSOQB9CYslWVUnwbGjgJQX369mFXnuKFBBsbs2+c5LxB8CUCXK/DthIL27b3PY8SvfbHRbUNiCXPjrN76Ghpkg7Z/vzavrW4Yp9PoGvnuu9D2aTt8GHjsMeM0O1tcFHZ66JHQoD+nasQIANi2re2W9FDS2j6AKipYvYj5wpsFUN/Hzs55APXCWF8XfcTyuHFytA3lCg5mjGJfQSCRzrpQUADcf7/8+MoDqLBb+5qohNUCOGHChICXfe2118JYEhJqzI3zrl0y8uyll4C33zZa0/QCUPX/W7dO/g8kMGTfPmOknBrQXT+tLTQ0ADt3GqfZrYGiBTAx0J9TvRXn8GH5UmXuMxYtotkH0MoCaEcBqG9DrFzAqamy/Rs3Dli1Sgr81o4FbCbSbYPTCfTsKUWtatsVfFG1L2E9Nbm5ue5PTk4OPvjgA3z55Zfu+atWrcIHH3yA3NzccBaDhAFzapEDB+RD6uOPPef5s1zU18tlvOWr++474/+MDCAtLbjy+sLp9HyANDbaK3+eHRp5En7MfQBnzJDWlfPPl9PslNIn3NdfIEEgdnQBWyWC1r+sqvlqpI2iIk3UhioKOBpYJYUGAo8CTk4GLrggPGUj1oTVArhgwQL371tvvRXnn38+nnzySST/+rRtbm7GNddcg5xwhnaSsGBuqFT/pAMHPJetqfG+ncOHgeeeA5YvB/7wB+t+iubGwsq9YY5UDqZRTEvz3Ga/fvYKCqEATAz05zQ5WQ6j2LUrsHu3vEbtlNLH4ZD3XbjuE38CUD8WsB0tgKr8P/8M3HijNl8v4pVoUuUPVR7AaBJIGhgrJkyQ45a//LL8z/Yt/EQsD+Czzz6LTz/91C3+ACA5ORk33XQThg8fjgcffDBSRSEhwNw4p6RIoWf1MNi1y7s1raEBePpp+fvdd4G+ff3v29ygKPGnMssLITtXWzUgVVXA6tVySCI9atnTTpOujL597fNQaWigAEwU9Ne2wyEFguomUVgYvdxuVoQ7yjwQF7B5KDg7oD8utbXAiy/6j+5tzbH05QKOJuZzEagFMDs7soGKJIJBIE1NTdi4caPH9I0bN6Il2iGXJGjMrqjDh4Eff7RetqZGDv3z5ZeeKQL0UY1791pb98yi0rzvQDuWNzQA11wD3HmnfMvUi1J1CZaWyrfQoqLoRlzq67x7t7WwttNDj4QevaswPd0+EcAKq75uocTfSCB6C6Cd7gW9IPvTnwLrX6zWae1YwHbC/OJsVb5Rozynpabap49rohAxC+Dll1+OKVOm4IcffsBxxx0HAPj8888xd+5cXH755ZEqRkywe7cUTElJwDHHeM6vrJRiR9/QVFVJYRSp7pTmxvnQIUCleszKMnZo/vZbad174QXg5JONDYS+L19Tk3X6AnOj2Nq+eY2NmgBdtQoYNMhzH8olI0R0LS2jRgH//S9wxBGy3FYPQ7u9+ZO2oz+ndj+/Vn3dQok3MaSEsN3TwAByTGIzanxuvaD3Nn6wL2LFAmhVp/POk6ljKitl4CBgv3okAhETgH/+859RWlqKhx9+GJW/dtYqKyvDLbfcgunTp0eqGDHBrbcCCxcCI0cCnTsbBdOOHcBFF0lRcN11WrDC7bfLG2rePDkMECAtb9nZ4SmjuXHev1+6VgHg9NOlu+qjj6T40w/6XV9vtPLpt3PokNa/Sbl1hfB0n7S2I7x+v8nJxr4qdnubHjgQmDNHiunUVGvLKBvM+MYu16I3wu0C9rZdqyAQu3TXAHzflykpsj1rarIWgK05lnZrB8x9AA8c8BS8aWnA8cdLQ4fCbvVIBCImAJOSknDLLbfglltuQc2vUQEM/rCmf3/5/csvMgXKp58C3bvLN8fZs7Wo2ieflONelpbKRuXnn4EtW2Sn8TvvlFauhQulCNRb1hoa5LbM7lgz9fXSfZGX5znPLAAPHNAsZr17SzH67bfyoxdsLpexsdYHjWzYAHzzjdyffqSPUAlAfQNkdqnZ7W3a6QR69ZJ1TU6W14IZu5SVhA69ALD7+Q23APQ3Eog+D6CdxLIvMaqiZM0iqTXWVLu1WQrzuUhO9hS8gPyv9wDZ6RwmChETgIpdu3Zh06ZNcDgcOPLII1EYSCK4BGPYMPm9ZQvwyCPA+vXSFVhdbRw4vK5OpkjRp0lZvRo47jhg8WL5/513gHPOkdbAQ4fkNh98EOjQAZg1SwZLpKd7luHwYWlN/Pe/gWeekdZI/c1qbpxrarQHQbt2sg+d0vd6wdahgzHzvTlq+OGH5TL6kT7M+/LXoVrlGnQ4pDiuqPDsH2hugO34IHE65UcI63LZqawk9Nj9/EbLAhgreQCtSE+XL+RmMdQaC6DdvBYK87nIzvae4Noc9EQiS8QunUOHDmHKlCkoKyvDSSedhBNPPBFlZWWYOnUqau2U4t4G9O4tG4iGBin+ABlgoRd/3ti1y2jtS0qSDWZDg0yzctVVclvLl2umeSsaGqT4A4CZMz1Fl1mU6UVdSYkmXsyY8/eZBeD338s+kKpcQnjWWwnKH36QVlD9vluLXd+mFYwCTjzs9mA3E60+gEpg6Ofb6Vj5ui9HjPCd1D2W8wAqzAKwfXvvAUz6Y2Gnc5goROyQ33TTTVi+fDn+85//oLq6GtXV1fjf//1fLF++nH0ATTQ3+x871+UCzj7bc3pjo+w3psjJkcs2NgJr1hiXVSNqWKGf7nB49kGzygOoUJFcgUQtKgHYrp3WcBw8KEWgauCsLIA//QSceSZw333AzTcb+w5WVcmPGvO3qkqKSG8Dsuv3YddGiCOBELsRjihgdb/u3Ok9CEu1K/qXUjtZAM1t45gxwGWXyb7bJ51kXda2BIFYtQ3RTGJvrp9VFyJFLAU9xSMRe9y9+uqreOaZZzB27Fjk5OQgJycHZ5xxBp566in8W5maCAAp2Kxu6oIC7XdyssxZZyY52WhlU8LNKoigQwfvI2rop6ekeC7na7QPta9gBGBmpuYmKC72jA4271v1YwRktKw/t7A/7JhQVg/HAk4M9OfZ7uc3WnkAVTthVwEohHw5TUqSmQZ695a5RceMkV1urNpFdSwbGnyPimTeD2B9nPRelEijPxcOh29jhv4aN59DCsLwE7E+gLW1tShR4ak6iouL6QI2kZZm7DMxcqTsA3jwoJYlPSlJ9q1Q2fgV3twmVgIw0JxLVjeiudFRjXFyslYmq4bOvJ4ScenpWgPgzTqnMHcoVhbKYMYG9paqwK4PXTaGiUEsBYEooiUA9djpvk1JAc44Qwbz1dbKF+2OHaVnxl96qccek8P+jR7tf5x0vQC86SbZ33vfPukZUpHG0UB/LrwZMxS0AEaXiAnAYcOG4e6778bzzz+PtF/NO3V1dbjnnnswTEU9EDf6t6FOnYChQ43BHupmUWkFFN4ie60a07Y0EObtqf3qG2ernH7mt1IlAJ1OraEwCz4rF7DeQuhwGINQAsHc2MSiAGSDGd/YyaplRWvclsHgLwhEj52OldMp3Z65uTJwr7zcui1UNDQY27h//Uv2Fdy2TfaJPvlk2YUlJ8c6c0FKCnDUUTJl2IEDcno0hw3UPwOsAgz1UABGl4gJwL/85S84/fTT0aFDBwwYMAAOhwNff/010tLS8N5770WqGDGDXoikpXmmLVE3S3KyUQCarWBKGFlZBlsrAIWQ+Qj1KAGob4itLIBmV211tfx2OLQ6mctlZQFsq6XEmwXQro0QXcCJh12vRUW4g0CCsQDaSQACxgh+f11hGhutrX3/8z9aIOCyZVLk3XijZ11TUuT6ami8mproDhvoLdG/FbHU5SEeidgh79u3L77//nvMmTMHAwcORP/+/TF37lx8//336NOnT1DbmjNnDo455hhkZ2ejuLgY55xzDjZt2mRYRgiBmTNnory8HOnp6Rg5ciTWq5DaX6mvr8f111+PwsJCZGZmYvz48di+fXub6xoKrN6MrKaZG0NvFkArARhovzmrN3Fz46xEmz8LoHmfqrx6V4G/tC9WfQLb6oayex9ABoEkHnY/v9EeC1hPLIuH1FTp5VG4XNLap7wlKlnyxo2yLVTto95roUYwysqK/rCB+jbU5fLdF5FRwNElonkA09PT8bvf/a7N21m+fDmuvfZaHHPMMWhqasIdd9yBMWPGYMOGDcj8tcfpAw88gHnz5mHhwoXo2bMnZs2ahVNPPRWbNm1C9q/DY0ybNg3/+c9/sGjRIhQUFGD69OkYN24cVq1aheQoKwGrNyOrmyVQAWjVmLYlcCKQt3Orhtq8T/0YmKpO/iyAgeQB3L1b/rbodgqAUcDE/tj9/IbbBRyoBVDvPYhFnE6Z6F+RnW3ddgJyuno0xUIamJQU2RZ7G1vdlwvYbvWKRyL2uHvuueewWGUnBnDLLbegXbt2GD58OLZs2RLUtt59911MnjwZffr0wYABA7BgwQJs3boVq1atAiCtf4888gjuuOMOTJgwAX379sVzzz2H2tpavPTrwIP79+/HM888g4ceegijR4/GoEGD8OKLL2Lt2rVYunRp6CreSgJ1+Zl16uHDgff3C9QFbPWG7y9LPxBYH0BVz/R0Y4JXX/tqajIOL9ca9MdXiOimTWgtbCBJPONNAJrbQbu+tAXDkUdqv5OSvNdJuXaB2BCA2dm+A1LMEcN6wmVZJhoRu3Vmz56N9F97hH722Wd47LHH8MADD6CwsBA33nhjm7a9f/9+AEB+fj4AYPPmzaiqqsKYMWPcy7hcLowYMQIrVqwAAKxatQqNjY2GZcrLy9G3b1/3MtHEytpnZRW0EoD6m+3AAZkc2psLuKJCfoK92bxZzMzmf6t9Wm1HPzySleDz9V8hhKyredQPK8zlpguYkOCIVhAIYHzRjAcBmJEh85kC8mXU28gZVkEgdqu/vjz5+dZD3yl89QGkAAw/EXMBb9u2Dd1/tXO/8cYbOO+88/D73/8exx9/PEaOHNnq7QohcNNNN+GEE05A3759AQBVv5qHzGlnSkpK3NbGqqoqOJ1O5JmyVJaUlLjXN1NfX496XViVGtM4HATaB9DM4cPWYi9YF/AXX/gun9peWpoxByAgGzBvLozGRmNkmL4Rs8rwb/W/pkaKvFBi18ZUwSAQYjeiFQSSmiqFkHoRTEqSbU40+721FadTRgsDso0MpC6xYAHs0sVotTRjFoB6T0xzc2x6ZmKJiD1CsrKysOfXMb3ef/99jB49GgCQlpaGumASuJm47rrr8M033+Cf//ynxzyH6c4QQnhMM+NrmTlz5iA3N9f96dixY6vL7Q8rC2Ag4yaGwgV8+DAwYYL235cL2GzlUwN/q99mfvlFG6VDvx29AAzEBdxW4iEPoN0afpJYRCoI5FfHjmG/+pdIhyO6iY9DhRo7vaHB+8u5vm23a5ulvx6KinwvazZqNDbKHIppacCll0Yvl2GiELFL59RTT8UVV1yBK664At999x3OPPNMAMD69evRpUuXVm3z+uuvx5tvvolly5ahQ4cO7umlpaUA4GHJ27lzp9sqWFpaioaGBuwzDSSrX8bMjBkzsH//fvdn27ZtrSp3IPizAHq76VtarBMiB2MBNOeOslpXbwHUk5ysmfuDcQHr+734swCGolGIhzyAdi0rSQwiFQRy2mlAWZk2XQijAFSpsGJdLKg6NTZ6elUU+rbZrhbAlBSZyPrMM6Wo9XVezIaO1FSZ9/DBB4Fevby7jkloiNgj5K9//SuGDRuGXbt24dVXX0XBr+OarVq1ChdddFFQ2xJC4LrrrsNrr72GDz/8EF27djXM79q1K0pLS7FkyRL3tIaGBixfvhzDhw8HAAwePBipqamGZSorK7Fu3Tr3MmZcLpd7GDv1CRdWYi/QpJkffOA5zVseQDX2ZkWFbHArKmTSUT0tLZ5v+d7y5rlcmrnfaqQRc2MQiAvYn0UwUPQPKm8dju3WmCpoASR2pa0WwPp62a3DnMFA/5I5apQ23Tw0ZXKy735msYK+vVT5Uc3oX+7t2malpMjRTM44w/95MXu1nE5p8S0p8e06JqEhYrdMu3bt8Nhjj3lMv+eee4Le1rXXXouXXnoJ//u//4vs7Gy3pS83Nxfp6elwOByYNm0aZs+ejR49eqBHjx6YPXs2MjIycPHFF7uXnTp1KqZPn46CggLk5+fj5ptvRr9+/dzu6Whi5e71ZxVMTpbi6H/+x3N7wVgA/SXvBLTG2tz46/8nJXkOVbdjh/FtXok5h0MTgL6shC0t1oJwzx6Zfd9XY6gXjvFgAbRbw08Si1C4gL//Hli0CJgyRQqF9u21eWq7qalGi5/TaWyj0tI0sRDLgQNOp9aGmxxTbg4f1o6Fqqvd2iynU47/29QkgxB9iTir55zKaQh4t4SS0BBWAfjNN9+gb9++SEpKwjfffONz2f79+we83SeeeAIAPIJHFixYgMmTJwOQaWbq6upwzTXXYN++fRg6dCjef/99dw5AAHj44YeRkpKC888/H3V1dRg1ahQWLlwY9RyAgLXYs7pZzILLbB0z97XTo58mhLT+7dwJFBf7L5/V0G9W+9H3CQQ8xZu+EdPnAayqknUsLta26XR6RjkHg14ECyEbF+VSsbsAZBQwsRvqmmyL6LrzTikStm4F3n3X2I9P72Uwj4KkF4B6r0Osk5YmR+/wFuRmJQDt2A6okVD8DUXHkUCiS1gF4MCBA1FVVYXi4mIMHDgQDocDQtdaqP8OhwPNQfj1RAAtjsPhwMyZMzFz5kyvy6SlpWH+/PmYP39+wPuOFIFaAL2tozh82HOsSUVbOk2rdc0C0Gy98ycArSyA3voAKgHYWhewfr2XX5YNaX6+FJl2fZtWsA8gsRv+LIANDVIA+Oopc+CA/P7lF08hp38pM7eHeougt4wDsYaKZD50SB4PK+rqpKcDsP9LayBwLODoElYBuHnzZhT9Gga0efPmcO4q7gi0D6DZBWxm4UKga1frQbl37wYqK6X7tKXF+6gZVigLYFaWcbpZ4JkHJPcmAJOT/fcBVA+H1loAzdtduFB2MG9stH9jShcwsRu+gkAaGoC//hX473+BBx4Afo3LcyMEsHKl9j8rC+jQQYrAw4eBzz7TRJDqSqJITjZaAOPF+tfYKBMn79vnOda6Qt9P0s4WwEChBTC6hFUAdu7c2fI38U+gQ8Hp8XYDPfss8Pvfe05vy0ggBw/K75wc4K67gHvvlf+tXMB6zBZCvZsnEAsgIB8urbFeWlkOnU5pQbC7AKQLmNiVJUtkvjf9y2BDgxaMtngxcOqpxnVefx14+mntf7t2UtTV1QHz50sLvUII3xbAeBGAqanSurd1q3cX8MGD0kJYWam13+GKwo4Edm1vE4WIxk1t2rQJ8+fPx8aNG+FwONCrVy9cf/31OFI/Dg4BEHgfQD3ebqbaWuvlvblSzYKvuVn2ySsp0UYNOXRIzsvKAgYO1JY1N0ZmAejNAmgVBawilFVHYNXQ19VpY/0GijfRWFwsHzyx6AKmACTRRF1/K1ZIy9Ttt2v38N692nLqJUvPm28a/6eny7YlPR34+WfjPLMATEqKTwug0yktpWvWGI+fnvfek8d9zRpt2sGDsZsIO5DctiR8ROxx9+9//xt9+/bFqlWrMGDAAPTv3x+rV69G37598corr0SqGDFDqPoAArJRtprnzQIYyBulsgBmZhobHvM2zQLQLDrVvvRl9JYqRj1EhPA9iolCBbb88gvwf/8nLZVmVK5CfTnsCAUgsRv6NmX1ailC1L37/ffaPHMkZ329Z5qT3Fz57XJ5XtcpKb4tgLGe/kWPCsDbudN6/jffGMUf0LbAuGjDNiy6ROzWueWWWzBjxgzcq3yFv3L33Xfj1ltvxW9/+9tIFSUmCKUL2OHwnQZGjaGr3rS9RerqUQLQnOvPLPDMjXMgQSDexv5VYq2+PriO3w0NwN/+5nsZb3kN7QKDQIjdMF+TKo0JYBR4+/drbU1NDXDbbZ7WeJWcIS3NM4G80+nZHurv/5aW2LWAmVFCWFFcLK2Ce/cC27dbr6P6cMcidm1vE4WIPUKqqqpw2WWXeUyfOHGi17F3ExkrC2BrrIIKf2lg9Fg1Jsodq4ZxU2/1/gSgPxdwMGMBq305HDLvV6D89JP/ZWKxD2AgVlBCwoVexCmr3I4dUvzp7/Pqau3+WrAA+OQTz201NXkmgla0tPh2AaekxK4FzIw+RyoA9OghR9WYNAkYOVIe46wsLRI4ORk46ij7tlv+iNVyxwsRswCOHDkSn3zyCbp3726Y/umnn+LEE0+MVDFihtaMBOLrZvI1PrAQ8g1TCGPePYWVBVD1AczMtN6mwpcFUN+X0BwEojpBFxR4DjvX0hLc277ahxXqIWZ3AWhFdbW0xJrPAYkP7G7V0o+EKQQwZw7w6adA797GXKL798v25fBh+duKujpp4erc2bOtOnTI6PJNStIEECAthvHiBu7USQq9DRtkYE2/fnJabq4cV3foUBkk4nJp9e7cOXbrr29vYzmJd6wSsctm/PjxuPXWW7Fq1Socd9xxAIDPP/8cr7zyCu655x68qesVPH78+EgVy7b4S/kSrAAMxAKoXMHeGmk9Kn+Xy2W0BLRrJ/8rF43ZAlhdrYk7/Sgh5kTQeswu4GAtX74alp07gY4d7R8Eoj9XWVmywe/UST5UKQDjh/x87ffu3dLSbcc8dw0Nsqz6YIVPP5XfGzbIj+LQIS0Iy1tdhNDmWfUTNg/jqBeAOTn2FsrBkJkJjBkDnH66PCZpafI+d7lk21pYKF3CylVcWyuthrFaf7qAo0vEBOA111wDAHj88cfx+OOPW84DEHRS6HgllEEgDoe1APTmcvEVHbx7t3xbV30AGxpkA/+738mcX7/5jRRs3gSgN/euLxewavyVFSBYd4+v/jGbNwN9+tjfAtjSAlx4oRTnTqd8EHToENiwfSR2GDwYOOUUoH9/+aKjv5fsRGMjMHkysG4d8N13npG7epqbtZEhvN1fqanaC575/jdHESclGbueWOU4jVWcTpltITtbvuQdOqSJO3UchNAE8L59sSv+APu2t4lCxARgS6z2Uo0SoQwCAaxFnTdLmj/93dhoHArO4QB69pTpYJxOozvCXxBIMHkA9RbAYNwFvgSj6lxt96SqKSlSGNTWSqtl+/ZSBGZl0XUSTzidwNixUuCkptrXtZeaKvuede4sLVN6AZiba/QitLRIK1Vamu+XVP3yevLyjALQ4fA9ukisox8L11f3lXiAAjC62LR5Ia2xAPoSL6pB7tRJbvvnn71bxvwJwNRUTVSlp8vGKj9fvrWmphoHZTdbAM3Rf/r0K/5GAlEPQ/3IHYHgy2VcVxcbiaD1A6xnZ0srgV3FKmk9Tqf3e8lOKCt0U5MUgQqHA+jbV3oDFM3NmqXa2/3V0qKlbTJ7JszC0WwBbMuQliS6sA2LLmF/3J1xxhnYr3sd/NOf/oRqXY6APXv2oHfv3uEuRswRaB9A/RBLvkSReoikp8s+b77wJ65cLk2kFRVp7p2MDE93hFkA1tRYD/juzQVcX68tr4RgU1Nw4wH7ekAcPCjd2t4Eq53wdoxJfBEr51mV0xygoVK6KPR9+Lw98PVtjrn9MYtGh8O4nbq64MpN7AMFYHQJuwB87733UK8bDPb+++/HXl3P4aamJmzatCncxYg5/I0Eon7/7nfAoEHA9dcHlgZGWRUAKcZU/j+rZRVWFgglxsxpYMyY+y+pZLFCyPxV6m3fWx5A1Q8K0CyATU3+RaoKaKmq8m0BXLsWuO46rY7xkk6CkEhhbnesXqLUPeitjdK3MYEIQP1LnfmlksQOgaYxI+Eh7C5gYVIP5v/EGn9pYBRlZcDVV0srljfrlT4RdFKSJqS8WdH8iaCWFs/xeb1hVSZ9vyZ/LmC9u1lFvpktgP4aDl/1+ewz439enoQEh/nF1Oqe1wd7WaEXfVbJ5PUCLznZ+FLXvr28x+1uMSW+YV7TyMM+gDbFXyJo9Vv1xVG/vaFvgNW6wSSCVqh+Ogp/EYrmh4G5X5O/IBC9u1m5u81DwVmJNpXbUI0SECh2jLgkxM6YrThWgSvqHmyNC9jchqiRQO66C/jyS+Dkk+0bLEN8o2+b9++nJTfShP22cTgccJjuevN/4kkwQSBOp+yH46v/mt7S5s8C6M+9qr9J/Qkmc8Ns3rY+/563IBC1v3bttGnB9PsJ5s2SaVUICY5ABGBbLIBWLmCnU2Yd6NBBvgDT+hebNDUBQ4ZI8de5M7vgRJqIuIAnT54M1685PA4fPoyrrroKmb9mr9X3DyQarUkDE0gfQL0L+PBh6+Ss/voA6m9Sf2/eZlFqFmNWlknVR1BZ8NQ6+oTHwVw2wQhAu0YBE2JXAhGA/voABmsBBLQXX4q/2CUlBfj977V8lykpwbXtpG2EXQBOmjTJ8H/ixIkey1iNEZzoWIk9f4ZTXzm29JY29VtFwBYUGJc3N8AtLcC338p8XPoO2MnJ/gVToHkA9RbA2lqtjM3NmkhMT9fqok8V4c9iGcxbJQUgIcFhFoBWngh1D3prwxoaPLuFKPyNJ05iF5XeqrlZPitSU+M/96GdCLsAXLBgQbh3Efe0dSSQ7du1kTuSkrR1VWdqc4MaqAUwkJQprRGA+geA/m3Q5ZINREODcbo/AUgLICHhw9xdxZcF0Nv95SsKWB8gBsjRL+j2jR+cTu2ZxCC8yMKuszbFXxCIv3XM6IZadjechw9bm9395dgzp2XxhVmoKuuhEMDKlTIVjFrOKjjFLABVRGAoLIApKZ7zKAAJCQ5zdxWrdsGfBdCfCzgvT46Qkpsr2wdG/RLSdigAbYq/IBCrN6VAxIvqQA1I8acGm9eb3QMNAmmNAFSWgOXLgUcf1aYLob3lq4HjAU0ApqRo0X/66UBgQ9dZQQFISNsJxAKo7jNvFh5/eQAdDjnOeGOj7CLCqF9C2g5vI5uiF05KGPlzuQYiXpSQAqwDQIDALYCBuIC9JZn+/HPvy9XVaXkNldBT5VQNfyhcwObym0cYIIQEjy8XsLe2RT/dKg+gw6ENhXjgAK1/hIQC2jtsSmvGAg4E/QDzVo2xir71RTAWQN2ofwA0sWaO9NJvy+GQD4zmZm1fSgCq71C4gL1FFxJCAieQRNDqHjTfqz17yu/mZm3kHm8jgcTKEHmExAp85MUAobRK6fvoeBNOVtMbGqSbWA3lBgQmAM1isqlJDhS/cqVxutMp+/ipfaWmBm8B1JdRT6AWQApAQoInGBewOcn7Kad4LusvCpgQEhr4yLMpVmlgQiVQ/I0EYp7e0gJ88okcb3jFCi0JcyACUJ+7D5BibPZsz+WSk7VB5R0OLcrPbAHUp4rRl6+hAVi4EPjb36QlQS8ClQA0ZyAyl5/uX0KCx+yZsOpW4s0FnJcnv331AWR/P0LCAwWgTfHnAm4LwY4EIoQUVzt3Ao89prlfA2mYL7sM6NNHDtcEeLfG6fOHtbRobh5l6dOLQUCmgtCX9/PPZaTzBx8Aa9caBaKyPuTnAxdeqE03l58WQEKCx9xWBeoCdji0l75gEkETQkIDH3k2xaq/XygEYEqK9yHXFL6CQOrqtAY6EAHYsSNwww1Aly7yv7f+ePoIX/3+9RbAxkZNGOqjlg8cAJ57Tvv/5ZfGcSWV6MzIALKytOUoAAkJLb4EoBDGFzdAu+f85QEkhIQePvJsSmvyAAaC0xm8BdBbX8FAGmanU7pz8/Pl/127rJfT901UInHbNuCVV+Tv1FT5US7ldeuM6+utg7t2SdF34ICcrh+GSu+eoguYkLajbwf0L3J6vAWBqHuupUWKwF27mJqJkEjB3hU2xd9YwK3NmK7PtxdoEIj5v7lfnj9U9B7g2wKoytXUJPdx772au1kdDyUka2qst9HSAvzwA/Dww8Do0VLkqWX37zeKXgaBENJ2ghkL2Jt1Tz/d3LbxxYyQ8MBHnk0Jlwu4vt44zq4VoRwKTuHPXWx2ATc2eqZ62b3bM6hET8eO2u8tW4D33we++EK6nVSQib4PIi2AhLQdXwLQ3K3D3LZYDQHmL60TISQ0UADaFCsXcKi2q3e7WOHPAhhMGhiFP2thcrK2vUOHtEhjRWamFG/KkmjFEUcY/x86JN3IANC9u+z/pz+u7ANISNvxlQZG9dn15gK2sgBSABISGfjIsylWI4GEAn0iVW/uWH8CUFnR2iIAzZY8ff+8+nrg1ls9109NBbKzve+juNj4v7lZyy2YlSXnp6Vp8ykACQkt5iAQdU97cwGbg0CEaH33FkJIcPCRZ1PCZQHMy9NEkLc3bas8gHr0wtGcdNkbZrE1ZIjxv3kQ+R07jPPbtZPBJO3aed9HQYHxvwoCUfPKynwHgQCB14cQIvFlATRnHPAVBGI1nxASPigAYwArAdhaUZiZ6T8NjD8LoOqb19ws++UFIprMYis/3zPQxZelMydHWi59WQBVgIi+3D//LH9nZcn19Q8r8/6ECLw+hBCJ+T7Wv2Sp+81qJBD9fGX18+aVIISEHgrAGCCUFsC0NGMaGKvh0/wFgaj+eapfXiCNtllsZWcbRaG39BEK1fdPuXQBmWBaT/v2nuvt329cT38szaI0OTnw+hBCJOauE/r2wizszG2LahfUcrQAEhI5KABjAKu+aYH0kxk92nNaWpqx4/WDDwKPPALs2SNFYEODMfrWCr1YTE0NrC+gWdxlZHjmD/O1HTViQEGBttzAgcZlMjOByy8H+vbV+jkqsarc3r4EoBKhHHqKkMAxWwD1Ik4N9ab6AJrbLdW2qXX48kVI5OCjLgZorQXQHBQBGC2ABw4An30mfx9zjOxj98MPwL//7Xu7qjFX/fKcTuPIHFZYWfcCSSCrUBbAwkLgjjvkgyQ1VW5DWRVSU4Hhw2Vd/vhHKWrVkHBKAPqKAna5tPqwIzohgWGVBmbWLPny9e67crq3NDBmAUgLICGRgxbAGKC10al5eXIsXn16FLMFUPHii8AvvwCzZ/sXc2p83sxMzdLmj6YmT+tbMBZAJQCdTmn569sXKC/XLAyATPickwMUFRldxYBmQfQlAJ3OwOtDCJGYBaDTCfTuLe9Tdd/5swDSBUxI5KEAjAFaawHMzgZOOAE4+mhtml4A6tm7F3j66cC2q1zE+pQq/tCnZAFkUEZrLICANrKI0wlcc438ff758iGTlCT/m8VdIC5gun4JCR79S5X6rb9HAf+JoOkCJiTy8JEXA7RWAObmGsfhBaQQ8vaWvWVLYNtVblWzlc0XKSlS9Cnx2LWrZ/oIX/X0Jg4HDpTDvu3ZY+y/F4gANAthCkASjzgcsu9sQYGMcg81vjwU6h5TFkB/UcC0ABISOfjIsyl6V0lrBaB6A9db6tLS/Ad5+OPHH+V3MILJ6TQKxtJSa8uBNw4flsEnZtHpdEqXr8Oh9d+zKpuyIPpyAVMAEhI8vtonX3kAHQ72ASQkmtAFHAO0VgCax+EEpAA0W9N85dYLZPutWT452SjGvOUkBIBjj5XLe3MPOZ2yr5G+/563UT4oAL3jcEgxXVDAcZFJ4AQiAA8dki9x3oaC8zc+OSEk9FAA2pRQDAV38KC0mumtiU6n5/bKy1u3fV/j8lqh329Dg7GONTXeEzBfcknw6VnMdVQWRH9pYIJBCSZlgSQkHlEuZG/XuTkIxGre/v3A9u2aK1ihdwELQQsgIZEkJgXgxx9/jLPOOgvl5eVwOBx44403DPOFEJg5cybKy8uRnp6OkSNHYv369YZl6uvrcf3116OwsBCZmZkYP348tm/fHsFaBE5rxMXUqdJi1tRkbFQbGjyFjxBAv37B7yPYiFm9KNu9W8vRB8gyerPw5efLTzD701sb9WMf+7IAehOAyr3cr59MrePtfHgThFbre9umv4eteT9JSXL9Xr28ly2QbeqPQb9+8hOIIA7UahhNsayvf1JS4MdCreuvfuZzmZRkrKvV8W/r8QhmfbWs6nYRTP0DQX9fm6N81f+UFJk9QGUQUPP09/zu3cb50UIdr+JieV5Dda04HNb3aijvDV/Xurq3e/Xy7H8dzLUUSFtIYoOYdHodOnQIAwYMwOWXX45zzz3XY/4DDzyAefPmYeHChejZsydmzZqFU089FZs2bUL2r/7OadOm4T//+Q8WLVqEgoICTJ8+HePGjcOqVauQ3FqTW5hozU129NEyWCMlxSicdu/2dPk2NckEys89B3z7beD7CNYFfOaZwHffyRQujY3aKB2A7NvnzcIXTLCJQr+trCxrC6KVACwqkr9375aNZ2Gh9hBPSpIPUQDYtUsbX1jlPispkf8rKmRUda9e2kO3rEw+8Hbt8tzn4MHSCrtjh7aNykq5zaIioKoKqK42rudwyOWU9Vb9B+T+Kyu1fRUWamUfMkTO0++rqkqzwOzcKbfVvj3QoYO2LfXAKCyU2ykp0Y6LOgYKIWRKofXr5TFSx6C0VO6rfXu5zI4dmkAoLZWf8nJtW2o769ZpD7KyMu34mOvQ0iKnlZbKh9POnXI7JSXye+dOoH9/7ZhVVmr13rFDrr97t6yjSjOktquahKIiYMMGuY4SVWrbSUlynfbt5T7XrJHlUMcKMNZdla2sTDsWQhiPtf5aVPsztwf69X0dy4oKuQ21nCqbELJO+nNVUgJ8/bW8htQ5V9eF/twJYXyRM6PaiMOH5X2sfxmdNMn4/7bbgCuu8L4tfygho+qkjltBgQwS04vTpCR5jh0Oee6UmNGfGyXmhbA+VsXFwMaNntd4ZaX8qOsv3Kh6A1qQj34aYHwZUUJUfy07HLLs6lpqadHaD3WskpKM7UxSknZc1bVqbt/aUqfCQnnfUWSGj5gUgGPHjsXYsWMt5wkh8Mgjj+COO+7AhAkTAADPPfccSkpK8NJLL+HKK6/E/v378cwzz+CFF17A6F+Hy3jxxRfRsWNHLF26FKeddlrE6hIIrbkBiopkomenExg6VA6b1r+/pwsGkAKwuBi4/Xbg7ruBzZu9l6NXL9noAVqOr0A54QSZpy8vz1M8+rLwKetBMOg1vN6C6M8FrBq4IUOsj7t6QJeXG4VPhw7aMh06yI8Q8kGg3/7gwdblbd/eOJSd/uGtBKL+oeJwaMvo96GmCyEb58JCGSmtHmrqIW7el77svsoVCA6HdgzM+NpXMNvxVgf9sh07GtcxbyeQslhtt1Mnz+Ws1tenX/K3vPqvrhm9MC0u9hR0evSi0SzGFVbnXY/5WAmhiW2rbbZvr70cBBK9n5Ym66jKecYZ8h7Tv9zt2OF7HG6zwFNiQ01XwhWQwt28nqpXcrL83769MRBF1dPXNWSeZnUtqPvPLIaUyFKiEgD27fNeX38oa596SVVCrqjIeM+bz58qvxBaG6hfpn17+eLlK2JctTM7dhiFYr9+2jQhvAvwQOvn7aWHhIaYdAH7YvPmzaiqqsKYMWPc01wuF0aMGIEVK1YAAFatWoXGxkbDMuXl5ejbt697GSvq6+tRU1Nj+ISLto5Eoc/BlZYGTJ4sBVhqqqdFTYml/HxAr31TU4Hf/c5YJv38YAWgyyUbpvbtpRBUWI1Yoqc1yZn14q6gwHobZgEY6kZGNZLeHtzBbocNIbEjvq5JffCVPhuBGkXIW1ukx5coJPaHfaXtS9wJwKpfX/1K1Kvgr5SUlLjnVVVVwel0Ik8/jIRpGSvmzJmD3Nxc96ej1euhDXE6pbgrKjKmSlFccIEWfZeVZZxuHm+3XTvt9/79wTfOKkGswwGce64s09SpoY/+04s7vdjUC2uzALSZ55+QmMBXX1Fzmhd1/6WlybbAvG5mpuc2du8OnwgM1UtaLBKKuofCSmclEJW1lC+94SUmXcCB4DBdNUIIj2lm/C0zY8YM3HTTTe7/NTU1YROBob7o9cJLz5gxQLdumvjRv6WXlclk0no6dgQGDZLzGhul+7g1FrrUVOC444BTTtHG9A0l+geLy2X9AGlrFDAhJDALoHkkEKu0TIDMXADItqpPH2D0aOtuK4SQthN3ArD0117ZVVVVKFO9VQHs3LnTbRUsLS1FQ0MD9u3bZ7AC7ty5E8OHD/e6bZfLBVdrIhJsjHLFqPF/zW6a1FQ5f/duKfSqq7WO2irIpDUoq2R2ttzGoUPe3/Jb8/avfyhlZFhbGCkACWk7gVgAzYmg1f1pXlf1W8vJkUFj2dnheUEkvtH3m6QFLn6Ju0de165dUVpaiiVLlrinNTQ0YPny5W5xN3jwYKSmphqWqaysxLp163wKQDvhr49goKLJ5TJa8My/U1OBa6+VVsIxY2RD3K6dbByCTc1ixjxeaGMjMH683O5xx2nLtcYFpC9XZqZnwlmAApCQUBCMC1h9e7MAqoACl0v2DS4rk4Fn3oJbSOwRaJ/ARHbPR4qYtAAePHgQP/zwg/v/5s2b8fXXXyM/Px+dOnXCtGnTMHv2bPTo0QM9evTA7NmzkZGRgYsvvhgAkJubi6lTp2L69OkoKChAfn4+br75ZvTr188dFRxtWhMEou+ft3u397dmvZhqaDD+10fbKtfLUUcBU6ZIIZWZKUVbamroc3alpgJnnQWcfrq0LjY2Aiee2DoXkN5QW1ysCUL9cTVHIsdiI6MaSUKiha/7xjwUnNkFbF5XbwEsK5P3sculuYaJhj4qeufOtgcOtmb/paVaxLp+GiDFvD5dVUWFdWSxWkefpiYW2+JYJCYF4JdffomTTz7Z/V/1y5s0aRIWLlyIW265BXV1dbjmmmuwb98+DB06FO+//747ByAAPPzww0hJScH555+Puro6jBo1CgsXLrRdDsBguOgiGW4/cqRv0dTYCBxxBPDTT8CAAcZkrOY+f01NMjCkrExzxzid4WlsnE7pbm5qkg+KCy/UxGawp0W/vD4IxNsyAC2AhIQab0Eg3u61igr5nZ3dNu8CiU1UjkJfaY9I6IhJAThy5EgIHwrE4XBg5syZmDlzptdl0tLSMH/+fMyfPz8MJYwOBQXAdddJgZeS4l00paYC//M/MldWYaExz17HjsBVV8m3bn3yZG9BJKHG6dQEprmPYDDorXve0tXQBUzsij7BtrKKxSLegkC8tSMqL55VNDAJnFB4BpSF0Z9FTl2rKr+ht0ezeXuRtlgST2JSABJr9Ba05GTvosnp1LLcq7QwalmnU+b6a2zUEklboZKQFhT4Thja1vqo8YaDFYB6cacfs9g8GoCeGDb+EmJLzAJQ3X/e7jU1qkiw44xboUaTiJaLlBjRu3oB+QxS1wEtfdGBNg+b4u+G8DbfHFjhDadTWsaslgt0G3ZG/4Dx9jAxH0NaAAkJLWYXsLkPoDdCZQFkEnVCvEMLIIlL9P0aMzI0y4IvKwAfECQWsXMgkL80MN4IlwvYLsOLKWtYa4ZIM2+nvFweZ/2QkKFCP0awjzESgt4eQIusHaAAtCm8OdqGPrLZ5bIWgOZAGVoACQkt5vRL5jQw3tI7uVyaWCsuBvbuZZsYC6j+gIA2FrkSqGqMZDXWtV4MKtR/voxHBj7yYhQ2hr7RWwD1jYl++v79xnXi6ZjqLR2q8WVUHYk03iyAanpjo0z7ZKa52X/uT9UP2SqfnF0sfcQIc/vZC1oASVyit+7pHyTFxdpvvRgEpAD0l9vQzu42QuyGv0TQqanAhAky2v+VV7T1UlM97099EEEo3JHEO3rrHIVa/EIBSOKSw4e13/qk2F27ypFNMjLkQ+fYY4G1a6WoO+44jjtKCBC6Fx1/YwGrzAWFhcb1CgpaP8ykGX1dduyQUcG0QBFCAUjilKOOAtRIf3pR53RqA8zv3QtMmiRTRBw8qCW6tiuB5uUixC6oFy9vFkBA3pP6UYwAoEuXtmUhcDiMQk/f58wOw8opUbpzpzb8nZ2h5yM+oQAkccmIETKpbPfuniOJqDGO6+tltGFuLlBdLRs4/RByhJC24a0PoDkPYFqa9js5WSaBJ9FBiT0VsEHiFwrAGCWeAhbCgcslh8TzN5KIfuSRWM57SIgd8dYH0GyB01veMzOlhb61idntZOkjxM5QAMYQ+mCGpib/UXKJTltGEiGEtB0l4sx9AJUQVOgtgIBnAIg3lNhLStJ+M0CEkMBgGpgYorEROOccIC9PRs6pxpQQQuyI3gJ4+LD20lpTY3yBzc3VftfUeApEEt8wPUx0oAUwhkhNBc48ExgzRro1OXYtIcTO6PsA1tdrlr2WFvlbdbtwOoE+fYD164H27aUIVFZBFfykfutTlOzZo4kHFexB7A/7GdoDCsAYQqVMaGqS4o9uTUKIndFbAF0uzWvhcnmmefmf/wEWLQKOOUZ6OwJ1AxNCWgcFYAygd5XogxaiKQD1wzTt2RO9chBC7IveApiWplnoioo8g65ycmTXlt27pbfDKg+g3nK0Y0fg5WAaE0I8oQC0Kfr+ffpExnZEDclUUND2wc0JIfGDOQpYWfXS0z2XVR4OQH77i8pXL6HsN0ZI62AQiE057TT5fcQR0h3CgA9CSKxhzgOokrJ7G+XD6ZTiMF5TMsVSsEMslZW0DloAbUqvXsDMmdKqZk5kTIg/mAuN2AHzSCDKAhiqYd5iGX0wixCx5znRu9VjrexEwtvQprhcQKdOQFaW70TGhBBiV8wWwFAJQL144gsOIa2DAtDGMJGxEf1YuELIh0tr3pwdDtnHyLy+eqjQ5UFIaND3AWxp0YSgncfcJiRRoAAkYUEfGLJ7d7RL44kSk0LExmDshMQiehewPptBcrL2IiaEHIvbFw4HUFLCfH/ecDhkdw/V5SPaL7CqfS0piX5ZiHcoAEmbUQ15cTGwd29oG2e9tc7fcso6uHu3ZxkcDlm+0lJg5045raREm2eHRpOQeEPvAlYBIED4LIBM90JI4FAAkpgnKUkGzQwYAKxZ4zmvT5/EsvLxIUjsgt4FXF+vTWcQCCHRh7chsSXKhazcCElJ1q5kZfkrLdWseMXFctqGDXKZpCTg6KPl74qKyNWBkETHmwWQApCQ6MPbMAEIZ6Jm/YgggW7XWxBGoOuqvi5VVcYADr3Qa2mRVj9vorGkRG6jstLoPqYbmJDQYWUBTEmR09XLXVVV9MpH7AW9F5GFAjDOMHesNkfOelunoECup5YLpctUlalPH/l7xw65j2CDMPRRuvppzHVHiD1RQSB6CyBzmmqoNk0ICmESeSgA4xS91S8pSQt4SEqSb+O7d0tR1rcv0L69nFdR4WlVU+IxORnIz9fG/VVu17aWUZVr3z7jPktKpDBUlrqkJPmh0COJgrKGxPI1r48C1lsAiXFc41jvmsKk0LEJb8U4RAmr5GTpmlUPEF83pv4GrqqS65WUaAItOVn+HjJEuk0DHYhdLyKTkuQ+2reXDZ55G/r+fFbb0Y9swUaGEPujXMBCaGlgQmEBpKuQkLZDARjn6BtK/Vum1UDqZhGon9ahg7auPhdXa4WYEnQlJZoQ1Lt4Kytbt13zPsx1tLKoMAE0IeFBn76prk5+0wJIiD3grRjjmAMqQrE9JQL9WflU/zv9vouKNBdzW8tAMUYSnVi3dOkF4OHD8ttsAVTdVfLz7Zk0npB4hQIwjvDlQtWTlAT069d6keWrv4eypqmEzPr/rRV0sf4QJCRR0Ys9ZQHkMHDxj7nLDrEnFIDEllD0ERL7WLmAGQVMiD2gACRhIdCxINWbYqhdP2q76jchJPKwD6DWFjKLAbEbCXYrxjehDqIIRXmUm1lfnlCkDKCFkBD7Y+UCTjQBmGiwbY4deCvGKdFIm6L2WVqqNfx84yUkcUlUF7Cy+hFiZygAiQdtjcK1egPkG2FwmI8h8x6SWETl/2xp0aKAE9ECyFRTxI4k4K0YW5jTvJiHeiOEEDujBCBdwITYC96KNkQfGBGI5Uc/2ka03i45Ji8hxArlBk40C6DeDcx2kdiRBLkV4wPVoJSVaf3sdu2yXo4uV0KIHVAC8OBB+U0xRIg9oAC0OcoamJRkTJWiT3MS6/3DVGJqgA8HQuKVJ5+U3/X1UgwmQpCEGpc9mt4ZQrxBAWhjVH+/8nIp/vR59cyBGoG6X1WD5K8zcqStiHQhExL7mF9G6+s116+irk6ONZ4oXgoObUnsCgWgDVENxs6d8n9SEnD00bJx9ZZPL5Bttm8vP+EoKyEkMWlo0H4nJxv/NzbKNueXX+T/rCxg5EjZljU2RrSYESfQl21CokXCC8DHH38cDz74ICorK9GnTx888sgjOPHEE6NdLEIIiQkaG4HLLgOWLwcuvhhobtbmOZ3AzJnA1q1AdjZQWwukpQGZmYGNCaxeMGMpd2C4XrYJCTUJLQBffvllTJs2DY8//jiOP/54/O1vf8PYsWOxYcMGdOrUKapl41BmhJBYIDUVOOkk4PTTgUOHjMmfnU7gqKOA/v2BvDzgwAFg82YZCexyRa/M8QS9MKS1JPlfJH6ZN28epk6diiuuuAJHHXUUHnnkEXTs2BFPPPFEtItGCCExgdMp+yqXlMhvp9M43+WS1rAjjgCKi6X1z7wMISTyJKwAbGhowKpVqzBmzBjD9DFjxmDFihVRKhUhhMQeTqfs3xessFOeDpXHNJFRab4KCngsSGRIWBfw7t270dzcjJKSEsP0kpISVFVVWa5TX1+P+vp69/+ampqwlpEQQkh8o3fh6oP8EgG6r6NLwloAFQ7Tq5YQwmOaYs6cOcjNzXV/OnbsGIkixjWqAWCkHCGESGgNJJEgYQVgYWEhkpOTPax9O3fu9LAKKmbMmIH9+/e7P9u2bQtb+SiMCCGEKDFINzkJNQkrAJ1OJwYPHowlS5YYpi9ZsgTDhw+3XMflciEnJ8fwIYQQQgiJNRK2DyAA3HTTTbj00ksxZMgQDBs2DH//+9+xdetWXHXVVdEuGiGEJAQqEKSlxTjcJSEkvCS0ALzggguwZ88e3HvvvaisrETfvn3x9ttvo3PnztEuGiGEkARBdfkRQorgWB/fncQGCS0AAeCaa67BNddcE+1iEEJIXKNEzo4dwK5d1vOLiuRvCiBCwk/CC8BYgiHzhJB4xOEAysrkb1rACIkMCRsEQgghhBCSqNACSOISb9ZS83Sm2SHEHuhdxDt3Rrs0hMQ/FIAkoaFbnRB7w3uUkPBAFzAhhBBCSIJBCyAhhBBb4XAAhYUyPyC7aBASHmgBJIQQQghJMGgBJIQQYgvUqCCEkPBDAUgIISQiUOARYh8oAAkhhEQFFeGr+vkxATQhkYN9AAkhhBBCEgwKQEIIIWFBuXyZcN0/yhpaVMRjRSIDBSAhhBBCSILBPoCEEEJCisMhLVlJSbRmEWJXKAAJIYSEDCX+SkuBXbu8L1NSYu0a1kcKJ7J4VMdRwQAZEmooAAkhhNgC1Q9OCKCyMtqlISS+oQAkhBDSKvRWKlqowoOylgoB7NkDFBTIz9690S4ZiXUoAAkhhBCboVzhVjkS9W72RHaTk7ZBAUgIISSkKFducnK0SxLbqOMIABUVUvTR0kpCBQUgIYQQYmPMI6aUlgJVVdEtE4l9KAAJIYREBLOQIUb0bl9zlLTeGggYfxPSGigACSGEEBvgcADt28sPIeGGApCQGIKdv4ldUNYqIYAdOwLvm2a2ZLV2GUJI26AAJCRGcDiAsjL5ofgjdoOjfxASW1AAEhID0CKSGMTKedaXUwgp+gDZb23NGs9lCCH2gwKQEEJIqzELvaOPjl5ZCCGBkxTtAhBCCCGEkMhCAUgIIYQQkmBQABJCCCGEJBgUgIQQQgghCQYFICGEEEJIgkEBSAghhBCSYFAAEkIIIYQkGBSAhBBCCCEJBgUgIYQQQkiCQQFICCGEEJJgUAASQgghhCQYFICEEEIIIQkGBSAhhBBCSIJBAUgIIYQQkmBQABJCCCGEJBgp0S5ALCOEAADU1NREuSSEEEIICRT13FbP8USEArANHDhwAADQsWPHKJeEEEIIIcFy4MAB5ObmRrsYUcEhEln+tpGWlhZUVFQgOzsbDocjpNuuqalBx44dsW3bNuTk5IR023YlEesMJGa9E7HOQGLWOxHrDCRmvWOpzkIIHDhwAOXl5UhKSszecLQAtoGkpCR06NAhrPvIycmx/Y0UahKxzkBi1jsR6wwkZr0Tsc5AYtY7VuqcqJY/RWLKXkIIIYSQBIYCkBBCCCEkwaAAtCkulwt33303XC5XtIsSMRKxzkBi1jsR6wwkZr0Tsc5AYtY7EescyzAIhBBCCCEkwaAFkBBCCCEkwaAAJIQQQghJMCgACSGEEEISDApAQgghhJAEgwLQhjz++OPo2rUr0tLSMHjwYHzyySfRLlKr+fjjj3HWWWehvLwcDocDb7zxhmG+EAIzZ85EeXk50tPTMXLkSKxfv96wTH19Pa6//noUFhYiMzMT48ePx/bt2yNYi+CYM2cOjjnmGGRnZ6O4uBjnnHMONm3aZFgmHuv9xBNPoH///u4ksMOGDcM777zjnh+PdTYzZ84cOBwOTJs2zT0tHus9c+ZMOBwOw6e0tNQ9Px7rDAC//PILJk6ciIKCAmRkZGDgwIFYtWqVe3481rtLly4e59rhcODaa68FEJ91ThgEsRWLFi0Sqamp4qmnnhIbNmwQN9xwg8jMzBRbtmyJdtFaxdtvvy3uuOMO8eqrrwoA4vXXXzfMnzt3rsjOzhavvvqqWLt2rbjgggtEWVmZqKmpcS9z1VVXifbt24slS5aI1atXi5NPPlkMGDBANDU1Rbg2gXHaaaeJBQsWiHXr1omvv/5anHnmmaJTp07i4MGD7mXisd5vvvmmWLx4sdi0aZPYtGmTuP3220VqaqpYt26dECI+66zniy++EF26dBH9+/cXN9xwg3t6PNb77rvvFn369BGVlZXuz86dO93z47HOe/fuFZ07dxaTJ08W//d//yc2b94sli5dKn744Qf3MvFY7507dxrO85IlSwQAsWzZMiFEfNY5UaAAtBnHHnusuOqqqwzTevXqJW677bYolSh0mAVgS0uLKC0tFXPnznVPO3z4sMjNzRVPPvmkEEKI6upqkZqaKhYtWuRe5pdffhFJSUni3XffjVjZ28LOnTsFALF8+XIhROLUWwgh8vLyxNNPPx33dT5w4IDo0aOHWLJkiRgxYoRbAMZrve+++24xYMAAy3nxWudbb71VnHDCCV7nx2u9zdxwww3iiCOOEC0tLQlT53iFLmAb0dDQgFWrVmHMmDGG6WPGjMGKFSuiVKrwsXnzZlRVVRnq63K5MGLECHd9V61ahcbGRsMy5eXl6Nu3b8wck/379wMA8vPzASRGvZubm7Fo0SIcOnQIw4YNi/s6X3vttTjzzDMxevRow/R4rvf333+P8vJydO3aFRdeeCF++uknAPFb5zfffBNDhgzBb3/7WxQXF2PQoEF46qmn3PPjtd56Ghoa8OKLL2LKlClwOBwJUed4hgLQRuzevRvNzc0oKSkxTC8pKUFVVVWUShU+VJ181beqqgpOpxN5eXlel7EzQgjcdNNNOOGEE9C3b18A8V3vtWvXIisrCy6XC1dddRVef/119O7dO67rvGjRIqxevRpz5szxmBev9R46dCief/55vPfee3jqqadQVVWF4cOHY8+ePXFb559++glPPPEEevTogffeew9XXXUV/vCHP+D5558HEL/nWs8bb7yB6upqTJ48GUBi1DmeSYl2AYgnDofD8F8I4TEtnmhNfWPlmFx33XX45ptv8Omnn3rMi8d6H3nkkfj6669RXV2NV199FZMmTcLy5cvd8+Otztu2bcMNN9yA999/H2lpaV6Xi7d6jx071v27X79+GDZsGI444gg899xzOO644wDEX51bWlowZMgQzJ49GwAwaNAgrF+/Hk888QQuu+wy93LxVm89zzzzDMaOHYvy8nLD9HiuczxDC6CNKCwsRHJyssdb0c6dOz3esOIBFTXoq76lpaVoaGjAvn37vC5jV66//nq8+eabWLZsGTp06OCeHs/1djqd6N69O4YMGYI5c+ZgwIAB+Mtf/hK3dV61ahV27tyJwYMHIyUlBSkpKVi+fDkeffRRpKSkuMsdb/U2k5mZiX79+uH777+P23NdVlaG3r17G6YdddRR2Lp1K4D4vq8BYMuWLVi6dCmuuOIK97R4r3O8QwFoI5xOJwYPHowlS5YYpi9ZsgTDhw+PUqnCR9euXVFaWmqob0NDA5YvX+6u7+DBg5GammpYprKyEuvWrbPtMRFC4LrrrsNrr72GDz/8EF27djXMj9d6WyGEQH19fdzWedSoUVi7di2+/vpr92fIkCG45JJL8PXXX6Nbt25xWW8z9fX12LhxI8rKyuL2XB9//PEe6Zy+++47dO7cGUD839cLFixAcXExzjzzTPe0eK9z3BPpqBPiG5UG5plnnhEbNmwQ06ZNE5mZmeLnn3+OdtFaxYEDB8RXX30lvvrqKwFAzJs3T3z11VfutDZz584Vubm54rXXXhNr164VF110kWUKgQ4dOoilS5eK1atXi1NOOcXWKQSuvvpqkZubKz766CND+oTa2lr3MvFY7xkzZoiPP/5YbN68WXzzzTfi9ttvF0lJSeL9998XQsRnna3QRwELEZ/1nj59uvjoo4/ETz/9JD7//HMxbtw4kZ2d7W6n4rHOX3zxhUhJSRF/+tOfxPfffy/+8Y9/iIyMDPHiiy+6l4nHegshRHNzs+jUqZO49dZbPebFa50TAQpAG/LXv/5VdO7cWTidTnH00Ue704fEIsuWLRMAPD6TJk0SQsjUCXfffbcoLS0VLpdLnHTSSWLt2rWGbdTV1YnrrrtO5Ofni/T0dDFu3DixdevWKNQmMKzqC0AsWLDAvUw81nvKlCnu67aoqEiMGjXKLf6EiM86W2EWgPFYb5XrLTU1VZSXl4sJEyaI9evXu+fHY52FEOI///mP6Nu3r3C5XKJXr17i73//u2F+vNb7vffeEwDEpk2bPObFa50TAYcQQkTF9EgIIYQQQqIC+wASQgghhCQYFICEEEIIIQkGBSAhhBBCSIJBAUgIIYQQkmBQABJCCCGEJBgUgIQQQgghCQYFICGEEEJIgkEBSAhJOH7++Wc4HA58/fXXYdvH5MmTcc4554Rt+4QQ0hYoAAkhMcfkyZPhcDg8PqeffnpA63fs2BGVlZXo27dvmEtKCCH2JCXaBSCEkNZw+umnY8GCBYZpLpcroHWTk5NRWloajmIRQkhMQAsgISQmcblcKC0tNXzy8vIAAA6HA0888QTGjh2L9PR0dO3aFa+88op7XbMLeN++fbjkkktQVFSE9PR09OjRwyAu165di1NOOQXp6ekoKCjA73//exw8eNA9v7m5GTfddBPatWuHgoIC3HLLLTCPsimEwAMPPIBu3bohPT0dAwYMwL///e8wHiFCCPEOBSAhJC754x//iHPPPRdr1qzBxIkTcdFFF2Hjxo1el92wYQPeeecdbNy4EU888QQKCwsBALW1tTj99NORl5eHlStX4pVXXsHSpUtx3XXXudd/6KGH8Oyzz+KZZ57Bp59+ir179+L111837OPOO+/EggUL8MQTT2D9+vW48cYbMXHiRCxfvjx8B4EQQrwhCCEkxpg0aZJITk4WmZmZhs+9994rhBACgLjqqqsM6wwdOlRcffXVQgghNm/eLACIr776SgghxFlnnSUuv/xyy339/e9/F3l5eeLgwYPuaYsXLxZJSUmiqqpKCCFEWVmZmDt3rnt+Y2Oj6NChgzj77LOFEEIcPHhQpKWliRUrVhi2PXXqVHHRRRe1/kAQQkgrYR9AQkhMcvLJJ+OJJ54wTMvPz3f/HjZsmGHesGHDvEb9Xn311Tj33HOxevVqjBkzBueccw6GDx8OANi4cSMGDBiAzMxM9/LHH388WlpasGnTJqSlpaGystKwv5SUFAwZMsTtBt6wYQMOHz6MU0891bDfhoYGDBo0KPjKE0JIG6EAJITEJJmZmejevXtQ6zgcDsvpY8eOxZYtW7B48WIsXboUo0aNwrXXXos///nPEEJ4Xc/bdDMtLS0AgMWLF6N9+/aGeYEGrhBCSChhH0BCSFzy+eefe/zv1auX1+WLioowefJkvPjii3jkkUfw97//HQDQu3dvfP311zh06JB72f/+979ISkpCz549kZubi7KyMsP+mpqasGrVKvf/3r17w+VyYevWrejevbvh07Fjx1BVmRBCAoYWQEJITFJfX4+qqirDtJSUFHfwxiuvvIIhQ4bghBNOwD/+8Q988cUXeOaZZyy3ddddd2Hw4MHo06cP6uvr8dZbb+Goo44CAFxyySW4++67MWnSJMycORO7du3C9ddfj0svvRQlJSUAgBtuuAFz585Fjx49cNRRR2HevHmorq52bz87Oxs333wzbrzxRrS0tOCEE05ATU0NVqxYgaysLEyaNCkMR4gQQrxDAUgIiUneffddlJWVGaYdeeSR+PbbbwEA99xzDxYtWoRrrrkGpaWl+Mc//oHevXtbbsvpdGLGjBn4+eefkZ6ejhNPPBGLFi0CAGRkZOC9997DDTfcgGOOOQYZGRk499xzMW/ePPf606dPR2VlJSZPnoykpCRMmTIFv/nNb7B//373Mvfddx+Ki4sxZ84c/PTTT2jXrh2OPvpo3H777aE+NIQQ4heHEKZkVYQQEuM4HA68/vrrHIqNEEK8wD6AhBBCCCEJBgUgIYQQQkiCwT6AhJC4gz1bCCHEN7QAEkIIIYQkGBSAhBBCCCEJBgUgIYQQQkiCQQFICCGEEJJgUAASQgghhCQYFICEEEIIIQkGBSAhhBBCSIJBAUgIIYQQkmBQABJCCCGEJBj/DyaRmiJj1hrqAAAAAElFTkSuQmCC;" vertex="1" parent="1">
          <mxGeometry x="120" y="550" width="413.33" height="310" as="geometry" />
        </mxCell>
        <mxCell id="JOAAqWhhBDu5gQpFyMWB-3" value="&lt;b&gt;4 Layer Net with [120, 256, 128, N_Actions]&lt;/b&gt;" style="text;html=1;align=center;verticalAlign=middle;resizable=0;points=[];autosize=1;strokeColor=none;fillColor=none;" vertex="1" parent="1">
          <mxGeometry x="-20" y="1150" width="270" height="30" as="geometry" />
        </mxCell>
        <mxCell id="JOAAqWhhBDu5gQpFyMWB-4" value="&lt;b&gt;epsilon = 0.1&lt;/b&gt;" style="text;html=1;align=center;verticalAlign=middle;resizable=0;points=[];autosize=1;strokeColor=none;fillColor=none;" vertex="1" parent="1">
          <mxGeometry x="275" y="530" width="100" height="30" as="geometry" />
        </mxCell>
        <mxCell id="JOAAqWhhBDu5gQpFyMWB-6" value="" style="shape=image;verticalLabelPosition=bottom;labelBackgroundColor=default;verticalAlign=top;aspect=fixed;imageAspect=0;image=data:image/png,iVBORw0KGgoAAAANSUhEUgAAAoAAAAHgCAYAAAA10dzkAAAAOXRFWHRTb2Z0d2FyZQBNYXRwbG90bGliIHZlcnNpb24zLjQuMywgaHR0cHM6Ly9tYXRwbG90bGliLm9yZy/MnkTPAAAACXBIWXMAAA9hAAAPYQGoP6dpAACOIklEQVR4nO3dd3hUVf4/8PcMmZn0kEIaHemEJiiSVUERFEVU7IiC4K5gWVD4oSwWVARkV3Rt+NVVsC5rw1WxgQLqoiuCICCyFqRIQqgJgZCE5Pz+OJ6ZO3fuTGaS6ff9ep48mblz5865/XNPtQghBIiIiIjINKyRTgARERERhRcDQCIiIiKTYQBIREREZDIMAImIiIhMhgEgERERkckwACQiIiIyGQaARERERCbDAJCIiIjIZBgAEhEREZkMA0AiIiIik2EASERERGQyDACJiIiITIYBIBEREZHJMAAkIiIiMhkGgEREREQmwwCQiIiIyGQYABIRERGZDANAIiIiIpNhAEhERERkMgwAiYiIiEyGASARERGRyTAAJCIiIjIZBoBEREREJsMAkIiIiMhkGAASERERmQwDQCIiIiKTYQBIREREZDIMAImIiIhMhgEgERERkckwACQiIiIyGQaARERERCbDAJCIiIjIZBgAEhEREZkMA0AiIiIik2EASERERGQyDACJiIiITIYBIAXEYrH49bdq1aom/c6sWbNgsVga9d1Vq1YFJQ1NsX37dvz5z39Gt27dkJKSgsTERLRr1w5jxozBypUrIYSIWNoGDx6MoqKioC7z119/9Xk8zJo1q1HLbcp3G8vo2GvXrh3GjRsXlOUPHjzYbdskJiaie/fumD17Nmpqahq1zFdffRWPPvpoUNJnZvp9o/1r165do5Y5bty4Rn+3sdT5uHjx4rD+LsWWhEgngGLLl19+6fb+gQcewMqVK/Hpp5+6Te/evXuTfueGG27Aeeed16jvnnzyyfjyyy+bnIbGeueddzB69Gjk5ORg4sSJOPnkk+FwOPDTTz/hjTfewNlnn40VK1ZgyJAhEUlfKN16660YPXq0x/RWrVo1anlffvllo78bTEuXLkV6enrQltehQwe88sorAIB9+/bhH//4B+6++27s3LkTzzzzTMDLe/XVV7F582ZMmTIlaGk0K+2+0XI4HI1a3t13343Jkyc3NVlEQccAkAJy2mmnub1v0aIFrFarx3S9Y8eOITk52e/fadWqVaNv/Onp6Q2mJ1R+/vlnXH311ejRowdWrFjhFjQMGjQIEyZMwKpVq5CZmelzOYFur2jRpk2boG77SO1Hvb59+wZ1eUlJSW7rNnz4cHTv3h0vvPACHnvsMSQmJgb19xorVo9Db4QQOH78OJKSkrzOo983TXXSSScFbVlEwcQiYAo6VcT42Wefobi4GMnJyRg/fjwA4F//+heGDRuGgoICJCUloVu3brjzzjtx9OhRt2V4K4YbMWIEPvzwQ5x88slISkpC165d8fzzz7vNZ1QEPG7cOKSmpuKnn37C+eefj9TUVLRu3RpTp05FdXW12/d3796Nyy67DGlpaWjevDmuueYarF271q8ilQULFuDYsWN46qmnvOYYDR48GL179/ZY1/Xr1+Oyyy5DZmam86bxzTff4KqrrkK7du2QlJSEdu3a4eqrr8aOHTvclrl48WJYLBYsX74c119/PbKyspCSkoILL7wQv/zyi2E61q5dizPOOAPJycno0KED5s2bh/r6ep/rFwzq+Pj8889x2mmnISkpCS1btsTdd9+Nuro6t3n1RcDHjh3DtGnT0L59eyQmJiIrKwv9+/fHP//5T7fvvfPOOxg4cCCSk5ORlpaGoUOHeuReA8CyZcvQp08fOBwOtG/fHn/7298M02xUBHz48GFMnToVHTp0gMPhQG5uLs4//3z88MMPAW+ThIQE9OnTBzU1NTh8+LBzuhACTz31FPr06YOkpCRkZmbisssuc9ungwcPxrJly7Bjxw63IkvAe3UIoyJCdY5s2rQJw4YNQ1pamjOX2mKx4JZbbsFLL72Ebt26ITk5Gb1798Z7773n1/rt3LkTY8aMQW5uLhwOB7p164aHH37YebzV1tYiNzcX1157rcd3Dx8+jKSkJNx+++3OaRUVFc7jwG63o2XLlpgyZYrHdUSl++mnn0a3bt3gcDjwwgsv+JVmXwI534yKgF9//XUMGDAAGRkZzvNPXSOVhraZsmfPHlxxxRVIS0tDRkYGrrzySpSWlhqm+5tvvsHIkSORlZWFxMRE9O3bF6+99lqTtwfFJuYAUkiUlJRgzJgxmD59OubMmQOrVT5r/Pjjjzj//PMxZcoUpKSk4IcffsBDDz2Er7/+2qMY2cjGjRsxdepU3HnnncjLy8M//vEPTJgwAR07dsSZZ57p87u1tbUYOXIkJkyYgKlTp+Kzzz7DAw88gIyMDNxzzz0AgKNHj+Kss87CwYMH8dBDD6Fjx4748MMPceWVV/q13suXL0dBQQH69+/v1/xao0aNwlVXXYWJEyc6b2S//vorunTpgquuugpZWVkoKSnBwoULccopp+D7779HTk6O2zImTJiAoUOH4tVXX8WuXbtw1113YfDgwfjuu+/QvHlz53ylpaW45pprMHXqVNx7771YunQpZsyYgcLCQlx33XXO+QYPHozVq1f7XWexvr4eJ06c8JiekOB+qSktLcVVV12FO++8E/fffz+WLVuG2bNn49ChQ3jiiSe8Lv/222/HSy+9hNmzZ6Nv3744evQoNm/ejAMHDjjnefXVV3HNNddg2LBh+Oc//4nq6mrMnz8fgwcPxieffILTTz8dAPDJJ5/goosuwsCBA7FkyRLU1dVh/vz52Lt3b4PreeTIEZx++un49ddfcccdd2DAgAGorKzEZ599hpKSEnTt2tWv7aW1fft2NG/eHC1atHBOu/HGG7F48WL8+c9/xkMPPYSDBw/i/vvvR3FxMTZu3Ii8vDw89dRT+NOf/oSff/4ZS5cuDfh3tWpqajBy5EjceOONuPPOO9325bJly7B27Vrcf//9SE1Nxfz583HJJZdg27Zt6NChg9dl7tu3D8XFxaipqcEDDzyAdu3a4b333sO0adPw888/46mnnoLNZsOYMWPw9NNP48knn3R7ePrnP/+J48eP4/rrrwcgHwIGDRqE3bt34y9/+Qt69eqFLVu24J577sGmTZuwYsUKt4fHt99+G59//jnuuece5OfnIzc3t8HtYHQMW61W53VM8fd80/ryyy9x5ZVX4sorr8SsWbOQmJiIHTt2uF3//NlmAFBVVYVzzjkHe/bswdy5c9G5c2csW7bM8Hq1cuVKnHfeeRgwYACefvppZGRkYMmSJbjyyitx7NixoNVxpRgiiJpg7NixIiUlxW3aoEGDBADxySef+PxufX29qK2tFatXrxYAxMaNG52f3XvvvUJ/eLZt21YkJiaKHTt2OKdVVVWJrKwsceONNzqnrVy5UgAQK1eudEsnAPHaa6+5LfP8888XXbp0cb5/8sknBQDxwQcfuM134403CgBi0aJFPtcpMTFRnHbaaR7T6+rqRG1trfOvrq7OY13vuecen8sWQogTJ06IyspKkZKSIv7+9787py9atEgAEJdcconb/P/5z38EADF79mznNLV//vvf/7rN2717d3Huuee6TTv77LNFs2bNGkzX9u3bBQCvf59//rnH7//73/92W8Yf//hHYbVa3fYvAHHvvfc63xcVFYmLL77Yazrq6upEYWGh6Nmzp9s2PnLkiMjNzRXFxcXOaQMGDBCFhYWiqqrKOa2iokJkZWUZHntjx451vr///vsFALF8+fIGt43eoEGDRI8ePZzHQklJibjnnnsEAPH000875/vyyy8FAPHwww+7fX/Xrl0iKSlJTJ8+3TntggsuEG3btvX4LaNzQQjX/tIez+ocef755z2WA0Dk5eWJiooK57TS0lJhtVrF3Llzfa7vnXfeaXi8TZo0SVgsFrFt2zYhhBDfffedACCeeeYZt/lOPfVU0a9fP+f7uXPnCqvVKtauXes23xtvvCEAiPfff98t3RkZGeLgwYM+06ioY9Pob8KECc75Ajnfxo4d67Zv/va3vwkA4vDhw17T4e82W7hwoddzSb9/u3btKvr27Stqa2vd5h0xYoQoKChwO1/IHFgETCGRmZmJs88+22P6L7/8gtGjRyM/Px/NmjWDzWbDoEGDAABbt25tcLl9+vRBmzZtnO8TExPRuXNnjyJRIxaLBRdeeKHbtF69erl9d/Xq1UhLS/NogHL11Vc3uHxfRo0aBZvN5vz785//7DHPpZde6jGtsrISd9xxBzp27IiEhAQkJCQgNTUVR48eNdxe11xzjdv74uJitG3bFitXrnSbnp+fj1NPPdVtmn5bADKXzCg3xJvJkydj7dq1Hn99+vRxmy8tLQ0jR450mzZ69GjU19fjs88+87r8U089FR988AHuvPNOrFq1ClVVVW6fb9u2DXv27MG1117rlluTmpqKSy+9FF999RWOHTuGo0ePYu3atRg1apRbfbu0tDSPY8TIBx98gM6dO+Occ85pcF4jW7ZscR4LBQUFuP/++zFjxgzceOONznnee+89WCwWjBkzBidOnHD+5efno3fv3iFr5W50HALAWWedhbS0NOf7vLw85ObmNnjuffrpp+jevbvH8TZu3DgIIZw5Xz179kS/fv2waNEi5zxbt27F119/7VY8+t5776GoqAh9+vRx2y7nnnuuYXH32Wef3WCdW62TTjrJ8Bi+++67Peb193zTOuWUUwAAV1xxBV577TX89ttvHvP4u81Wrlzp9VzS+umnn/DDDz8406vdbueffz5KSkqwbds2r2mm+MQiYAqJgoICj2mVlZU444wzkJiYiNmzZ6Nz585ITk7Grl27MGrUKI+buZHs7GyPaQ6Hw6/vJicne1SudzgcOH78uPP9gQMHkJeX5/Fdo2lG2rRpY3hDfPjhh3HXXXcBcN0A9Iy22ejRo/HJJ5/g7rvvximnnIL09HRYLBacf/75huucn59vOE1bRAo0bTv60qpVK7+Kv422p0q7Pq1ajz32GFq1aoV//etfeOihh5CYmIhzzz0Xf/3rX9GpUyfnd422ZWFhIerr63Ho0CEIIVBfX+91ezVk3759bg8igTrppJOwZMkSCCGwY8cOzJ49G3PnzkWvXr1w1VVXAQD27t0LIYTXY89XsWtjJScne6272thj5sCBA4bdoBQWFjo/V8aPH4+bb74ZP/zwA7p27YpFixbB4XC4PYDt3bsXP/30E2w2m+Hv7d+/3+290bHgS2Jiot9VOPw937TOPPNMvP3223jsscdw3XXXobq6Gj169MDMmTOd6+nvNvN2vdKnS1VrmDZtGqZNm2aYLv12o/jHAJBCwqgPv08//RR79uzBqlWrnLl+ANwqvUdadnY2vv76a4/p3ipV6w0dOhRPPvkkvvnmG7ebiD8tAfXbrLy8HO+99x7uvfde3Hnnnc7p1dXVOHjwoOEyjNJZWlqKjh07+pX+cDGqZ6fSbhRoKCkpKbjvvvtw3333Ye/evc7cwAsvvBA//PCD87slJSUe392zZw+sVisyMzMhhIDFYvG6vRrSokUL7N69u8H5vNEGGaeccgrOOuss9OjRA1OmTMGIESOQmpqKnJwcWCwWfP7554ZdkPjTLYl64NE3dPJ2s29s35u+ZGdne90fANzqsV599dW4/fbbsXjxYjz44IN46aWXcPHFF7vl4OXk5CApKcmj8Zf2c61QrJPS2PPtoosuwkUXXYTq6mp89dVXmDt3LkaPHo127dph4MCBfm8zf69Xav4ZM2Zg1KhRhmnq0qWLzzRT/GERMIWNuhDrb1z/93//F4nkGBo0aBCOHDmCDz74wG36kiVL/Pr+bbfdhuTkZNx88804cuRIk9JisVgghPDYXv/4xz88Wssq+v7L1qxZgx07dmDw4MFNSkuwHTlyBO+8847btFdffRVWq7XBxjxKXl4exo0bh6uvvhrbtm3DsWPH0KVLF7Rs2RKvvvqqW8OVo0eP4s0333S2DE5JScGpp56Kt956yy0H+MiRI3j33Xcb/O3hw4fjf//7n18Nl/yRnZ2NefPmYe/evXj88ccBACNGjIAQAr/99hv69+/v8dezZ0/n973lxKlcpO+++85tun7bh9KQIUPw/fffY/369W7TX3zxRVgsFpx11lnOaZmZmbj44ovx4osv4r333kNpaalH69gRI0bg559/RnZ2tuF2CWeny0093xwOBwYNGoSHHnoIAPDtt98C8H+bnXXWWV7PJa0uXbqgU6dO2Lhxo+E269+/v1vxPpkDcwApbIqLi5GZmYmJEyfi3nvvhc1mwyuvvIKNGzdGOmlOY8eOxSOPPIIxY8Zg9uzZ6NixIz744AN89NFHAODRClDvpJNOwj//+U9cffXV6NmzJyZNmuTsCLqsrAwff/wxAPjVqXB6ejrOPPNM/PWvf0VOTg7atWuH1atX47nnnvPawvCbb77BDTfcgMsvvxy7du3CzJkz0bJlS9x0002BbYjfDRkyBKtXr/a7HuDOnTvx1VdfeUxv0aKFWy5odnY2Jk2ahJ07d6Jz5854//338eyzz2LSpEk+i1YHDBiAESNGoFevXsjMzMTWrVvx0ksvOQM7AJg/fz6uueYajBgxAjfeeCOqq6vx17/+FYcPH8a8efOcy3rggQdw3nnnYejQoZg6dSrq6urw0EMPISUlxWsOqzJlyhT861//wkUXXYQ777wTp556KqqqqrB69WqMGDHCLajx13XXXYcFCxbgb3/7G26++Wb84Q9/wJ/+9Cdcf/31+Oabb3DmmWciJSUFJSUl+OKLL5zHFyDrz7311ltYuHAh+vXrB6vViv79+yM/Px/nnHMO5s6di8zMTLRt2xaffPIJ3nrrrYDT11i33XYbXnzxRVxwwQW4//770bZtWyxbtgxPPfUUJk2ahM6dO7vNP378ePzrX//CLbfcglatWnnUs5wyZQrefPNNnHnmmbjtttvQq1cv1NfXY+fOnfj4448xdepUDBgwoNHpraqqMjyGAc9+KRtzvt1zzz3YvXs3hgwZglatWuHw4cP4+9//7lYf2t9tdt111+GRRx7BddddhwcffBCdOnXC+++/77xeaf3f//0fhg8fjnPPPRfjxo1Dy5YtcfDgQWzduhXr16/H66+/3thNRrEqYs1PKC54awXco0cPw/nXrFkjBg4cKJKTk0WLFi3EDTfcINavX+/RYs1bK+ALLrjAY5mDBg0SgwYNcr731gpYn05vv7Nz504xatQokZqaKtLS0sSll14q3n//fcPWdt78/PPP4tZbbxVdunQRSUlJwuFwiLZt24rLL79cLF26VNTX13ukYd++fR7L2b17t7j00ktFZmamSEtLE+edd57YvHmzR6tU1Srx448/Ftdee61o3ry5SEpKEueff7748ccfPbaX0f7Rt1ZU8/pzmWioFfA111zj8furVq0S/fv3Fw6HQxQUFIi//OUvHi0UoWsFfOedd4r+/fuLzMxM4XA4RIcOHcRtt90m9u/f7/a9t99+WwwYMEAkJiaKlJQUMWTIEPGf//zHI93vvPOO6NWrl7Db7aJNmzZi3rx5Xo897fYWQohDhw6JyZMnizZt2gibzSZyc3PFBRdcIH744Qef28rX+bFs2TIBQNx3333Oac8//7wYMGCASElJEUlJSeKkk04S1113nfjmm2+c8xw8eFBcdtllonnz5sJisbilv6SkRFx22WUiKytLZGRkiDFjxohvvvnGsBWw0TkihNwPN998s8d0o+1iZMeOHWL06NEiOztb2Gw20aVLF/HXv/7VsOVpXV2daN26tQAgZs6cabi8yspKcdddd4kuXboIu90uMjIyRM+ePcVtt90mSktLG0y3N75aAQNwHp+BnG/68+q9994Tw4cPFy1bthR2u13k5uaK888/362lfCDbTF0jtNerNWvWGPZasHHjRnHFFVeI3NxcYbPZRH5+vjj77LPdWp+TeViEiOCgpEQxYs6cObjrrruwc+fOqBiaTG/x4sW4/vrrsXbt2kb1QRhOgwcPxv79+7F58+ZIJ4WoUWLpfCPyhkXARDqqI+KuXbuitrYWn376KR577DGMGTMmKoM/IiKiQDEAJNJJTk7GI488gl9//RXV1dVo06YN7rjjDmc3LkRERLGORcBEREREJsNuYIiIiIhMhgEgERERkckwACQiIiIyGQaARERERCbDVsBNUF9fjz179iAtLS2k400SERFR8AghcOTIERQWFjY4wlO8YgDYBHv27EHr1q0jnQwiIiJqhF27dpm2f1cGgE2gBs/etWuXX2O7EhERUeRVVFSgdevWzvu4GTEAbAJV7Juens4AkIiIKMaYufqWOQu+iYiIiEyMASARERGRyTAAJCIiIjIZBoBEREREJsMAkIiIiMhkGAASERERmQwDQCIiIiKTYQBIREREZDIMAImIiIhMhgEgERERkckwACQiIiIyGQaARERERCbDAJCIiIjIZBIinQDyJARQUiL/a1ksQEGB/K+dp74e+P57ICcH6NsXsFrl9D17gNJS+d38fPld7fuSEvf3hYVy2YGmE3Cly9c86jf37gXy8uT7jRtl+oUADh4EevSQ6dizB9iyRa5Tnz4ynaWlrm1ischlCCHXPTtbvi8rk8vbv1/OU1Qkl6dd17w8+b+sDMjNla/37pXfO3AAaNHC9ZslJcC+fa5ltWzp2v579rivy4YNct7sbLkP9L8jhFwnIeRv5Oe7pgFy3dW+Ky2VaenRw/M3tdtBbQtv+0+//fXb0Nt+8+f72t8vKJCvtduksNB4mvo97TEshJxHCNf6aI9X/fJzc93TbbQuvpaflyf/q9/S/85vv7mOP+05Fci2aOjcCDftMauO+9JS1/HdvbvrdZ8+cp3jlT/Xrkj9dlM/16uvB779Vl4Tu3eX85eWyvfaa532uNi7V/5X54n6XXUtU9ejvXvl6969XddQ9d3cXDm/9pwDPK+76nfUe/31W13/KPgsQugvYeSviooKZGRkoLy8HOnp6UFbrjphtSdPdrYMCIxuOOozi0UGDOoE37dPzqOCDcD95NNe/BtzovlzIaqvl4GREK4LAuAK3rZskfMA8obTvbucZ9++wNZdG9Q0df5YWwYgAxVtQFNQ4DvoVfP6uoGogEEFwdrfEUJepIHgr7vFItPYp4/rBlFQID/79luZlqws17rrg2l1PDW0rdQ6aH+zb1/5+rffgM2b5bK06dE/FKjjdf9+V+BvFLyG+wZmdG5qA8AWLeR/o/Ms3m+86vq6b588FgoKAn/4bYpAAjz9w4n24d/X97XnbbRcpxozv/a8DPYDSaju37Ekjp/xiIiIiMgIA0AiIiIik2EASERERGQybARCRBQkqgGPqr8Ui3Xo1DpYLOGtG0dE4cUcQCIiIiKTYQ4gURzTtnRVLYG9zRdt3ZYQmYH+3CMKF+YAEhEREZkMcwApamg7QGbvlERERKHDHECiGCeE7PBV2+krRQfVKe+ePdw3RBRdmANIRETkp3DUl1XDrKmRaFgnl0KBOYBEZEgVyTNnkYgo/jAAJCIiCgNVJUD1FRlry6f4wiJgk1G5Ouo1EcUudt9DRI3FHEAiIiIik2EOIBFFNVWsJQRzrRtD5RJy+0WeKoHZvx/IzY10asjsGABSWGlHpuAFkIiIKDIYABIRxRBtvb/8/MimhYhiF+sAEhEREZkMA0AiIiIik2ERMBGRH/QdY7PLFfImXN3z6H+HKBAMAInikDZYIfPQtvgFGKQGU7RtW9U6vqwMyMuLbFooNrEImMgkhJABIUcJIAo99RCmujAiijYMAImIiIhMhgEgEVEDVHGbqv9HRBTrGAASERERmQwDQCKiIFJ1v1jXkoiiGVsBExERBUhVC7BYQtvVSyDpKSnhgwf5jwEghZ1qjVpfzwsVEcUOlbsLyK5XIhX0qXSwP0pqCgaAREQ+8IGFwqG+Hli/Xr7OzY1sWsgcGAASUdRjx9ZkdtqOqPkgQsEQk41AZs2aBYvF4vaXn5/v/FwIgVmzZqGwsBBJSUkYPHgwtmzZ4raM6upq3HrrrcjJyUFKSgpGjhyJ3bt3h3tVYpaq/8L6JkTG2BgkeqjrVSx3yszjiYItJgNAAOjRowdKSkqcf5s2bXJ+Nn/+fCxYsABPPPEE1q5di/z8fAwdOhRHjhxxzjNlyhQsXboUS5YswRdffIHKykqMGDECdXV1kVgdoqjCfu9iFwMFIvJHzBYBJyQkuOX6KUIIPProo5g5cyZGjRoFAHjhhReQl5eHV199FTfeeCPKy8vx3HPP4aWXXsI555wDAHj55ZfRunVrrFixAueee25Y14WIiMxFPWQFc1l79zLoJ//FbA7gjz/+iMLCQrRv3x5XXXUVfvnlFwDA9u3bUVpaimHDhjnndTgcGDRoENasWQMAWLduHWpra93mKSwsRFFRkXMeIoo85mZRvAhFrjrH96amiMkAcMCAAXjxxRfx0Ucf4dlnn0VpaSmKi4tx4MABlP7eRj8vL8/tO3l5ec7PSktLYbfbkZmZ6XUeI9XV1aioqHD7I6LIMfMNkPVwY5v24aa+3tXIifuSwiUmi4CHDx/ufN2zZ08MHDgQJ510El544QWcdtppAACLrnMkIYTHNL2G5pk7dy7uu+++JqSciMxMteQEoqPzYAotbb+BBQWRTQuRXkzmAOqlpKSgZ8+e+PHHH531AvU5eWVlZc5cwfz8fNTU1ODQoUNe5zEyY8YMlJeXO/927doV5DUhIvKNxeLxT5+zzUZZFApxEQBWV1dj69atKCgoQPv27ZGfn4/ly5c7P6+pqcHq1atRXFwMAOjXrx9sNpvbPCUlJdi8ebNzHiMOhwPp6eluf0RERN6ogD2UXdCo3ygrk38MFMkfMVkEPG3aNFx44YVo06YNysrKMHv2bFRUVGDs2LGwWCyYMmUK5syZg06dOqFTp06YM2cOkpOTMXr0aABARkYGJkyYgKlTpyI7OxtZWVmYNm0aevbs6WwVTESehAD273fdXFiESRQ8+lFnVGBnsQAtWkQ6dRRvYjIA3L17N66++mrs378fLVq0wGmnnYavvvoKbdu2BQBMnz4dVVVVuOmmm3Do0CEMGDAAH3/8MdLS0pzLeOSRR5CQkIArrrgCVVVVGDJkCBYvXoxmzZpFarWIiChGaet3GvRQRhR1YjIAXLJkic/PLRYLZs2ahVmzZnmdJzExEY8//jgef/zxIKeOiJpK1XkqK2NRVrCpXCVtTi7FLpVrSBSomAwAiSj+qRubEEBOTqRTQxRe6vjXFv9qzwlWv6CmYgBIRFFFXw+K/Kdy9/btY9DcFNHcXY82MMzOjnRqKJYxACSKIyoAYPBEFL3UeXrwIAN1ihwGgBQQ9WSsWqgRUWzQ1v3Lyop0aogo0hgAEsURbfEpEQVPpIrXWSWCQoUBIAWdtv6Mj4FViIjCiiNqELkwACQiIgohlXuorzqjbdVLFG5xMRQcEREREfmPOYDkfDoFZNcCFkv0dX1AFEoqJ2bPHqCwMNKpoUjRNnIDeA2k+MYAkPym6s/s3Qvk5kY6NUTkjbavOA5LFjpCyOuhEPKh2dd8HEObog0DQKI4ox8aijcbotDQ1uFjoE2xhgEgEUU1BrQUS7QlJWzcQdGMASAREZEXql4g++GjeMNWwEQmoxr9qG4piOKdP8e8yrnjeUFmwQDQJLS92Afj4hbs5RFFAwYBRGQWLAImIopxKnDlGN3hUV8PbNoktzXrpFKsYgBIAdMOKm908dP2K8juYogo2ql6fuq6RWQGDACJiJpI2+9eTg5zheKB6uOvvp77k+IT6wASEZGpsU4zmRFzAMkrVSwC+O7lniheqFyfeAsEtAEOSUIAZWWyKktdXXztbyJ/MACkkFPFY/X1kU4JUfxRwZ3FEvo6t/qHwmgvGg1GH37a4d4CWYa2A/Ps7Mb9NlEoMQAkv2lzEbKyIp0aIvKHvnjTn6BN2ygiPx8oLIz+YC8YtEFbXp57gzeO40vxhgGgCWgvYmRu2sYKbKHdNOq8OnAgeosPVfcwjS3S1rboLywMbtqihX4/MsAjs2AASCEhhAw4Vd9kFN20N/r8fN4EIynWilmjlXZM3hYtXNckf+r7aYPCUJd2cKxrihQGgBQ0HDOTYlks5Ogp2nq13gIG7TzRvj7RRBuQMRijeMYAMI6o3uktlshVOtbWN+LFkyh8jOqrNXY52hwpq1XWhyOi+MIAkAC4FwFaLK5cgy1b5LT6eu9dwaiiFvVav8wDB0KXbqJoz+nSnltN7U5JW6evvp6dTxNR4zEAJCInFWBYLNEZTDWVthFMrHXNofZNaannvlH122J9n8Vi/UfVn+C6dcDBgzIYZ44pxQIGgCakv1mom71qJdyiReTSRkSe6uuBb7+NTBdMKijbu1cGNhaL9zHAYy14IzIzBoDkQRVZqY5PfV3I1bysJxRbVE7Yb7/JfRdoJ7fUsHh7qNJ2OJ2fH+nUeKcC0Ugd0/q6mAyEKVoxAKQmUYGE1Sr7lWuoRaLCiyLFK6Mcdn+/pwKXQL5H0UN/nSOKZgwAyU1T6kjpx1HlDSy2aAOXaM7hiTXac6ox27WpnTmbgbb4Wb+N2RE+kTEGgEREYWKGDre1DYnCWRdQbVv126ySQuQbA0Aik9LW3+SwcKGnzcnLyYl0aiKvqY1GfOX6aedRXeYA8RlwEzUWA0BqkLrQlpR4L0aJpVEUyB2LyCiaqKokQsjxhxsTGKqqDHywIfKOASBRnAu0o2R9K3BqOu0+UB0479kDtGzpGeCoAEgVY5aWGvf9F2+EkK3SN2+W7/0J3rTFvvrGN9HcOThRNGAAGOfY+pZ8aWyLVQo9FRB9/338FmFqc/v0o6T4W5dQXeMY6BEFhgEgNYhBJBGFiraKib7vUW0On6JaUzd1WD0is2MASERu4mVYsVihH+JN24F0XZ059oPRMac6ndZuj+xsWc+4rCy+hywkCgcGgEREFFNieUxnomhhjXQCiIiIiCi8mANIRBRm2nF1WZeNiCKBOYBEREREJhPzAeDcuXNhsVgwZcoU5zQhBGbNmoXCwkIkJSVh8ODB2LJli9v3qqurceuttyInJwcpKSkYOXIkdu/eHebUExEREYVfTAeAa9euxTPPPINevXq5TZ8/fz4WLFiAJ554AmvXrkV+fj6GDh2KI0eOOOeZMmUKli5diiVLluCLL75AZWUlRowYgbq6unCvBhGRs2FDNPZpF6q0RfM6E8W7mK0DWFlZiWuuuQbPPvssZs+e7ZwuhMCjjz6KmTNnYtSoUQCAF154AXl5eXj11Vdx4403ory8HM899xxeeuklnHPOOQCAl19+Ga1bt8aKFStw7rnnRmSdiMgchJBdmagRQWKlOxNtun/7zX3oR9UiVzttwwbvn6lp3tabnZQThVbM5gDefPPNuOCCC5wBnLJ9+3aUlpZi2LBhzmkOhwODBg3CmjVrAADr1q1DbW2t2zyFhYUoKipyzmOkuroaFRUVbn9EREREsSYmcwCXLFmC9evXY+3atR6flZaWAgDy8vLcpufl5WHHjh3Oeex2OzIzMz3mUd83MnfuXNx3331NTT4RERFRRMVcDuCuXbswefJkvPzyy0hMTPQ6n0VXXiCE8Jim19A8M2bMQHl5ufNv165dgSWeiIiIKArEXAC4bt06lJWVoV+/fkhISEBCQgJWr16Nxx57DAkJCc6cP31OXllZmfOz/Px81NTU4NChQ17nMeJwOJCenu72R0RERBRrYi4AHDJkCDZt2oQNGzY4//r3749rrrkGGzZsQIcOHZCfn4/ly5c7v1NTU4PVq1ejuLgYANCvXz/YbDa3eUpKSrB582bnPERERETxKubqAKalpaGoqMhtWkpKCrKzs53Tp0yZgjlz5qBTp07o1KkT5syZg+TkZIwePRoAkJGRgQkTJmDq1KnIzs5GVlYWpk2bhp49e3o0KiEiIiKKNzEXAPpj+vTpqKqqwk033YRDhw5hwIAB+Pjjj5GWluac55FHHkFCQgKuuOIKVFVVYciQIVi8eDGaNWsWwZQTERERhV5cBICrVq1ye2+xWDBr1izMmjXL63cSExPx+OOP4/HHHw9t4oiIiIiiTMzVASQiIiKipmEASERERGQyDACJiIiITIYBIBEREZHJMAAkIiIiMhkGgEREREQmwwCQiIiIyGQYABIRERGZDANAIiIiIpNhAEhERERkMgwAiYiIiEyGASARERGRyTAAJCIiIjIZBoBEREREJsMAkIiIiMhkGAASERERmQwDQCIiIiKTYQBIREREZDIMAImIiIhMJiFcP3T06FHMmzcPn3zyCcrKylBfX+/2+S+//BKupBARERGZWtgCwBtuuAGrV6/Gtddei4KCAlgslnD9NBERERFphC0A/OCDD7Bs2TL84Q9/CNdPEhEREZGBsNUBzMzMRFZWVrh+joiIiIi8CFsA+MADD+Cee+7BsWPHwvWTRERERGQgbEXADz/8MH7++Wfk5eWhXbt2sNlsbp+vX78+XEkhInJTUwOcOAGkpkY6JURE4RG2APDiiy8O10/Fhepq4NAh+V+1lzl4EDh2DKitBUpL5fT27eVnNTWAEPIzQH62dy9gswEpKYDd7n6Tq6mRf/X1QLNmob3xqd8SQqbLZgMcDrluR4/KNFgsMo0AUFkp1zMpSc538KBrXWw2Oa8Qcl206370qHyvXZfKSqC8XL5OSZGfqeU3awZYra75ANfytb+ptp9aVmUlcPiw/M3kZLmMmhr5+8nJcjm1tfI3qqpc6a2rk+uUlua5nmlp7vvcbpdpra6W6VAZ5zabnD8x0X0/qu2hT4d2m6jtnZDg2tb+7LvaWvndqir5XqWjslJOEwIoK5NpVNvLZnOlW6UZkPOr7VdbK9OTne2+D4SQ29TomFTHsM3W8LZS6VTPmvp9XFkp93N5OfDrr8DWrcAVVwDp6a7v1NTIefbvB04+2TXt0CG5P202+V4t226Xx2xNjWsZkdJQUKuOHW/no83m/3ESa7TXAHUuRavGPJyo43b3bnmeJScDmZmua4wQ8jzVX+vUdUptF+15BsjjRH/u2e2u+40Q8r3NJn/XYnFdpyor5X/tMoRwzas+01+/6+vl9YI1yIIvLAHgid/v1OPHj0fr1q3D8ZMxbdcu4JZbgO+/B5o3lzckQJ4w9fXyBFVBDQB07w7k5MgLWqtW8uTdulXOa7UC+fnA2WcDK1fKkz45Wf6GwwF8+SWQmwsMGwYMHSo/D4S6wLRqZfz50aPAyy8D27fL9y1bygtHcbFcv127XBfi9HSZlh9+kBe85GT5XwUezZvLC0p1tVy32logI0MGF3v2AD//LJfTrx/QooX87nffyWlVVXLZbdvKm73aNgcPAgUF8iJUVycDsaoq4MgR+Zu5uXL5QsigWwU8R47Ii1NOjkx3fb38zbQ0ua7/+59rG2Rny+2amCgvwmlp8vUPP8jlFRa6AsA9e+Q2y8uT63bsGHDggFzX2lq5TkLI9WjbVn5WUSF/R13Mu3UDLrhArue//y0Dvm7d5PpYrfK3kpOB3r1dQY2Rmhrggw+Ad96Rr1X6Cwrkem/aBBw/LtdBPUjU18v1SE6W77XBckqK/FMBXE2NTH9CAtCjh/xfXS33Q8uWwDXXyM9//VUev/X1wJIlwI8/yvSpIDsjAzjnHLmvf/pJLuPECTk/INOSnCy3T2am/FPnQFmZnP+33+S86enAqFHA118DGzbI5f3yi1ze5ZfLbfbii3IfZ2YC/fvL/VVSIreLEPKYOe88YNs2eTPr1Sv8gVRVFfB//wd07gycdZbctjabvC4cOiSvH+vXy23Qpo3ct1VVrofL1q2B66+X+9nhCG/aQ+2774BZs+Rx1rq1PE5vuEGua7iC9s2b5TWkXz/j31y+XB6/HToAixfL83fQILkfrVbgo4+ALl28PyR99BHw2Wfy2iCEnC8nR+7f8nJ5zths8sFGPaSlpclz9fhxec3LyZFpqKpyPVRlZsr/R47I4z4xUR7bVVXyO9XV8hyqrJTHWUGB3MZHjshzrb5eHk/qXM/IkGm0WuUycnLkteDwYbn8PXvkeXvhhcCdd8p7AAVPWALAhIQE/O1vf8PYsWPD8XMx74YbgG+/la/37pV/vnz/vev1unXyhFRPbOrzTz/1/v0dO4Bnn5VPWKed5v/NqqoKuPFG+frJJ42f0F56CXjjDff0AcCqVe5pDJa6OnnzNnLggLwB6pWVeV9eQ91TlpTIP8AVmBj97oED3pehgg9/0wTIC+TGjcafHTwobxYffugKvL2l7Y03XMGBXm2tPG5KS13T9uwBtmzxnTaVBr0jR+Sf3okTnuuydasMFv/9b/m+rk4GbdpjSeunn1y5nU2xaxewbx8wb54rgFS2b5dB088/y/dlZcD777s+1wb9SUny2AfkuRXuQGrZMhlELF8OqI4XvvkGmD3bc95du4ynDRkib7jxFgCuWOE659Sxffw4cNdd4QkAa2qA6dPl63vuAfr2db/m7twp0wIAI0bI9K5YAQwcKKctWwYsWiSDptde8zx/a2uBt97yvIZs2xZYOn/91XPajh2BLePwYeNrrjc7drjuEVqdOsmgkgFgcIWtCHjIkCFYtWoVxo0bF66fjFn33y9Pms6d5YWqtlae5A6HfBpSWesHDsgbTUKCvID99pt82lPFdHl58kasioUbUl4ub8b+BoCHD7u/Nvqd/fuNv6sN/jp2dD0xqulWq3x6VMWd1dWunB2Ve1RbKz+zWuX0ykpXceDx4/IGnpws51dPsvX18qlTLUvlvB054soFVDlFJ07IbaKWY7HI9CQlyc+OHZPzW62uIk+bzfV0q3IZbTaZJpWLp4pMVKCucubq6+W05GS5PR0OV9GpxSJ/UxWV1Ne75le5hEp9vavYpSHaIl09m82V05yVJffHDz/IdVY6dJCBmsqZrqyUgVhamkxDfb1rmspBTE2V+0Ll0qlcTbUtVdCqDRZ/+knmVCndusllqmJcFfw5HPK8qamR26yqyrU9AXmMHT/uWk6rVjLHQj1EZWS4ip0Auazt213HtsoJad/elU4jX33leq2OtXAGUtqbv90uj8nVq43nLShwzXP0qCso+u47oKgo9GkNN6MuaHfskOsfDtprX2mp5zVX+/C0c6frtdpHGzbI9/X1xuevuj4C8vi1WuW5pIpr6+rcr4/q+lpT48rFF8L1m9XVrpIRVY2lvt5VCpKcLD9X1+N9++Q55XDI7zRrJr+nPktOlp+rqiWqGk6zZvL9sWPyd9W1PTcXOPXU6C6mj1VhCwCHDx+OGTNmYPPmzejXrx9SdGWNI0eODFdSol7v3sDDD8ubngoEkpNddXNSU+X/igp58ThxQl5InntOfl+dvFdfLYvpPvnE9+8lJckTVWXNN4aqL6LP1WvWzPf3MjOBc8+VF4Yvv3TlRlx0kcw1sVhk0Sogb07l5fJikpAgt0lKiryp19a6colUMAbIz3Nz5fzHjsn/al6LRaYvJcUVSBw/LrdvQYH8fnm562aakiKLJrt1k/ulrEx+z2qVAVJZmZyu6vW1bCnTrOoAVle76sGoongVNNXVyWWoelf79snfzM6W82VlyWUcOiR/o7JS/sbRo3J5r7zivs3btvXMwTKibiqAZ10ju90VWI0ZI9Pw3Xcyd0G56CKgXTu53Zo1k8dkVZUMpISQaayocAVOqanyaf7oUVdRu3qgOXxYzmuxyJxXVVcSkNtY3SjatpV19Y4elbkU2lzBjAxg0iRXnUh1jqjl68+HkSPl8fXuuzJ3LyHBtT1sNpmTmpkJ/Pe/Mu2q3umZZ7oXv+tpc0qECF9wof1NJTdXHi9G52JRkaxCoh56amtlDvqmTXIdKiriLwfQKABs1kwe79rtFipVVa7Xqamex4Y2GFR1SwHXftSmX3v+aqepc//yy+V+3b1bnoOqCoYqCk5Kcl3rqqvldPUwV1cnrz+qbp66lqWny9dWq7wepaTInDlVB33/fnnuVFXJtCQlyXSr48hul+e2ynBQdQktFte6aa/fvXvL9WDuX/CF7bI0adIkAMCCBQs8PrNYLKjTZiuYXGKirDeRkOCqkJuRIU8YdaEC5IlZVyc/27XLFQAqXbvKE7WhADA52XXTDqSukvZiqYqKtBcswPhiq5WeLp/uTpyQFxMVABYXywCwrk7e8I8edQU7isMhb94qlzQx0RXQ7d0rl5mU5LpwVFXJz44elfOpwKBFCxlwqQug1er+m0ePupal6sAdOCDr7h07JpfRqpUMwsvLXRWh8/JcAQ7gCkKPH5cX1hMnZDrUtIICV87V8eMyPTk58rvaRgmqIVBmpqsitTYArKuTv6/N6fJG3VR27ZLFg6efDlx6qevYU4Fbnz4yANQ2sGjWTBZLZWe7clBrauR2VhXO1TT1vZQU1/ZTudXqGFb7YNs2GQCquq+A3LfqWMrMlFUVjhzxDE7sdrnvFP3yhXA/Hzp1kgHsl1+6jim1TJtNHpvHjskAEHA94BQVyfqR3gJA7XGalhb+OoDa4F+dl0ZBaKtWsv5kXZ3cL5WV8m/TJjlN1TuNJ0brE86BqbQBoLrm7t3ramymva5qr6dqP6oHIcB1/uoDV7WOrVrJnHNVDy8nx1V6ooI47bUOkMeJChLVNcxicQWGmZmuacePy98uKJDfr6115S5ara7r8aFDrtIR7TJUiYYKZOvq3K/fycnyHM3PD+4+IClsAaB+7F/yTeX6qZazKstce6Krp6b0dHmCqJwmJTHRPRfFG20xYyC0uX3ecvoaiutVZWNA5pgpBQXyIqFdd30xpdF2sVhkQKJatGk5HPIzFXz4Wob2N7VPnvqnb7UPVOs1lbFtsbhy7bTpULm32nQYTVNFzvr0an/T23qqba690XijbirPPy+DwH/+U1a4BlxFUXa7vNFYra5jBXAVbasWuCrwdTjkuqt0qzTrt59atn4fqGNWu16q8Q8gt7HatvrjW38c6pevWhwr6qargj5t6/KEBBnkqxxR1RIakMdEQ7nbSmmpDBS1RdihZnS51QYOSmqqPO+0x5qq6K9aCIc79zLUIh3QHjrk/n7NGuDBB2WDrEmT3M9b/bx6Rg/dgGsd1TUzNVWeK9rriWpU5+v6qr+G6aep65R2GaoHAjW//jrl7dpoNL+6tlJohK0jaAo9/QVe282JL+rED/TCqA0AvQV6DQWA2pNbm+Oj7XKEfKupkTkJiqpTp24kp57a8DK0uYXqaVzV38zIcOVianOyQhUYqONRW6dUW7dVe8zobw4NHe/6z9V7tS4nTriOWRXgJSbK/yqHA5A3VH/OLUC2Xvzzn2VxdSgaPhkxOu+MHvCM9qHapgkJ8uEs3rqCCUYAqLrMacw1StuDQ22tbMgByCoIKgdN+3mgtN2BRborIopuYXu2u//++31+fs8994QpJfHLanW/8PsTAKr+voCmBYDeMngDCQBPO00WtXXq5Cp64tNfw2prZYDx+eeydbUKltTNSeWw+qLNzVLFSqoeTmqqDAZbtHDfH6G6uWiDMUV1LwO4p0EfnDQ2AFTrr+rUaqep39PmxqSk+J8DqJSUNO6G3hhG56NRAGi0D7XbKN6CP6Dp+6CyUgb1rVsDF18ceAvvPXtcr9XDmqIarDXFsWPuJQZE3oQtAFy6dKnb+9raWmzfvh0JCQk46aSTGAAGgdHNzZ8bovbmFwjt06+3i1ZDFzPthTM5Gfh//0/W1dJWxiffbDZZvHjRRTIABNxzGbQ5q95ogwNVrKQCHpUDqG+tGKr9o5arzQnR5gBq06APYBo63vVBm3rvKwdQHwA6HPKzQANA1Sl1sHMBDxxwVcZX28PfImCjAEGtV7xWy25qDuAnn8jGUN99J/vbDORB9aefZL+oir6ebk6OnMeIPw1U9u0DJk/2Ly1EYbvFfqs6ttOoqKjAuHHjcMkll4QrGXFNf0NSnYb6YrEY57j4I9hFwHa7qy9BbWMX8s1ulzcObTcJKgBUozw0hgq4VD9j+hFEQp0DqK0LpVoXAqEJALVBjz4A1I5QA7jqOPlbBKx4ayjVFDU1wLhxMs3z58vcc9XVh34+o/PbKIhX6x2v1babGgBq91+gdSRVYyJFjbyi2O3ecyhVun0Fgm++6f7wF+gxSuYS0cMjPT0d999/P+6+++5IJiNuNKYOoNUanAAwGEXA6n1yMoO/QNnt7jl96iag+tJqDLV/mzd31QULZwCobXH80UeuDmK1N1z98dNQrpw/dQC9FQErqiFMY3IAg6WiwtVyU51jP/7oSrv2fDx+XOY6ffyxf2mK9wCwqUXA2pKPQOtI6o8/fcM+/fL9ma6lzVFkAwpqSMSfDw4fPoxy7SMLNVpjioC1RVmhyAFs6CbCYt7g0ebmqlNKDcnmz3f1VA6cthsTfYezoaB+y1srZu3vBloH0J8iYHXMegsAG5sDGCyffAJcdZUM6rSdsatO4QH387GqyvsIKr7qALII2Jj2uhfog6p+m1qtngGgtwDVnwBQu27xPJYzBUfYbr+PPfaY23shBEpKSvDSSy/hvPPOC1cy4prRzS2QHMBAL/jByAHkBSq4bDZXB8iADF78ycnxFQBqu3UIZx1AbQ6glmqVq08P0HCw21ARsOr/TDvNKJdajZoQCfPmyf/vvCM7pFays13bQ7vPfXXvZMYcwKYGgP70rwm4xjnv0ME1zSiI89aHn57qV1NLf31tSnBK5hO2APCRRx5xe2+1WtGiRQuMHTsWM2bMCFcy4po22LNYAm8EEmjRiPZi5u2i1dBNRNuvHDWdCp5UH35qmMDGUAGgdh+FswjYW7q1gwipHGx1IwxGK+CGcgCbNZP1EcPZebCWdh9ozzuVzr17gbVrXdN9bRNfAaCZcgD93Zc1Ne51AFVfdUbzTZwoXz/6qKtus/6YVqMS6b9rxKivvg8/lEFmTQ0weLD7NZxdwFBDwhYAbvc1cCYFhfZCry7iDV3YIp0DqM1doqZT+1LlAKohBL1RnxkdJ+pmpQ0AtcFQpHIA9QGZGsMZCLwOoL4IuK7Osw6gNscRkJ1Dq+HrAhGsHDV9y3nlxAkZCNx1l/v8vh7sjHKJ1DZiDqC7mhpgxQrZcbN2WUaBlvba+MILsmN7NZ6uPi2BFAHrr5fa3tXUiEJKOIa1o9gWtlos48ePxxHt6O6/O3r0KMaPHx+uZMQ17c1NvQ5lI5BgdwNDTaduRupGYLX6LgryFRwYFQFr91eocsDUOnirA2gUAPqbpoYCQF/dwCh5eY0b3zdYAZW3HEA1dJu2nznA9z721QrYTDmA/qitBZ580r9laY/Db78FHnhAXi/1OYCBBIANdR+0bZt/D+VEStgCwBdeeAFVBlf0qqoqvPjii+FKRlzT5n7o6zZ5E+oAsKGbiD53hZpGBUPaYdN89QOo9o+/dQDDUaxk1A2Mlq8AMNBGIPoiYO3Yt/puYJQePWTL6EADwGANQaZNjzaX1KiIsKHfZR1A/xltK2/Bmv4427xZ/q4KANV1zygA9JY+db319psOh/s5E6/7j4In5AFgRUUFysvLIYTAkSNHUFFR4fw7dOgQ3n//feTm5ga0zIULF6JXr15IT09Heno6Bg4ciA8++MD5uRACs2bNQmFhIZKSkjB48GBs2bLFbRnV1dW49dZbkZOTg5SUFIwcORK7d+8OyjpHSmNzABv7xN/YVsDagCJcQ2OZhT54Skz0ncuqbib+FgGHo2K5+g1vRVi+AsBAioC182qLgNWxrKZpt03z5nKsXH9bV2uFoghYe8OvqzPePwwA3TW2Gxi73b2vTUC2tj982LPenrc+F7Ut61Va9NvZVx1Ab8sGZD3Do0dd7+M1B5eCJ+QBYPPmzZGVlQWLxYLOnTsjMzPT+ZeTk4Px48fj5ptvDmiZrVq1wrx58/DNN9/gm2++wdlnn42LLrrIGeTNnz8fCxYswBNPPIG1a9ciPz8fQ4cOdSuCnjJlCpYuXYolS5bgiy++QGVlJUaMGIG6GD5rjHIA/ckRaexQcI3NAdTm+pWVcczfYNIHgHa770DF1z5XAaB+cPdQayhnLVg5gNp5teeArwYlhYWuvt8C7QYmWJcWbZCnDQC97Utf+9hXHcAYvhT61JT10g+rOHEiMGmSHIGjoQdiu911TqlAUh8AGhUTaz8DfDe409ayitcAnoIn5I1AVq5cCSEEzj77bLz55pvIUs2hANjtdrRt2xaFhYUBLfPCCy90e//ggw9i4cKF+Oqrr9C9e3c8+uijmDlzJkaNGgVAFj/n5eXh1VdfxY033ojy8nI899xzeOmll3DOOecAAF5++WW0bt0aK1aswLnnntvEtY4M7c25MTmA4eoI2mKRxWjbtwO9e3sOMUaNp68/Z7P5PgZOnJABl68i4HC31G4oANSnVXvsBNINjHY5vuoA6jv+9fe39IJ1Q9YGvPocQCOB5gA2tlFYtFOjoaj9abEE3lDCaB+qTrm1OYvetp0+ANQXAU+ZAuzYYfzdmhrZwtvbA/POnf6lgUgJeQA4aNAgALIVcJs2bWAJchZCXV0dXn/9dRw9ehQDBw7E9u3bUVpaimHDhjnncTgcGDRoENasWYMbb7wR69atQ21trds8hYWFKCoqwpo1a7wGgNXV1ajWRD0VqqlllGhMDmBT6gBqn1QD6QamWTN5oUtIkBcpdgYdPPocwMYGgDU1rhtIuLuTaOh4OHTI/eEjkBxAb59rq0Ho6wDW1gJduwI//CC72lAPLNFQBKzGJwaCFwDGYxFwTY0cu3flSvchBQOtguIt+BLCfZznxgaA3oI/QHb5osb6NvLzz+7v42n/UWiErRFI27Zt8cUXX2DMmDEoLi7Gb7/9BgB46aWX8MUXXwS8vE2bNiE1NRUOhwMTJ07E0qVL0b17d5SWlgIA8vLy3ObPy8tzflZaWgq73Y7MzEyv8xiZO3cuMjIynH+tW7cOON2hZFQHMJBGIIE8MVZXu9c38XZhNFpms2ZAixZAmzaBD6VEvhnlAPoKqLztc+3gPKqfsXDxFXB26CDrOnnr7yyQIuCGcgDVNJsNmDwZWLhQHrNqeqBFwI3tj1FPuz+1I4EYNSgAfNd58zUSSDwFELW1wEMPyQBKbaPGXHe8nQcpKe6BeUMBoKoDWFrq/3X3q698f37ggPv7eNp/FBphCwDffPNNnHvuuUhKSsL69eudOWlHjhzBnDlzAl5ely5dsGHDBnz11VeYNGkSxo4di++//975uT6nUQjRYO5jQ/PMmDED5eXlzr9du3YFnO5QMsoB9KdbjMZ0BF1b2/iOoC0WV4VqBn/Bpe9EuaG6akb7vL7e1dlts2byfbBasPrD1zExfrz83NtwcIEUAWuDJaMAUG03u13249a5s/sDS6A5gE0dg1bRnlOqw2/AvXhTy1trasA8dQBtNs9+JRtz7fGWY+hPS966Os96tdu2uQfxvgTrAYJICVsAOHv2bDz99NN49tlnYdNcvYuLi7F+/fqAl2e329GxY0f0798fc+fORe/evfH3v/8d+fn5AOCRk1dWVubMFczPz0dNTQ0OactPdPMYcTgczpbH6i+aGLVw9KdITO2OQC74asixhhgtM1JjqJqBPrevoaJKo25g6urc65B6y0UMVUezvnIsW7SQQZg2t8Vbww4jgRQBa9Nh9MASaACotnFNjays39hcVe15pw0A6+qMgz1fxZxmKQI2CvaCmQOoD86Mtt1vv7nOmUgNI0ikFbZb8bZt23CmduDK36Wnp+Owv49APgghUF1djfbt2yM/Px/Lly93flZTU4PVq1ejuLgYANCvXz/YbDa3eUpKSrB582bnPLEonN3A6MeY9ZbT6K0OIIWG/obuTx1AwH3/nTjh3o9kuIvpfQWAmZnuaampCSxQ8XbsGbUCDiQ30Z9j2mKRwdjTTwNjxwIbNzYuCNSep9oAsLraFQAmJMgWy4DvQN0sAaCRQOu2qo62AffhCAHPINvoWqoGw7Jag9sB/mWXBW9ZZC5hq35fUFCAn376Ce3atXOb/sUXX6CDdrRsP/zlL3/B8OHD0bp1axw5cgRLlizBqlWr8OGHH8JisWDKlCmYM2cOOnXqhE6dOmHOnDlITk7G6NGjAQAZGRmYMGECpk6diuzsbGRlZWHatGno2bOns1VwLGpsNzCNbQSiLdIKZCQQ5gCGjlEAqK/3pg0IjG5U2r7wfI0kEqoAwdeNWT8UVm2t93p9RvzJAWzMsHJWa8MPUPX1Mr0ffijfv/EGUFTk+ztGtOeddlxabRciiYn+Be1G20tdD+rrvY91Gw8CbXymzeVLSXGvA60PAI2upf/9r/yfmBjcDvCLiuSxpJbNomLyV9gCwBtvvBGTJ0/G888/D4vFgj179uDLL7/EtGnTcM899wS0rL179+Laa69FSUkJMjIy0KtXL3z44YcYOnQoAGD69OmoqqrCTTfdhEOHDmHAgAH4+OOPkaZq3gJ45JFHkJCQgCuuuAJVVVUYMmQIFi9ejGYxnD0VyaHgvN38WAQcXvrgSV8H0GYzrrupLwL2FgRpb3RChKZxiK8AUB+M2Gzu8wfahYyi7QqpsTmAKjBr1sx7YK1vsNKYFvDa81S7/YVw1XNzOFwBoK+AoKbGM1DUHi/19fF7vgZ6qVfb1mLxfBBR50VNjfwzKnZXLXhTUmRDpmDR1kTKy3NvSVxTE/5W/BQ7whYATp8+HeXl5TjrrLNw/PhxnHnmmXA4HJg2bRpuueWWgJb13HPP+fzcYrFg1qxZmDVrltd5EhMT8fjjj+Pxxx8P6LejWVO7gQm00jcDwOhjFADqR7wIJADU76vaWuCSS4DPPpP/Q9E4JJAblt3uXhzX2Jud9iFI3w2MN97qHtrtxnXx6urci/7s9sYVrXvLeRXCFXg4HK70+aoDuH+/Z51KbVCqugmKR43NAXQ4PL9bUyPH/P3rX4GLLvJ9jUtJ8S8HsEMH4Jdf3KcZPVxog9GuXYEBA4CPPwb+9Ce5/xgAkjdhPbUffPBBzJw5E99//z3q6+vRvXt3pKam4tixY0jWP1JRwJpaBzAUI4F4awVMoaG/MenrAOpvBmqfa/dTXZ3rvf74sdmACy4Ahg5tuIuZxgo0KNIGL419uDAaCi7QImDF2/f050Jj0+qtTp+2EUhioisd3nIAU1NdYx9724bxXA+woWNXdRyt+uzzFQBWVwO33Sa3/9//Dvga3Co11fdvz5ghO3xOS5PL0iosBLSdTzRr5t5Re6dOQHY28Ic/AC1bxm/wTsER9sMjOTkZ/fv3BwAcP34cCxYswPz58332v0f+aUwrYKBxrYD1QxgFEgBS6BjlAGpvAv4EgL5ywRwOmWNUWyuXG4rGIYEGRtr1a2wNDu12UQ82Dd08veUAegvQ9OdCYx+EvD2oabsZ0Qb+3gLA2bONg3jteoWz+59w89YlECDrVj7xBNCtGzBsmNxGDQWAKviuq/O9b9PSfBfLn3qqLNbdudPzs7Zt3QNAdX5fd51cbvv2sng5LQ3IzZXrEarW+hT7Ql4YV1NTg5kzZ+KUU05BcXEx3n77bQDAokWL0KFDBzz88MOYPHlyqJNhCo3JAbRYAs8BrKnxv9PReOpLLBYY3XiakgNoFFDZ7bLYKVQtg7WNHPwZhi6QjqC90d7QVZFpY1sBh/phyFd1C9UoxGp1/Z5RsGGzAa1aGbfw1q5LvJ6/zZq5nyv6ffPuu8DnnwPPPOPKCfTVt6a+LqymurmH1FTfff85HHKe1FTgqquA3wfTAiADvAEDXO8HDZLrccYZcnjN9HSgeXN5fgazpTHFp5DnAM6aNQtPPvkkhg4div/85z+4/PLLMX78eKxatQpz587F6NGj3foFpMYzuiE1dBNTQxgB/gWANTXAmjVyWCwtbzcK5gCGl66RPerrPesAaqn9ps8B9FYHMBxqa4HiYtlX3kUXyZwqX4KRA6hdhrYxhy/eioC9CVYOoK8h37StgNX57C0ATEjwPRKIr9+Kdd7OA0X7gKty2YyCa0Vfz9LXvk1NBU45BXj5ZdmwxNs10mYDhgyRrY1Xr3ale+xY4KyzZGOP886TwV5Skqu+JjvXJ3+FPAB87bXXsHjxYlxyySXYuHEj+vbti4qKCmzZsgUJrKAQVI0ZCg4IrBFIba2s6Kynv4ipp+Z4vYFEq9NPB5580nWzMmoFrKWCHX3XMJEMAG02OeJHcrIcki4hwffDifYyEswcwECKgH0VJyrBOhd85QBqO/ZW+9qoEcjtt3tvIKBKBbTLi3X6faJGuFH066ndn6ooVXX7kpTkGeA11A1MZqZr3ObERFlP75lnZC7jwoXGabbbZQ6ttnq8wyG/m5EB9Oolc3FVMS8DPwpUyCOwXbt24ZRTTgEA9O7dG3a7HXfccQeDvxBozFBw2nn9DQCNaC+mNTXAO+/IYhRfw1BR8GVkyHpCW7bI92lp7seF/oZvlAPoqxFIOKgbX1qavPk1FAAGowjYanX1kdiYImB/6gAGK5jyti20D1ypqd6LgCdNAvr08R3gqn4N4yUH3yiHzp9eDAAZdFVWuucM64MtfRGwfnnNm7sCQHVNbtUK+H3gKq/sdvm7Y8fKXMmePeW+ad5cLkeljagxQh6F1dbWwq45W2w2GzIyMkL9s6bUmEYg2pyC2lp5MVFj9RopKTGerr3g1dYCixb5l2YKLodD3lhUAKgfsUB/01fBhHb/nTjhuw5gOKih16qrG86JC0YRsPruiRNNDwC9CXUdwBMnXEFKcrJrPfQBYFZWww0E4m08YH0AaLd77xB93z7jB101T1qaZ/26hkYCad7c9TolxdXyWjvdG5tN1vFLTpZFxsw7oWAJy6F0zz33OLt5qampwezZsz2CwAULFoQjKXHN6IbU0I1JCNeFsKYGWLBAFnGMGWPcWelPPxkvR3tzY5XOyMrNdb222dz3jT6w95YDGMkiYL2GArFgFAHX1LgCQNXhb2MbgYS6FbCvImCVE6VyjgDPXPiUlIZzjuJtODh9gGazefZ9CQBffulZ51TtT7UdU1I8951+W+r3kfa4POkk1zFbUCBb/X79tfe0a3PEjxzh9ZWCJ+QB4Jlnnolt27Y53xcXF+MXXe+WFnYMFxSNaQQCuC5OlZWu4YouusjzKbimxr8AkHVRIkubq2CxuN98vOUARlMjED1tmmtqPHNftDfExuYAqm5tqqv9rwOovWxFSx1AbTGlen3kiPt8/uzTeM8B1LdiV8f/0097fldtR20n2/rA+D//cX+v327797tea0fusNuBP/7RFQB6uxVqc8TZrQsFS8gDwFVq/BsKucYWAauOTrXq6+WNVXvhrK0FKiqMlxNITgHj/dDS3mDKy933r/548NYNjL+dIYeDNg379wMtWrh/HowcQJtN3mSPHnXl9PjTgt7od/0NAEOZA9ismStN+hzAQB4K46UfQH0AmJTk2eF1fb3x9U0VoWtbWHurC+3t9667DnjgAdmJOuDarip3T+G1kcKJtQniiLdGIKpyuzdGAaBRMZHN5r0DU+1NKV5yDWJVq1au19oifsAzQIrGRiB6o0bJnJlTT3WNXKEVjBxANaTcoUOum3sgda38LQIORpGqrzqAKgB0OFx9KOoDQH/WK96LgI36yNMG0Prv1tS4roWJiQ3nwj3zjPv7oUNlznxiomfn29qcyGg438g8GADGEW/9kqkWfUaEMB6X0ujCb7d7zxHQzq8vcjL6TQqdggJg2jRXa0XtDUYfIKkbYzTnAJ57rhzWKjPTeOSKYLQCBjw7nQ4k+PFnO9XXN5xz5A9/cgC1XYeoOo2KGYuA9dvAZvO8lnm7tn32mRySTZ0rNptxoOiLwyHr/jU0gg4DQAonBoBxxNt4pA0VKxg9DXvL6fM2XXtj81ZMTOFht8uxQFXHsFr6QKW8XN7M9AGguhlGww3JbgeKirx3dBusVsD6B6GjR+W28Xaz1p5X/g4Fpw0yQtkRtM3mGo1C30AhkBzAeAkAVR9+itHD7J49xt+dP9/9vc3m/tCRlQUcPNhwGuz2hhtwsAiYwokBYBzx1i2Fr5u4KiJ2ONyLSbwFevonaUV7MS0vbzitFFranD9tcKc/Fo4fd+/2BYiObmD09DmZWsGoAwh4BoBWq9wW/jRq8jcADGUO4Natrm5/rFbXg52vTo69ibccQP16JCV5XstU10kN0Xaxo977EwD6IxoeuMg8eLjFEW+tPfUXlenTXa/VzUp/kzMaPQDwfJLOy3NfDhC8iyEFh7ecYcCVqxbNdQAbEqocwIKC4Pa5duJEcBpV+ArK1PmZkOB9HOVAAsB4qQOo32b6/jEBQNNZhU8pKb5b1jdFLJxvFD/CdrgtWrQIr7/+usf0119/HS+88EK4khHX/MkBnD5dVqbX0weA3kbw0E5v3hzo3l2+1hZdNBQAspgjcvQ3f6tV7ntv3cBESw6gL8FoBAK4B4AJCUDXrv53aaR9APK3CLgxuWtC+Pe9xET3eoBawR4dKBbo6+wlJHjup2++8W9ZSUmyY+auXeW1tEOH4KQRYABI4RW2w23evHnI0bZ3/11ubi7mzJkTrmTENX/qAGZnu3cUrD7T534YBYDV1a4b2KOPAnfd5brJaG8U3oqJKfL0NxhVJBnLOYDBakWpzTHLyQmsG5gePRr+/WAEgP7myCUnew8A/WnAEG85gPp1Ntq3R474d/w4HEC7dsC11wLDhsnhF4OFD8cUTmGrA7hjxw60b9/eY3rbtm2xc+fOcCUjrvlqBaykpho3+vA2tuX27cD//gcMGuSqTG6xyLFE9+93VTTX3ij0xcQUPfQ3PhXoR/NIIA0JVhGw9rzIypLHd06Of7mAl10mcyI7dwbuvdd4Hm1HzUDjgit/i5Dtdu8B4MGD3qt4KGo7Gv1eTY2cbtR9VDSqqfHsmUBf7UE59VRZFKzG7TWSlCT72uzUSZ4//jR6a2h7K7FwvlH8CFsAmJubi++++w7t2rVzm75x40ZkZ2eHKxlxzduN0FeDEJWLoc8BPH5cXrRuuUXOU10NdOsmP0tKkn/Jya7iN21uBruBiV7euoHR9+MYSzmAwWoEos0BLCx09TnoTyvglBQZBPrK1QtGDqC/AaDDYdy9k/qsocYoajtWVMhgSAV75eXAY4/JB8BzzpHbPpqHJquuBlatAl57zX16s2bAWWcB333nPr1tW2DXLt8BoDo3UlPlfvdnPN+yMv+2VSycbxQ/wna4XXXVVfjzn/+MlStXoq6uDnV1dfj0008xefJkXHXVVeFKRlzzVgSs7/HeiP4md/y4vEmoYG3LFlfr3qQkV+BgVFTEADB6GbUCBqK7H8CGhKIfwObNjfsc9EZ1F+Mt1w3wDAAb0yDEKGhMSfEshlQdW2ulpspiy5QU/wORxx8HFi+WpQCVlcDLLwNffSU75lY5gdGstlZWV9Fr1gwYPFjWic7Pd03v1Ml74xmlosI9R8+oREXrwgv931YMACmcwna4zZ49GwMGDMCQIUOQlJSEpKQkDBs2DGeffTbrAAaJr9aeSnm5+8XLWx3A6mr35VksrqJdu10+0dbUGI8YwAAweumPC6MAMJYbgTSF9hzo3Nn/4l9AFhc3VLdO278i4LsIuKZGnm/6okOjADAxUdbH1bLZZCCjzaXs3l3WVWzevOGgRVuNY/ly2RHyb7/J3DHFbg9uC9hQ8HZsqP4k+/WTuX5Ky5auai3elpOU5J6D6mtbnnkmcP75/m8r1gGkcApbAGi32/Gvf/0LP/zwA1555RW89dZb+Pnnn/H888/D7u9VlnwyGgoO8MwBNCr+MeoGRtuYQzsMXFKS64nWKAA0qhOjjfF5kYscfdBhVAewujq2ioC1N+emNFrQngOtWzcc/BUXA23ayGG+jIao0/M3B7CmBlizRo7msnq1e2Bp9J2EBJle/broh4Ds39934xCtsjL395s2ARs2uPcPmpvrf4AcKStW+P48NRXo3dv1Xgj3gFC5+25g/Hjg1ltl/VDtMeetqB2Q+6ZFC/+3Fa+NFE5hf37r3LkzOnfuHO6fNQXtzdpbTkNqqvvFy1cdQO1NoKLCfYxU9USrLQIWQhYVGXUErb2oxkJQEa+sVqBjR+Cnn+R7o6HgDh92BR2xkAOozVlpSgCorfdltfoeBQSQ59KCBcC+fTINDeXw6ANAb2mtrZXLrasD7r8f+Oc/XeesUQBotcqgRMvhcA8cs7NldyV5ef4FIt7qCOqLPvWjjESTn36S28+Idv8OGQLs3evqzqVbN+Dtt13zZmXJc6ZLF/k9m8193X3lANbXy4Db17bS7ichAh9mjqixQhoA3n777XjggQeQkpKC22+/3ee8CxYsCGVSTEF7czh4UF5wUlLcpxcWGl+w9NOOHgVKSlzv9+93Pf2npckn2spK9wBw8WJZN8iIP7kOFB7TpwM//ww89JBxAKgtwo+1ALAp/dapPi3T013Ftb6CJbvdFXipcZd90ee+q/NSCHl+qYcxm821HmrsWO0y9KqqjIs6a2tlce/hw7K7koIC/1ruegtA6ur8b80aDbTXL6V1a9l/X+/erv3rcMi6kSqQ1+ZPtG8PXH+9nE/VDdTn0vnKAfSn3l9trWs4uV69or9eJcWPkAaA3377LWp/v+J9++23XuezMN87KPStgI8f9wwA9RXD1abXB4CVlTI3TzlwwNXBc0qK64lWBYC1tcDzz7svIydH3tgosrQ39Opq2WCgoMD1HnAPLI4dcwXssZBbq718NCX3pEMHV86bvw1AHA65rfyp11pb696/pr8Nsux21/JVYJiY6HogO3zYc+jGigoZ/N1+u/y8e3f/H8K0gaNWeXls9fFpFJAPGiTr5B075tq/+kAeAG67DSgtlcFix46+j4WmBoA2GzBjhixiLy6O/nqVFD9CeqitXLnS8DWFxmmnyaDt+HHZU726MPkzAL0+ANy3T+boKZWVrpwh7QVPXTA3b3a/oTkcsnWdCgC1gSAbgYSXNtepbVv3IsPqark/tPtEO38s5ABqg77y8oaLbr2x22U9ubIy/3L0ArVhg2xkoDQmp0cVI1qtMqBTAZm+25K6OjlPr14yx/7IEf8by9hswNSpwNdfywDoqadkiUBFhfcxwoPpt9/kQ2ZT+xk0enjJzpbF4PrtoQ/kzzxTbluLBWjVSm53b9ctX0XA/uRI2+0yyGzXzlW9higc+KwRRzIzgQkT5E29oMDVjYs/A9DrLzr79rm/r6935V5ou0nwNmJAWppsYbd5s3zvTxooNGw2YPZsmYPbvbu8yaggXvXxqN1/n33mKgaLhRxA7bGVldVw0a0vgeToNcayZa7XgdZXrKmRLXIB+XDVty/w5ptAz57uQXBBgUy/CiZSU12Bvj/sdqCoSAZ/9fXAVVcBzz0ng+uGzuPqahksNjaQ+fFHYMoUGXQ9+mjT+hk0ClZVYNnQ9rDbXQ1pGqrr6CvI8/e6p36PKJxCGgCOGjXK73nfeuutEKbEPFJTZfCVni6LbRuibkKqk2e9zp1dRcHqJqN94vUWIGRny6KWpCRZ5BjNncXGO3VD1+YEaXP2jh/3DEa0xf/RzmYD7rhD3qRPOsl3EZo2UMrPl+8jdWwGUl+xuhp44gng00/l+65dZS5/mzayXpvFIgPCb78FLr1UFuE2JaDQBiR5efL/hg2+v3P8OLBokdyuvXoF1o2OotZv927XvgpmANhQ9zeNUVsrA9bduz0/Y4MOimYhDQAzNL2TCiGwdOlSZGRkoH///gCAdevW4fDhwwEFitR0+pZ8NTXuXSFo9e0rGwzU1bn6Bmuoo1RA5kampQGjR7uK1BRW+Qw/fU5Qs2YyUDpxAvjkk9i+UdntwMCB/hV11tYC/+//AStXAldfLdc/FgLAr75yBUcdOwInnyy7F2nbVi4nIwP4059kvb2cnOA2uvJWFKtvEPLpp8Drr8vXTz3VuJxY7QNlU/oZPHIE+OILz+mhyGWz2YA775RF5h9+6N57gr41NlE0CWkAuGjRIufrO+64A1dccQWefvppNPs9Gqirq8NNN92E9PT0UCaDdGprZVHxl1/K3AJ1ExwzBti4Edi61VU/qaBAXsSOHXN176KtA+htGCR14TYqUmMdwMhTOV8nTsjiPW9ipUK6v0WdarzeDh1kABXJ9fMnAFQPS1u3yv9t2wIXXywfsJKTXcWU6enyXM3JCX49MtVgSE9fvKkNfAIZRUVLGwDm5MjrTqDXi5oaWXy8dq3nZ6HIAbTbZQ7gSSfJupjvviund+7sur4SRaOw1fB5/vnnMW3aNGfwBwDNmjXD7bffjuf1zUcppGw2mWNyyy2um6DNJodGmjTJvTiwZUvXzUR18KwNAFXXGXr6i7b2Kbi2lk/FkVZb69/NMN7qJdntMrAIpHPeprj5Zu+f6QPAujrg889lIwhFBUQ7d8r/XbvKP6OOqtVQdMFep8xMWQ9Qy2LxzDnVB29NTUegXfqo0VOOHpU5pkZCEQACrpbEXbu6po0eLbddrDxEkfmELQA8ceIEtqrHWI2tW7eivim9t1LAHA7XTVBdqNW0jAz3ADAlxRXwqYrQ2iLgZs2Mi9Dq6z2Dvj/8Qb6+4AI+FUeazSb3f0NioRFIoFSgFKpgQLvcggLg7LON59Nf9pYuBebNA2bOdE1r1kyeR9u3y/edOslcwKa2kA2EyuHSUo0jfH2nMbS5ikYdyntTXS0bOj3xhPFIREqoq5/07Stb8/brJ6skNLUuJlEohe3Z5Prrr8f48ePx008/4bTTTgMAfPXVV5g3bx6uv/76cCWDfme3ewZudru82Vx1lSzGuOkmeQHT93OlDQBra2UfVvoe9887zz3Is9mAsWOBSy6RQSafiiPLbpeBxI8/uk9X9egU7qfA/fWvsj/Ba66R27NrV1f9PS39Q9Dq1fK/tgW+1Sr3hwpq2rWLTFCur/cbqmoc2ta2lZW++9jT+uknYN06+VqN6GHk0KHQdmadnCwD+Npaec1jB/gUzcJ2ef/b3/6G/Px8PPLIIyj5vYv2goICTJ8+HVOnTg1XMkzNnxuHzSaHRho0yFU8rH/S116UbTZZHDViBPDee3La/ffLnA9t8GC3y+WpIhE+FUeetk865e67gXvucbWgjMccwFDr0we46y5XPcszz5T9YL72mvt8dXWeueR6Vqsr+LPZXC3qwz0ih/5hUQjPHExt7tpHH8nSg1NP9X2ul5XJADcpSc6nGpoBcnpOjn/p035P23+pVmam3H6h7JJKVTE4cYLXOYp+YQsArVYrpk+fjunTp6Pi9ysaG3+Elz+5OeoCVlfnGu5NHwDqA7ucHPfGIG3ayAutUR0lXhCjh1HuSn6+DAx//lm+ZwAYOFWdQg3jZrfLHHF9AKgfG9hbtQiVI5uRIR+iIjEGr1E1D1/VOB57TP5/9lm5LYyKi3fvli2XCwrkQ6Nq9KFoc6K92bpVBtH+jDh0882usXxDGUDzOkexIuwFPPv27cO2bdtgsVjQpUsX5Pj7iEdN5m93F/oOUPWBwvHj7hdQu919nqys2BhBwuxOPVW2ANbeyCsrZbGlwv3YOPoqFpmZnvMI4R5gGzWMqq11jfKRlRW5wMLo2uFPI42aGnl8GQWA//mP/F9SItfzxAn3wHb/ft/9NNbUyBFLAO/dWCkTJ8p90Lx5ZAJoomgUtuf7o0ePYvz48SgoKMCZZ56JM844AwUFBZgwYQKOxdIAkzGssfW5tN9LTJQ3IX0xivZGFmjrPYqM7GzgxRc9p2vrLTEADA5t4KYNhrTBt7cAcO9e+TqSBSZGQZi/RanerjvaY0t1G6Mtyn3iCVlE7K3HAO1tY+NG779/5ZWyY+r0dNbJI9IKWwB4++23Y/Xq1Xj33Xdx+PBhHD58GP/+97+xevVq1gEMk8Z2eKu9eZ15pgwC9cvS5hqpJ3eKbvrWnSkpcpp2X7KBfnBoz4c2bVyv9+515aZ7O2dUnbbExMidV43NATSqCqJoA0NVEKQNAI8flyObeCtq9pVvoG0IYrG493hARFLYAsA333wTzz33HIYPH4709HSkp6fj/PPPx7PPPos33ngjXMkwtcbmAGpbABYVyaGh9EU6p5wih6YaO9ZVnEPRT7sfc3Lkn7aLkaoqBvPBUFsruwhJTwdGjnRNr6x05aQ1lKNmt0fuvDIKnPRpCbRlsLbRiM0mgz99ULdvn/frlq9i3Guvdb0+dowNMoiMhK0O4LFjx5CnBpXUyM3NZRFwCGlv3klJjbuZay/UffoY90GWmAhMnuy6YLP7kNigrct50knyf1aWa5pqqMCbZ9PYbLIRgs0mAxKHQ2571V1IdXXDua0JCZHLkTU6n/XHhVHa/L3efPihcfctFRWujuOtVvdrz+HDxssqLnZ/aO3UiccwkZGw3aYHDhyIe++9Fy+++CISf28xUFVVhfvuuw8DBw4MVzJMp7ZW5sp9+ql8Km5MDsLBg67X2uJBLdUTPiDr9vBiGxtqa2UF+Y0bZVc+J064Fws3ZTxWclGt5VU/i8nJMuhzOPxrlNCpk8xhj1SrbH+KgI2uLf7WE3ziCVcAmJMDnHaa7Fbq44+Bb76R0849V07ftw/Ys8dzmw0cCHTpIodgS0+XHUMfPy77TuQxTOQpbKfF3//+d5x33nlo1aoVevfuDYvFgg0bNiAxMREfffRRuJJhOjYbcPrpwIABjR+fs6rK9Xr/fu8jSBiN+0vRzWYD+veXleTV8aHNieFIBsGjHa84OVm27lU5ZA11S3LllZHtQN3od2tr3XPajOoEBtLn3i+/yP/NmwPt27umHzwo//bskfUhVfcwbdvK/4MHy1y/zExXoJ2cDBQWugLuxtZ/JopnYXueLCoqwo8//oi5c+eiT58+6NWrF+bNm4cff/wRPXr0CGhZc+fOxSmnnIK0tDTk5ubi4osvxrZt29zmEUJg1qxZKCwsRFJSEgYPHowtW7a4zVNdXY1bb70VOTk5SElJwciRI7F79+4mr2s00Y592thK0FdeKYt4L7uM9fvijdGwgNocQNUhNAWXCpyOHZPB3+uve583N1f+5eVFLhg3+l19wGcU7PkqAvZ2HUlLM37IrKx07xtwxw75PzNTdmnUrp1sYKMeWlTAzQcYImNhfZ5MSkrCH//4xyYvZ/Xq1bj55ptxyimn4MSJE5g5cyaGDRuG77//HikpKQCA+fPnY8GCBVi8eDE6d+6M2bNnY+jQodi2bRvSfi/HnDJlCt59910sWbIE2dnZmDp1KkaMGIF169ahWRz1f9HUjkm7dQP+/nd5wW9sLiJFL32fddpDf8cOeRPnTTS4VHckqhHIqlXe583Pl8FfOMf/1fMnADQK6HwFgN4+q6/37K7FavVe/1Fdj9jFC1FgwpYD+MILL2DZsmXO99OnT0fz5s1RXFyMHepRzk8ffvghxo0bhx49eqB3795YtGgRdu7ciXW/DwYphMCjjz6KmTNnYtSoUSgqKsILL7yAY8eO4dVXXwUAlJeX47nnnsPDDz+Mc845B3379sXLL7+MTZs2YcWKFcFb8Thgt8scCHalYA61tTI3BZCNfpjjG3wqWKmqarh4MpJ1/xRvjUB8vQd8FwHrPysulkHuOed41jUePlzm8t18M3Dxxe6t11u14jFK1Bhhu6zMmTMHSb+Xe3z55Zd44oknMH/+fOTk5OC2225r0rLLy8sBAFm/t0LYvn07SktLMWzYMOc8DocDgwYNwpo1awAA69atQ21trds8hYWFKCoqcs5DLna7vGkx+It/NhswYwYwd64sUmOOb/Bpi4AdDuMA789/BqZPl93HRHof+NMNjFGwF0gAeMklwPz5QNeuniOn9OgBjBkj6zKPHOleR7CwkP1VEjVG2C4ru3btQseOHQEAb7/9Ni677DL86U9/wh/+8AcMHjy40csVQuD222/H6aefjqKiIgBAaWkpAHh0O5OXl+fMbSwtLYXdbkem7kqTl5fn/L5edXU1qjW1tdWYxkTxxOGQRY5ZWew/LVRUDqDqAcuo4VRxscx1j4ZGDI1tBeyrCFgfABYWulqd2+3uxb65ufJzNT75+PHAvHmubRTpHFKiWBS20yY1NRUHDhwAAHz88cc455xzAACJiYmo0jYzDdAtt9yC7777Dv/85z89PrNoO7CDDBb10/R8zTN37lxkZGQ4/1q3bt3odBNFM+b4hpY+ADTKwUpPj55GDOEoAk5Lcx1zaixy/WdqWqdOwEMPARdcILdRpHNIiWJR2ALAoUOH4oYbbsANN9yA//3vf7jgggsAAFu2bEE7VeEoQLfeeiveeecdrFy5Eq00TRfz8/MBwCMnr6yszJkrmJ+fj5qaGhxSI60bzKM3Y8YMlJeXO/927drVqHQTkbnpA8BoHz/b6JlYH/AF2g2MPndQ3+7u9+5iAXgGwdreDXJzoyNIJoo1YQsAn3zySQwcOBD79u3Dm2++iezsbACyLt7VV18d0LKEELjlllvw1ltv4dNPP0V7bYUQAO3bt0d+fj6WL1/unFZTU4PVq1ejuLgYANCvXz/YbDa3eUpKSrB582bnPHoOh8M5jJ36IyIKlLYVsD+jgESjYBcB62kDQm0wqKhcav2wlETkn7BlnDdv3hxPPPGEx/T77rsv4GXdfPPNePXVV/Hvf/8baWlpzpy+jIwMJCUlwWKxYMqUKZgzZw46deqETp06Yc6cOUhOTsbo0aOd806YMAFTp05FdnY2srKyMG3aNPTs2dNZPE1EFAoqx6q8HCgri/4cQCPBLgLW0+Y6GgWARNQ0IQ0Av/vuOxQVFcFqteK7777zOW+vXr38Xu7ChQsBwKPxyKJFizBu3DgAspuZqqoq3HTTTTh06BAGDBiAjz/+2NkHIAA88sgjSEhIwBVXXIGqqioMGTIEixcvjqs+AIko+vzeXSmqqmQumT4AbKCqclRo6lBwgYwSEulGMETxKKQBYJ8+fVBaWorc3Fz06dMHFosFQtPcTb23WCyoC+ARWPgx1pjFYsGsWbMwa9Ysr/MkJibi8ccfx+OPP+73bxMRNZUaN/vIEZkbqC8CjoVGDfoALpQ5gLEQEBPFmpBeZrZv344Wv4/ps3379lD+FBFRzMjJkf+PHZOv9c+0sRAAhroOIIM+otAK6WWmrRqtW/eaiMjMMjLkfyHkeMuxmAPoTwDoa4QOBoBEkRXWy8y2bdvw+OOPY+vWrbBYLOjatStuvfVWdOnSJZzJICKKKNWC9dgx4ODB2AwAm9oIhMO3EUVW2LqBeeONN1BUVIR169ahd+/e6NWrF9avX4+ioiK8/vrr4UoGEVFUUO3RDh3yDABjoR1aUxuB6IuH9e+ZA0gUWmF7zpw+fTpmzJiB+++/3236vffeizvuuAOXX355uJJCRBRxqanA3r3G3cDk5PiuPxdumhEwnZoSANbUuK9fdjawf79cb9VFDgNAotAKWw5gaWkprrvuOo/pY8aM8Tr2LhFRPKqpcfVt99lnrhzA664D+vYFrrkmuopIa2s9AzJt+mpqjIO9VauATZtkoFtSIv//5z/Ao48C+/bJeTp3BmbMkN/XLlP7e9EUDBPFi7DlAA4ePBiff/45Onbs6Db9iy++wBlnnBGuZBARRVxtLdC8uXy9cqVrevfuwGmnyX7voqkeoM0GzJ4NbN4MbN0KbNgAbNwItG4ti7B37pR9Ghq58045rnFtrQx6daNv4qyz5Lrq11nbMnr/fjnsGxEFT9guMSNHjsQdd9yBdevW4bTTTgMAfPXVV3j99ddx33334Z133nGbl4goXtlswBlnyNwwrebNZXFoQkJ0jW/rcAA9egDt2gH/+5+c9vnn8k+rY0fg5JMBq1UGidu3y+Ljigr5uQoSs7JkQNehgwwiMzNlkKhd59NPB157TY71q88dJKKmC1sAeNNNNwEAnnrqKTz11FOGnwEIuFNoIqJYY7cDRUXyb/Nm1/S0NNc4wdHGbpdFsX37Alu2yO5rtLKzgeHDgU6dZADbti3w3//KYuDkZLmue/fKgC87WwZ8XbrIYFAf/AHAH/8ov9e5c/TliBLFg7CdUvWxONo5EVGIpKQAl1/uHgBG+5i3NpvM4cvKAg4fBvbskbl9R48CbdrIHML8fLlu2dkyCGzfXubitWwpcwKFkMvJypLBYHW18VBv6enAxRfL3L9oyxEligd8piIiigC73TUiiBLt3b/Y7UBBgSyqTkmROXonTsigzuGQAV9trXyfmir/Cgpki+HcXNnnoQroHA4ZBB444DkSivb3OA4wUWiEvBXw+eefj/Lycuf7Bx98EIcPH3a+P3DgALp37x7qZBARRZ2kJPf30R4AAjIoa95c5vS1aiWDvnbtgMJCmWtnNH9ysgz41Gvm5hFFXsgDwI8++gjVmk6kHnroIRw8eND5/sSJE9i2bVuok0FEFHW0uVsWiyxOJSIKh5BfboQub1//nojIrGIhx4+I4hOfN4mIIkSbA8hnYyIKp5AHgBaLBRZdF/L690REZsQcQCKKlJC3AhZCYNy4cXA4HACA48ePY+LEiUhJSQEAt/qBRERmwhauRBQpIQ8Ax44d6/Z+zJgxHvMYjRFMRBTv2OiDiCIl5AHgokWLQv0TREQxibVhiChS+PxJREREZDIMAImIiIhMhgEgERERkckwACQiIiIyGQaARERERCbDAJCIiIjIZBgAEhEREZkMA0AiIiIik2EASERERGQyDACJiIiITIYBIBEREZHJMAAkIiIiMhkGgEREREQmwwCQiIiIyGQYABIRERGZDANAIiIiIpNhAEhERERkMgwAiYiIiEyGASARERGRyTAAJCIiIjIZBoBEREREJsMAkIiIiMhkGAASEUWJmppIp4CIzCIh0gmgwFksQE6OfH3gQGTTQhTr1PlksQBChP/3mzUD6urk6/37ZVrs9vCng4jMJSZzAD/77DNceOGFKCwshMViwdtvv+32uRACs2bNQmFhIZKSkjB48GBs2bLFbZ7q6mrceuutyMnJQUpKCkaOHIndu3eHcS28s1iA/HygRQv5urHz+PM7LVo0bRnRIpzr4uu31Ge5uUBBQXxs26bwZ1tF8zYySmOw0/3gg0BKCjBxIlBbC5w40fRlEhE1JCZzAI8ePYrevXvj+uuvx6WXXurx+fz587FgwQIsXrwYnTt3xuzZszF06FBs27YNaWlpAIApU6bg3XffxZIlS5CdnY2pU6dixIgRWLduHZo1axbuVfJgscgAoqDANa1VK/le5VSUlMggsL4eOHgQyMqSn1mtQO/eQGmpnGffPvl9lcsByJtXuNZD+1tCyFwOFcA2ayanCSFzM61WoGdP+f7772Wa+/SR61Ja6sqhsViAvDz5/tAhIDtbvi8rc81jtQJFRUBhodwOpaVyes+e8n9ZmQzUAJmO+nqZhhYtXL+ptp/FIpfVsqVr++/ZI7+XlyfXZcMG17ZWaczPl+nIzZXf2bJF/teup3o2KSiQyxdC/vaBAzLtp5zi/pva7aC2rfotbTpycmTa9u6Vy1Jp2bfPv5wulTNmtcrvFhTI7aFOj7w8OY/FItMIyPTt3Ss/00/r1UuujzoG1TGs9r/V6p4ufRq16cnL872tjJav3cc5OXKdWrWS/9Xxof1Ni0XuN+2xoI5n7TGZmyv/yspc++TgQf9zE4uLgUcflcGfzQYkBOGq3FCuploPX+fj/v2RyRENNXXuAfK4VOsbjRqTO62O27595brW1wPffiv3Z0GBPE9KS+V77bG8d6/rerh3r/yvzjNA/r66Zqpzb+9e+Xu9e8vX9fWu76pzQgj5Oi9PTlfLKCx0/x31u/X18rW6fqtrLgVfTAaAw4cPx/Dhww0/E0Lg0UcfxcyZMzFq1CgAwAsvvIC8vDy8+uqruPHGG1FeXo7nnnsOL730Es455xwAwMsvv4zWrVtjxYoVOPfcc8O2LkYsFnlyBDJP69byxNmwwfV5y5ZyHhU0AO4nYV6eaxm//SZvjIFcCP0pilY3FvWbKmesrEzebE4+2fOGDch5Wrd2LadlS9eFSE87n/a1ltH3W7Uyfu3Pb6rtq/28Xz/jebXLNkqf0TSj9Bj9JuC+3fSsVrmNVXCTn+9+M9EG1EY3GrX/VOCmDeDUw4iWUfq8bUf9MazWWRvo6oMUFSRrjxn10GOUw6hfvv4YU99R86kgT3sD1W6jFi1cgbR2W6jgCZDn1f798nz0J5ByOORya2tl8Beq4l9t+lXgrt+Hbdq4tr/F4v5AE0+0664P/MPx26qUwOhBQfvguH+/8fcDCQqtVs9rk/76oj9Hja4/RtO179U51ND1ztd119vvUmjEZBGwL9u3b0dpaSmGDRvmnOZwODBo0CCsWbMGALBu3TrU1ta6zVNYWIiioiLnPEaqq6tRUVHh9kfBo27Y2hsrNYzbLXr5W1xstwPJyaz7Z0axUBWC4lPcBYClv2d15amsrt/l5eU5PystLYXdbkdmZqbXeYzMnTsXGRkZzr/W3rKbopgKFlQuAJE3+ty/SKaDN0hj+lw9Cr2m1L9Wxc8nnyxfB/s3eDxQIOIuAFQsuqNfCOExTa+heWbMmIHy8nLn365du4KSViIifwUaEDOAJiIjMVkH0Jf83yuclZaWokDTgqKsrMyZK5ifn4+amhocOnTILRewrKwMxcXFXpftcDjgcDhClHJzUHVvfD39UtNpc++00yJV7ykeqIZHKkc0Greftn4YRU44uupSx6OqqxmNxyNFt7i7Dbdv3x75+flYvny5c1pNTQ1Wr17tDO769esHm83mNk9JSQk2b97sMwAkInOKluJwipzG5Lw2tauuaPgNil8xmQNYWVmJn376yfl++/bt2LBhA7KystCmTRtMmTIFc+bMQadOndCpUyfMmTMHycnJGD16NAAgIyMDEyZMwNSpU5GdnY2srCxMmzYNPXv2dLYKptDxp5UzUaxSN2XVJQZzZuKHtrulfftcrdSjoUN+levI+n/kr5gMAL/55hucddZZzve33347AGDs2LFYvHgxpk+fjqqqKtx00004dOgQBgwYgI8//tjZByAAPPLII0hISMAVV1yBqqoqDBkyBIsXL46KPgCJKHrwgYWijQpEVd+cRI0RkwHg4MGDIXw8VlssFsyaNQuzZs3yOk9iYiIef/xxPP744yFIYfzT9mWlOvMkCpVYLIJVaVadVVPkaOtGRuvxo1oIa/u4NPoccHU6TtQUMRkAElFoqQA/0gGXtqJ7tN64o42283UWQUcP/TmlHY2lKctUudNqxCGeJ+QvBoBEFLP0o5NEO/0QbMFYlhoSkWKLNodYjcxUUGA85KUKGNWwhUTBwACQiPzG+nCRpx9ekaKXtkHQwYOBfU91l+XvuN2qcQqrG5C/GAASUdTRBjkUXLGWaxortLm72lbBanv7M66y9gHL31xd/UMZH9DIXwwAiSgqqVwQgMVeZD4qsBOCxz+FBgNAojiics5iudGEPkeD9dv8p20tzaCh8bSthkNx/GmDuz17Avtey5byj6ipGABSQLQVz/0p0qDwYvEeeROLXelEE+3240MJxQMGgERERFGKDa8oVBgAkvMCs3evbFXY1KfbWOh0lYjMR5uLF4nfVa+105kjS5HCAJCcvLViI4p32jpZPPbNS/vwShTvGACS31SAyO45KJxYBEbRSnXU3FB/fTyGKRoxACSKM2xFS9pjQDuyBAWX2s5WK7czxR4GgEREFNdUHTyrNfTFu9qeEliUTNHMGukEEBERRZq2iou+oUaLFvKPAR3FEwaA1CjsUyx2accN5b5z5y0IICKKNywCNglVWTkYFZG1XRfU1zd9eUTUNCpwVa8ptKxW4OST5WvW+6NYxQCQgk47HFlZWaRTQ40ZYJ6IiOIbA0AioiZikB3brFagZ0+goMA1hrIqNQFkJ/lE8YZ1AImIiIhMhjmA5JV2ZJD9+yOdGqLQU9UXCgpipy6dxeJKr7ecqmA12tKOlBHrOZ0WC9CypdwmKtfP23xGw7j5s3w2kqNoxgCQiIg8aBuWxGqwp9aB45ITeWIAaAL6XI3GXswbm4ugciisrHBAcSRWhvfS9gDg73mrznUhZK5irAaAgdLu0717mYtH8Y0BIIWEdogkIoqMphZpq+/X1wMHDsRnIMihE8msGAASmYi62QkB7NnjPl113VNaGrn0UXzVs4skfXdUzM0jcscAkIgIsVOkC/hXrSKW1ieaqMYhLVuG7/e4nygSGADGEW3v9JHACtdEsc+oSPS33yKXHiIKDQaA5EZVGLda5YVfvbdYZB0gf76vGooQUfjEYhc2RBQ5DADJkDaQE4JDuhE1lrYuWlPr9PEBi4iChQEgAXDv9iHQm5Qq+s3NBfbtc5/O4bEo1Mxah0q/3vGwDWKxAYx2P5SWxk66iRgAEpGTNrcqHosRYzlYVA9abMkafbSjiuzZw7GDKTYwADQho5ugt+5B/FlWY3MOicg/VitQVCSDjEgEf9phIX3Nk58v07pvn3mvB6yLSbGCASCRibHlduiorlqAwB6qoo22/zz1oBfNo4OoYmSrlcc0kS8cp4E8BGvgeCIiIopOzAGksIjlulfxSF9xnYiajtc5iiUMAMlNoBcwbd3BkhLWfSFq7Niy2hawREShxgCQiAC4B/Ps9zF4mtpNCFv/NkwFz4B/HdYTEesAEhGFjapfq7raoeBSwbJ2+7JOM5Ex5gASEVHMC+aIK0RmwACQyKS0RZPsuJaCRdtn4P793oOxcPQbqO3ChojcsQiYyORYRBYe3M7BZVTcS0T+Yw4g+YUV0YkoFqgOuK3M3iDyiQEgNUjlXKjXREShoh1e8sAB1ucjChXTPyM99dRTaN++PRITE9GvXz98/vnnkU5STFJ1bZhDSORJe35YrfK/GoKPpMYU6artym1JFDhTB4D/+te/MGXKFMycORPffvstzjjjDAwfPhw7d+6MdNKIIoZdlUSWdvtbreaq59aYB0ker0SNY+oAcMGCBZgwYQJuuOEGdOvWDY8++ihat26NhQsXRjppREQUAKNcVpZIEHln2jqANTU1WLduHe6880636cOGDcOaNWsilKrg49iU5AuPj+hmsQB5eQxkfOExTNQ4pg0A9+/fj7q6OuTl5blNz8vLQ2lpqeF3qqurUV1d7XxfUVER0jQSkXmpos14Hltb28Bs//7IpoXIbExdBAwAFt2VVQjhMU2ZO3cuMjIynH+tW7cORxKJiExHNQrJzZV/LVq46kSy0QdR05k2AMzJyUGzZs08cvvKyso8cgWVGTNmoLy83Pm3a9eucCQ14tjCl4hCRfXb17OnZ26nvkEMG3sQBY9pA0C73Y5+/fph+fLlbtOXL1+O4uJiw+84HA6kp6e7/RERUXCph04V7HEUFaLgM20dQAC4/fbbce2116J///4YOHAgnnnmGezcuRMTJ06MdNKIyCQsFlnEqQoeysoim55oo3IIVeDXsqUMBEtKXJ8TUeBMHQBeeeWVOHDgAO6//36UlJSgqKgI77//Ptq2bRvppBFFDFtVRo4ZGn4Y0Qd5RBR6pg4AAeCmm27CTTfdFOlkEBEREYWNaesAEhEREZmV6XMAiYgotrCaAlHTMQeQiIiIyGQYABIRERGZDANAIiIiIpNhAEhERERkMgwAiYiIiEyGASARERGRybAbGCKiMFMjfgCAEJFNCxGZE3MAiYgiSAWDhYUcCo2IwocBIBEREZHJMAAkIiIiMhkGgEREREQmwwCQiIiIyGQYABIRERGZDANAIiIiIpNhAEhERERkMgwAiYiIiEyGASARERGRyXAoOCKiKGCxyNFAzEStM0dAIQo/5gASERERmQwDQCIi8knl1DG3jih+sAiYiCjMtMW9e/dGNi3BYLEALVoArVoBbdrIaUIAv/0GbN4sXytWK1BUBLRsyWCSKJIYABIRRYjFAuTnAwUF8RcMqSC3rEwGgC1aAIcOATk5zEkkigYMAImIIiAWG31oG23U18vcPADIy5Ov9UGdCnABGeSq3MFAfouIQoMBIBER+U0bmLVq5f+8RBRd2AiEiIiIyGQYABIRERGZDANAIiIiIpNhAEhERERkMgwAiYiIiEyGASARERGRyTAAJCIiIjIZBoBEREREJsMAkIiIiMhkGAASERERmQwDQCIiIiKTYQBIREREZDIMAImIiIhMhgEgERERkckwACQiIiIymYRIJyCWCSEAABUVFRFOCREREflL3bfVfdyMGAA2wZEjRwAArVu3jnBKiIiIKFBHjhxBRkZGpJMRERZh5vC3ierr67Fnzx6kpaXBYrEEddkVFRVo3bo1du3ahfT09KAuO5Zxu3jHbeMdt4133DbGuF28i4dtI4TAkSNHUFhYCKvVnLXhmAPYBFarFa1atQrpb6Snp8fsCRZK3C7ecdt4x23jHbeNMW4X72J925g1508xZ9hLREREZGIMAImIiIhMhgFglHI4HLj33nvhcDginZSowu3iHbeNd9w23nHbGON28Y7bJj6wEQgRERGRyTAHkIiIiMhkGAASERERmQwDQCIiIiKTYQBIREREZDIMAKPQU089hfbt2yMxMRH9+vXD559/Hukkhdxnn32GCy+8EIWFhbBYLHj77bfdPhdCYNasWSgsLERSUhIGDx6MLVu2uM1TXV2NW2+9FTk5OUhJScHIkSOxe/fuMK5F8M2dOxennHIK0tLSkJubi4svvhjbtm1zm8es22bhwoXo1auXszPagQMH4oMPPnB+btbtojd37lxYLBZMmTLFOc2s22bWrFmwWCxuf/n5+c7PzbpdlN9++w1jxoxBdnY2kpOT0adPH6xbt875udm3T9wRFFWWLFkibDabePbZZ8X3338vJk+eLFJSUsSOHTsinbSQev/998XMmTPFm2++KQCIpUuXun0+b948kZaWJt58802xadMmceWVV4qCggJRUVHhnGfixImiZcuWYvny5WL9+vXirLPOEr179xYnTpwI89oEz7nnnisWLVokNm/eLDZs2CAuuOAC0aZNG1FZWemcx6zb5p133hHLli0T27ZtE9u2bRN/+ctfhM1mE5s3bxZCmHe7aH399deiXbt2olevXmLy5MnO6WbdNvfee6/o0aOHKCkpcf6VlZU5PzfrdhFCiIMHD4q2bduKcePGif/+979i+/btYsWKFeKnn35yzmPm7ROPGABGmVNPPVVMnDjRbVrXrl3FnXfeGaEUhZ8+AKyvrxf5+fli3rx5zmnHjx8XGRkZ4umnnxZCCHH48GFhs9nEkiVLnPP89ttvwmq1ig8//DBsaQ+1srIyAUCsXr1aCMFto5eZmSn+8Y9/cLsIIY4cOSI6deokli9fLgYNGuQMAM28be69917Ru3dvw8/MvF2EEOKOO+4Qp59+utfPzb594hGLgKNITU0N1q1bh2HDhrlNHzZsGNasWROhVEXe9u3bUVpa6rZdHA4HBg0a5Nwu69atQ21trds8hYWFKCoqiqttV15eDgDIysoCwG2j1NXVYcmSJTh69CgGDhzI7QLg5ptvxgUXXIBzzjnHbbrZt82PP/6IwsJCtG/fHldddRV++eUXANwu77zzDvr374/LL78cubm56Nu3L5599lnn52bfPvGIAWAU2b9/P+rq6pCXl+c2PS8vD6WlpRFKVeSpdfe1XUpLS2G325GZmel1nlgnhMDtt9+O008/HUVFRQC4bTZt2oTU1FQ4HA5MnDgRS5cuRffu3U2/XZYsWYL169dj7ty5Hp+ZedsMGDAAL774Ij766CM8++yzKC0tRXFxMQ4cOGDq7QIAv/zyCxYuXIhOnTrho48+wsSJE/HnP/8ZL774IgBzHzfxKiHSCSBPFovF7b0QwmOaGTVmu8TTtrvlllvw3Xff4YsvvvD4zKzbpkuXLtiwYQMOHz6MN998E2PHjsXq1audn5txu+zatQuTJ0/Gxx9/jMTERK/zmXHbDB8+3Pm6Z8+eGDhwIE466SS88MILOO200wCYc7sAQH19Pfr37485c+YAAPr27YstW7Zg4cKFuO6665zzmXX7xCPmAEaRnJwcNGvWzONJqayszOOpy0xUKz1f2yU/Px81NTU4dOiQ13li2a233op33nkHK1euRKtWrZzTzb5t7HY7OnbsiP79+2Pu3Lno3bs3/v73v5t6u6xbtw5lZWXo168fEhISkJCQgNWrV+Oxxx5DQkKCc93MuG30UlJS0LNnT/z444+mPmYAoKCgAN27d3eb1q1bN+zcuRMArzXxiAFgFLHb7ejXrx+WL1/uNn358uUoLi6OUKoir3379sjPz3fbLjU1NVi9erVzu/Tr1w82m81tnpKSEmzevDmmt50QArfccgveeustfPrpp2jfvr3b52beNkaEEKiurjb1dhkyZAg2bdqEDRs2OP/69++Pa665Bhs2bECHDh1Mu230qqursXXrVhQUFJj6mAGAP/zhDx5dTP3vf/9D27ZtAfBaE5fC3+6EfFHdwDz33HPi+++/F1OmTBEpKSni119/jXTSQurIkSPi22+/Fd9++60AIBYsWCC+/fZbZ/c38+bNExkZGeKtt94SmzZtEldffbVh9wOtWrUSK1asEOvXrxdnn312zHc/MGnSJJGRkSFWrVrl1nXFsWPHnPOYddvMmDFDfPbZZ2L79u3iu+++E3/5y1+E1WoVH3/8sRDCvNvFiLYVsBDm3TZTp04Vq1atEr/88ov46quvxIgRI0RaWprz+mrW7SKE7DIoISFBPPjgg+LHH38Ur7zyikhOThYvv/yycx4zb594xAAwCj355JOibdu2wm63i5NPPtnZ5Uc8W7lypQDg8Td27FghhOyC4N577xX5+fnC4XCIM888U2zatMltGVVVVeKWW24RWVlZIikpSYwYMULs3LkzAmsTPEbbBIBYtGiRcx6zbpvx48c7z5MWLVqIIUOGOIM/Icy7XYzoA0CzbhvVb53NZhOFhYVi1KhRYsuWLc7PzbpdlHfffVcUFRUJh8MhunbtKp555hm3z82+feKNRQghIpP3SERERESRwDqARERERCbDAJCIiIjIZBgAEhEREZkMA0AiIiIik2EASERERGQyDACJiIiITIYBIBEREZHJMAAkItP59ddfYbFYsGHDhpD9xrhx43DxxReHbPlERE3BAJCIYs64ceNgsVg8/s477zy/vt+6dWuUlJSgqKgoxCklIopOCZFOABFRY5x33nlYtGiR2zSHw+HXd5s1a4b8/PxQJIuIKCYwB5CIYpLD4UB+fr7bX2ZmJgDAYrFg4cKFGD58OJKSktC+fXu8/vrrzu/qi4APHTqEa665Bi1atEBSUhI6derkFlxu2rQJZ599NpKSkpCdnY0//elPqKysdH5eV1eH22+/Hc2bN0d2djamT58O/SibQgjMnz8fHTp0QFJSEnr37o033ngjhFuIiMg7BoBEFJfuvvtuXHrppdi4cSPGjBmDq6++Glu3bvU67/fff48PPvgAW7duxcKFC5GTkwMAOHbsGM477zxkZmZi7dq1eP3117FixQrccsstzu8//PDDeP755/Hcc8/hiy++wMGDB7F06VK337jrrruwaNEiLFy4EFu2bMFtt92GMWPGYPXq1aHbCERE3ggiohgzduxY0axZM5GSkuL2d//99wshhAAgJk6c6PadAQMGiEmTJgkhhNi+fbsAIL799lshhBAXXnihuP766w1/65lnnhGZmZmisrLSOW3ZsmXCarWK0tJSIYQQBQUFYt68ec7Pa2trRatWrcRFF10khBCisrJSJCYmijVr1rgte8KECeLqq69u/IYgImok1gEkoph01llnYeHChW7TsrKynK8HDhzo9tnAgQO9tvqdNGkSLr30Uqxfvx7Dhg3DxRdfjOLiYgDA1q1b0bt3b6SkpDjn/8Mf/oD6+nps27YNiYmJKCkpcfu9hIQE9O/f31kM/P333+P48eMYOnSo2+/W1NSgb9++ga88EVETMQAkopiUkpKCjh07BvQdi8ViOH348OHYsWMHli1bhhUrVmDIkCG4+eab8be//Q1CCK/f8zZdr76+HgCwbNkytGzZ0u0zfxuuEBEFE+sAElFc+uqrrzzed+3a1ev8LVq0wLhx4/Dyyy/j0UcfxTPPPAMA6N69OzZs2ICjR4865/3Pf/4Dq9WKzp07IyMjAwUFBW6/d+LECaxbt875vnv37nA4HNi5cyc6duzo9te6detgrTIRkd+YA0hEMam6uhqlpaVu0xISEpyNN15//XX0798fp59+Ol555RV8/fXXeO655wyXdc8996Bfv37o0aMHqqur8d5776Fbt24AgGuuuQb33nsvxo4di1mzZmHfvn249dZbce211yIvLw8AMHnyZMybNw+dOnVCt27dsGDBAhw+fNi5/LS0NEybNg233XYb6uvrcfrpp6OiogJr1qxBamoqxo4dG4ItRETkHQNAIopJH374IQoKCtymdenSBT/88AMA4L777sOSJUtw0003IT8/H6+88gq6d+9uuCy73Y4ZM2bg119/RVJSEs444wwsWbIEAJCcnIyPPvoIkydPximnnILk5GRceumlWLBggfP7U6dORUlJCcaNGwer1Yrx48fjkksuQXl5uXOeBx54ALm5uZg7dy5++eUXNG/eHCeffDL+8pe/BHvTEBE1yCKErrMqIqIYZ7FYsHTpUg7FRkTkBesAEhEREZkMA0AiIiIik2EdQCKKO6zZQkTkG3MAiYiIiEyGASARERGRyTAAJCIiIjIZBoBEREREJsMAkIiIiMhkGAASERERmQwDQCIiIiKTYQBIREREZDIMAImIiIhM5v8DGgMIAEcF/cgAAAAASUVORK5CYII=;" vertex="1" parent="1">
          <mxGeometry x="-270" y="550" width="413.33" height="310" as="geometry" />
        </mxCell>
        <mxCell id="JOAAqWhhBDu5gQpFyMWB-7" value="&lt;b&gt;epsilon = 0.05&lt;/b&gt;" style="text;html=1;align=center;verticalAlign=middle;resizable=0;points=[];autosize=1;strokeColor=none;fillColor=none;" vertex="1" parent="1">
          <mxGeometry x="-125" y="535" width="100" height="30" as="geometry" />
        </mxCell>
        <mxCell id="JOAAqWhhBDu5gQpFyMWB-5" value="&lt;span style=&quot;color: rgb(0, 0, 0); font-family: Helvetica; font-size: 12px; font-style: normal; font-variant-ligatures: normal; font-variant-caps: normal; letter-spacing: normal; orphans: 2; text-align: center; text-indent: 0px; text-transform: none; widows: 2; word-spacing: 0px; -webkit-text-stroke-width: 0px; background-color: rgb(251, 251, 251); text-decoration-thickness: initial; text-decoration-style: initial; text-decoration-color: initial; float: none; display: inline !important;&quot;&gt;&lt;b&gt;lr = 1e-3&lt;/b&gt;&lt;/span&gt;" style="text;whiteSpace=wrap;html=1;" vertex="1" parent="1">
          <mxGeometry x="-300" y="700" width="80" height="40" as="geometry" />
        </mxCell>
        <mxCell id="JOAAqWhhBDu5gQpFyMWB-10" value="&lt;span style=&quot;color: rgb(0, 0, 0); font-family: Helvetica; font-size: 12px; font-style: normal; font-variant-ligatures: normal; font-variant-caps: normal; letter-spacing: normal; orphans: 2; text-align: center; text-indent: 0px; text-transform: none; widows: 2; word-spacing: 0px; -webkit-text-stroke-width: 0px; background-color: rgb(251, 251, 251); text-decoration-thickness: initial; text-decoration-style: initial; text-decoration-color: initial; float: none; display: inline !important;&quot;&gt;&lt;b&gt;lr = 1e-4&lt;/b&gt;&lt;/span&gt;" style="text;whiteSpace=wrap;html=1;" vertex="1" parent="1">
          <mxGeometry x="-300" y="980" width="80" height="40" as="geometry" />
        </mxCell>
      </root>
    </mxGraphModel>
  </diagram>
</mxfile>
